<svg width="798" height="618" viewBox="0 0 798 618" fill="none" xmlns="http://www.w3.org/2000/svg">
<path d="M246.482 505.833C203.939 505.833 161.395 505.833 118.852 505.833C117.904 505.833 117.904 507.378 118.852 507.378C161.395 507.378 203.939 507.378 246.482 507.378C247.43 507.378 247.43 505.833 246.482 505.833Z" fill="#161616"/>
<path d="M398.9 498.108C434.411 498.108 469.872 498.108 505.383 498.108C515.458 498.108 525.533 498.108 535.608 498.108C536.555 498.108 536.555 496.563 535.608 496.563C500.097 496.563 464.635 496.563 429.124 496.563C419.05 496.563 408.975 496.563 398.9 496.563C397.953 496.563 397.953 498.108 398.9 498.108Z" fill="#161616"/>
<path d="M543.837 498.108C571.119 498.108 598.4 498.108 625.682 498.108C626.629 498.108 626.629 496.563 625.682 496.563C598.4 496.563 571.119 496.563 543.837 496.563C542.889 496.563 542.889 498.108 543.837 498.108Z" fill="#161616"/>
<path d="M637.702 498.108C642.44 498.108 647.228 498.108 651.966 498.108C652.914 498.108 652.914 496.563 651.966 496.563C647.228 496.563 642.44 496.563 637.702 496.563C636.754 496.563 636.704 498.108 637.702 498.108Z" fill="#161616"/>
<path d="M570.52 496.357C570.52 479.053 570.52 461.698 570.52 444.394C570.52 443.415 569.024 443.415 569.024 444.394C569.024 461.698 569.024 479.053 569.024 496.357C569.024 497.335 570.52 497.335 570.52 496.357Z" fill="#E8E8E8"/>
<path d="M570.071 445.166C600.146 445.166 630.27 445.166 660.345 445.166C661.293 445.166 661.293 443.621 660.345 443.621C630.27 443.621 600.146 443.621 570.071 443.621C569.124 443.621 569.124 445.166 570.071 445.166Z" fill="#E8E8E8"/>
<path d="M659.896 445.681C659.896 462.161 659.896 478.641 659.896 495.121C659.896 496.099 661.392 496.099 661.392 495.121C661.392 478.641 661.392 462.161 661.392 445.681C661.392 444.651 659.896 444.651 659.896 445.681Z" fill="#E8E8E8"/>
<path d="M578.45 450.367C578.45 462.727 578.45 475.139 578.45 487.499C578.45 488.478 579.946 488.478 579.946 487.499C579.946 475.139 579.946 462.727 579.946 450.367C579.946 449.389 578.45 449.389 578.45 450.367Z" fill="#E8E8E8"/>
<path d="M590.071 450.677C590.071 461.903 590.071 473.131 590.071 484.357C590.071 485.336 591.567 485.336 591.567 484.357C591.567 473.131 591.567 461.903 591.567 450.677C591.567 449.698 590.071 449.698 590.071 450.677Z" fill="#E8E8E8"/>
<path d="M602.889 449.749C602.889 460.873 602.889 471.997 602.889 483.121C602.889 484.1 604.385 484.1 604.385 483.121C604.385 471.997 604.385 460.873 604.385 449.749C604.385 448.771 602.889 448.771 602.889 449.749Z" fill="#E8E8E8"/>
<path d="M616.006 451.964C616.006 463.294 616.006 474.624 616.006 485.954C616.006 486.932 617.502 486.932 617.502 485.954C617.502 474.624 617.502 463.294 617.502 451.964C617.502 450.985 616.006 450.934 616.006 451.964Z" fill="#E8E8E8"/>
<path d="M628.774 452.582C628.774 464.221 628.774 475.86 628.774 487.55C628.774 488.529 630.27 488.529 630.27 487.55C630.27 475.912 630.27 464.273 630.27 452.582C630.27 451.604 628.774 451.604 628.774 452.582Z" fill="#E8E8E8"/>
<path d="M644.634 452.891C644.634 463.912 644.634 474.933 644.634 485.954C644.634 486.932 646.13 486.932 646.13 485.954C646.13 474.933 646.13 463.912 646.13 452.891C646.13 451.913 644.634 451.913 644.634 452.891Z" fill="#E8E8E8"/>
<path d="M655.308 454.487C655.308 464.375 655.308 474.212 655.308 484.1C655.308 485.078 656.804 485.078 656.804 484.1C656.804 474.212 656.804 464.375 656.804 454.487C656.804 453.457 655.308 453.457 655.308 454.487Z" fill="#E8E8E8"/>
<path d="M536.406 195.288C574.859 195.288 613.363 195.288 651.817 195.288C662.739 195.288 673.712 195.288 684.634 195.288C685.582 195.288 685.582 193.743 684.634 193.743C646.181 193.743 607.677 193.743 569.223 193.743C558.301 193.743 547.328 193.743 536.406 193.743C535.408 193.743 535.408 195.288 536.406 195.288Z" fill="#E8E8E8"/>
<path d="M537.154 194.052C537.154 190.653 537.154 187.305 537.154 183.906C537.154 182.928 535.657 182.928 535.657 183.906C535.657 187.305 535.657 190.653 535.657 194.052C535.657 195.082 537.154 195.082 537.154 194.052Z" fill="#E8E8E8"/>
<path d="M536.406 185.143C574.46 185.143 612.515 185.143 650.52 185.143C661.442 185.143 672.365 185.143 683.287 185.143C684.235 185.143 684.235 183.597 683.287 183.597C645.233 183.597 607.178 183.597 569.173 183.597C558.251 183.597 547.328 183.597 536.406 183.597C535.408 183.597 535.408 185.143 536.406 185.143Z" fill="#E8E8E8"/>
<path d="M682.988 184.833C682.988 188.232 682.988 191.58 682.988 194.979C682.988 195.958 684.484 195.958 684.484 194.979C684.484 191.58 684.484 188.232 684.484 184.833C684.484 183.855 682.988 183.855 682.988 184.833Z" fill="#E8E8E8"/>
<path d="M552.017 144.612C552.465 148.114 552.964 151.719 552.465 155.272C552.016 158.671 550.57 161.71 549.323 164.851C546.929 170.774 545.682 176.954 545.732 183.34C545.732 184.318 547.228 184.318 547.228 183.34C547.228 176.027 549.024 169.538 551.767 162.894C552.765 160.474 553.662 158.002 554.012 155.375C554.46 151.77 554.012 148.217 553.563 144.612C553.363 143.633 551.867 143.633 552.017 144.612Z" fill="#E8E8E8"/>
<path d="M553.213 145.281C554.859 144.457 556.705 144.148 558.55 144.56C559.597 144.818 559.797 145.436 560.096 146.363C560.246 146.826 560.296 147.032 560.595 147.444C561.193 148.217 562.241 147.136 561.642 146.363C561.243 145.848 561.642 144.818 561.094 144.2C560.545 143.479 559.448 143.221 558.65 143.067C556.505 142.655 554.361 143.015 552.415 143.994C551.568 144.354 552.316 145.693 553.213 145.281Z" fill="#E8E8E8"/>
<path d="M560.146 145.745C559.697 151.976 561.243 157.487 564.036 162.946C567.378 169.486 567.927 176.285 568.126 183.598C568.176 184.576 569.672 184.576 569.622 183.598C569.423 177.366 569.223 170.929 566.73 165.161C565.433 162.122 563.687 159.392 562.74 156.199C561.692 152.8 561.393 149.298 561.642 145.745C561.742 144.766 560.196 144.766 560.146 145.745Z" fill="#E8E8E8"/>
<path d="M583.787 183.134C584.485 181.743 583.837 180.25 584.734 179.065C586.131 177.314 590.57 177.366 592.565 177.16C597.004 176.696 601.393 176.748 605.831 177.108C610.27 177.469 614.709 178.087 619.198 178.293C621.392 178.396 623.587 178.344 625.781 178.293C627.976 178.241 634.011 178.962 631.717 182.825C631.218 183.649 632.515 184.473 633.013 183.597C635.058 180.198 631.667 177.16 628.525 176.748C625.781 176.387 622.939 176.851 620.146 176.748C616.804 176.645 613.462 176.284 610.121 175.924C603.787 175.306 597.502 174.945 591.168 175.718C588.974 175.975 585.682 175.975 583.787 177.263C581.892 178.55 583.338 180.507 582.49 182.258C582.041 183.237 583.338 184.061 583.787 183.134Z" fill="#E8E8E8"/>
<path d="M602.041 175.563C602.49 174.43 602.241 173.297 602.59 172.164C603.487 169.28 607.029 170.156 609.173 170.156C613.163 170.156 617.103 170.156 621.093 170.207C629.023 170.207 636.954 170.259 644.934 170.259C644.684 170.053 644.435 169.898 644.235 169.692C644.784 172.319 645.233 174.945 645.582 177.623C645.682 178.602 647.178 178.602 647.078 177.623C646.729 174.791 646.28 172.01 645.682 169.28C645.632 168.971 645.283 168.714 644.983 168.714C635.407 168.662 625.782 168.662 616.206 168.611C613.911 168.611 611.567 168.611 609.273 168.611C607.527 168.611 605.532 168.302 603.787 168.714C600.545 169.486 601.692 172.731 600.744 175.151C600.246 176.078 601.692 176.49 602.041 175.563Z" fill="#E8E8E8"/>
<path d="M632.515 179.529C636.854 179.786 641.193 179.683 645.482 179.168C646.43 179.065 646.43 177.521 645.482 177.624C641.143 178.138 636.854 178.242 632.515 177.984C631.567 177.881 631.567 179.426 632.515 179.529Z" fill="#E8E8E8"/>
<path d="M632.365 169.589C633.362 172.267 633.811 175.049 633.712 177.933C633.662 178.911 635.158 178.911 635.208 177.933C635.308 174.894 634.809 172.01 633.811 169.178C633.462 168.25 632.016 168.662 632.365 169.589Z" fill="#E8E8E8"/>
<path d="M664.484 136.681C664.484 140.955 664.484 145.281 664.484 149.556C664.484 153.624 664.784 157.899 664.036 161.916C663.337 165.778 661.342 168.92 659.347 172.164C657.203 175.769 655.258 179.477 653.462 183.288C653.063 184.164 654.36 184.988 654.759 184.061C656.654 179.992 658.749 176.027 661.093 172.164C662.988 169.074 664.784 165.984 665.432 162.328C666.08 158.62 665.931 154.809 665.931 151.101C665.931 146.311 665.931 141.47 665.931 136.681C665.981 135.702 664.484 135.702 664.484 136.681Z" fill="#E8E8E8"/>
<path d="M665.731 137.66C668.175 136.269 670.918 136.32 673.312 137.763C674.16 138.278 674.908 136.938 674.061 136.423C671.218 134.672 667.826 134.621 664.983 136.32C664.135 136.784 664.884 138.123 665.731 137.66Z" fill="#E8E8E8"/>
<path d="M672.115 137.196C672.115 141.934 672.066 146.723 672.066 151.461C672.066 155.272 671.716 159.289 672.215 163.1C672.714 166.705 674.609 169.383 676.654 172.216C679.198 175.666 680.993 179.271 681.891 183.546C682.09 184.524 683.537 184.113 683.337 183.134C682.639 179.684 681.342 176.439 679.447 173.503C677.352 170.259 674.509 167.529 673.811 163.512C673.063 159.289 673.562 154.654 673.562 150.431C673.562 146.002 673.612 141.573 673.612 137.144C673.612 136.217 672.115 136.217 672.115 137.196Z" fill="#E8E8E8"/>
<path d="M593.163 211.768C593.163 231.132 593.163 250.547 593.163 269.911C593.163 270.89 594.66 270.89 594.66 269.911C594.66 250.547 594.66 231.132 594.66 211.768C594.66 210.738 593.163 210.738 593.163 211.768Z" fill="#E8E8E8"/>
<path d="M595.009 211.922C620.994 211.922 646.978 211.922 672.963 211.922C673.911 211.922 673.911 210.377 672.963 210.377C646.978 210.377 620.994 210.377 595.009 210.377C594.061 210.377 594.061 211.922 595.009 211.922Z" fill="#E8E8E8"/>
<path d="M594.111 270.581C618.949 270.581 643.786 270.581 668.674 270.581C669.622 270.581 669.622 269.036 668.674 269.036C643.836 269.036 618.999 269.036 594.111 269.036C593.113 269.036 593.113 270.581 594.111 270.581Z" fill="#E8E8E8"/>
<path d="M671.317 212.232C671.317 231.441 671.317 250.599 671.317 269.808C671.317 270.787 672.814 270.787 672.814 269.808C672.814 250.599 672.814 231.441 672.814 212.232C672.814 211.253 671.317 211.253 671.317 212.232Z" fill="#E8E8E8"/>
<path d="M668.225 270.839C669.223 270.839 670.27 270.839 671.268 270.839C672.215 270.839 672.215 269.294 671.268 269.294C670.27 269.294 669.223 269.294 668.225 269.294C667.278 269.294 667.278 270.839 668.225 270.839Z" fill="#E8E8E8"/>
<path d="M599.996 229.278C621.642 229.329 643.338 229.381 664.983 229.432C665.931 229.432 665.931 227.887 664.983 227.887C643.338 227.836 621.642 227.784 599.996 227.733C599.049 227.733 599.049 229.278 599.996 229.278Z" fill="#E8E8E8"/>
<path d="M602.041 244.367C622.989 244.316 643.886 244.264 664.834 244.213C665.781 244.213 665.781 242.668 664.834 242.668C643.886 242.719 622.989 242.771 602.041 242.822C601.093 242.822 601.093 244.367 602.041 244.367Z" fill="#E8E8E8"/>
<path d="M603.238 259.406C624.036 259.406 644.834 259.406 665.632 259.406C666.579 259.406 666.579 257.86 665.632 257.86C644.834 257.86 624.036 257.86 603.238 257.86C602.29 257.86 602.29 259.406 603.238 259.406Z" fill="#E8E8E8"/>
<path d="M613.263 228.711C613.263 238.754 613.263 248.796 613.263 258.839C613.263 259.817 614.759 259.817 614.759 258.839C614.759 248.796 614.759 238.754 614.759 228.711C614.759 227.733 613.263 227.733 613.263 228.711Z" fill="#E8E8E8"/>
<path d="M630.869 229.175C630.869 238.702 630.869 248.281 630.869 257.809C630.869 258.787 632.365 258.787 632.365 257.809C632.365 248.281 632.365 238.702 632.365 229.175C632.365 228.145 630.869 228.145 630.869 229.175Z" fill="#E8E8E8"/>
<path d="M648.275 228.505C648.275 238.187 648.275 247.869 648.275 257.603C648.275 258.581 649.771 258.581 649.771 257.603C649.771 247.921 649.771 238.239 649.771 228.505C649.771 227.527 648.275 227.527 648.275 228.505Z" fill="#E8E8E8"/>
<path d="M664.086 228.969C664.086 238.651 664.086 248.333 664.086 258.066C664.086 259.045 665.582 259.045 665.582 258.066C665.582 248.384 665.582 238.702 665.582 228.969C665.582 227.939 664.086 227.939 664.086 228.969Z" fill="#E8E8E8"/>
<path d="M605.682 246.685C603.737 248.333 601.692 250.959 603.088 253.689C603.587 254.667 604.435 255.44 605.532 255.594C606.929 255.8 608.026 254.822 608.974 253.895C609.672 253.225 608.625 252.092 607.926 252.813C607.178 253.534 606.33 254.41 605.283 253.895C604.535 253.534 604.136 252.607 604.136 251.783C604.136 250.135 605.582 248.796 606.729 247.818C607.477 247.148 606.43 246.067 605.682 246.685Z" fill="#E8E8E8"/>
<path d="M622.739 252.813C620.894 251.938 620.495 249.26 622.54 248.282C623.787 247.715 624.235 249.26 624.385 250.238C624.535 251.062 624.136 253.174 622.839 252.298C622.041 251.783 621.293 253.122 622.091 253.637C623.487 254.564 625.233 253.586 625.782 252.092C626.181 250.908 625.831 249.672 625.432 248.539C625.133 247.664 624.784 246.891 623.886 246.582C622.141 246.067 620.295 247.664 619.797 249.312C619.198 251.217 620.246 253.277 621.941 254.101C622.839 254.564 623.587 253.225 622.739 252.813Z" fill="#E8E8E8"/>
<path d="M609.024 246.53C608.924 246.376 608.924 246.17 609.123 246.118C608.974 246.015 608.824 245.964 608.675 245.861C608.874 246.427 608.525 247.045 608.525 247.663C608.525 248.075 608.724 248.487 609.074 248.745C609.822 249.311 610.819 249.002 611.218 248.178C611.418 247.715 610.769 247.354 610.57 247.766C610.171 248.59 609.173 248.23 609.273 247.354C609.323 246.788 609.572 246.273 609.373 245.655C609.323 245.449 609.123 245.294 608.924 245.397C608.325 245.603 607.976 246.376 608.375 246.942C608.625 247.354 609.273 246.942 609.024 246.53Z" fill="#E8E8E8"/>
<path d="M626.43 246.221C626.929 246.118 627.377 245.964 627.876 245.861C628.325 245.758 628.126 244.985 627.677 245.14C627.178 245.243 626.729 245.397 626.23 245.5C625.781 245.603 625.981 246.376 626.43 246.221Z" fill="#E8E8E8"/>
<path d="M626.181 246.221C626.28 246.479 626.33 246.788 626.43 247.045C626.48 247.2 626.629 247.354 626.779 247.354C627.028 247.303 627.378 247.251 627.577 247.354C627.677 247.406 627.776 247.509 627.776 247.612C627.776 247.715 627.677 247.612 627.727 247.663C627.427 247.303 626.879 247.818 627.178 248.23C627.627 248.745 628.525 248.333 628.525 247.663C628.525 246.685 627.477 246.53 626.779 246.633C626.879 246.736 627.028 246.839 627.128 246.942C627.028 246.685 626.979 246.376 626.879 246.118C626.779 245.501 626.081 245.707 626.181 246.221Z" fill="#E8E8E8"/>
<path d="M619.298 232.316C619.497 234.428 619.497 236.488 619.248 238.599C619.198 239.114 619.946 239.114 619.996 238.599C620.196 236.488 620.246 234.428 620.046 232.316C619.996 231.801 619.248 231.801 619.298 232.316Z" fill="#E8E8E8"/>
<path d="M620.046 235.921C621.542 235.767 622.54 234.428 622.24 232.883C622.141 232.419 621.542 232.574 621.492 232.986C621.293 234.891 621.243 236.848 621.343 238.754C621.343 239.269 622.091 239.269 622.091 238.754C621.991 236.797 622.041 234.891 622.24 232.986C621.991 233.037 621.742 233.037 621.492 233.089C621.692 234.119 620.994 235.046 619.996 235.149C619.597 235.2 619.597 235.973 620.046 235.921Z" fill="#E8E8E8"/>
<path d="M624.285 231.75C624.335 231.647 624.335 231.595 624.385 231.492C624.285 231.544 624.136 231.544 624.036 231.595C624.335 231.698 624.385 232.213 624.136 232.419C623.886 232.574 623.886 233.037 624.235 233.14C624.535 233.192 624.784 233.243 625.083 233.295C625.033 233.089 624.934 232.934 624.884 232.728C624.684 233.089 624.435 233.398 624.086 233.552C623.637 233.758 623.836 234.479 624.285 234.273C624.834 234.016 625.283 233.655 625.532 233.089C625.632 232.883 625.582 232.574 625.333 232.522C625.033 232.471 624.784 232.419 624.485 232.368C624.535 232.625 624.535 232.831 624.585 233.089C625.432 232.522 625.233 231.183 624.285 230.874C624.186 230.823 624.036 230.874 623.936 230.977C623.637 231.286 623.587 231.595 623.637 231.956C623.637 232.471 624.335 232.265 624.285 231.75Z" fill="#E8E8E8"/>
<path d="M641.043 233.14C638.749 231.492 635.358 235.406 636.604 237.724C637.153 238.754 638.45 239.269 639.497 238.754C640.495 238.29 640.894 236.848 639.747 236.282C639.697 236.539 639.697 236.745 639.647 237.003C640.195 236.9 640.744 236.797 641.293 236.694C641.742 236.591 641.542 235.87 641.093 235.973C640.545 236.076 639.996 236.179 639.447 236.282C639.148 236.333 639.048 236.848 639.348 237.003C639.597 237.724 639.447 238.136 638.949 238.187C638.749 238.29 638.5 238.29 638.3 238.239C638.051 238.187 637.752 238.033 637.602 237.878C636.904 237.209 637.053 236.179 637.502 235.458C638.101 234.428 639.497 233.089 640.694 233.913C641.043 234.067 641.442 233.398 641.043 233.14Z" fill="#E8E8E8"/>
<path d="M643.188 233.141C643.288 233.913 643.387 234.737 643.487 235.509C643.537 235.921 643.637 236.333 643.637 236.694C643.637 236.951 643.587 237.157 643.587 237.415C643.437 238.136 642.988 238.187 642.39 237.672C642.44 237.209 641.742 236.951 641.692 237.466C641.542 238.651 642.739 239.423 643.687 238.702C644.235 238.29 644.435 237.621 644.485 236.951C644.535 235.715 644.235 234.377 644.086 233.141C643.886 232.626 643.138 232.626 643.188 233.141Z" fill="#E8E8E8"/>
<path d="M642.29 232.626C643.138 232.832 643.936 232.935 644.834 232.883C645.333 232.832 645.333 232.059 644.834 232.11C644.036 232.162 643.288 232.11 642.49 231.904C641.991 231.75 641.792 232.522 642.29 232.626Z" fill="#E8E8E8"/>
<path d="M634.859 248.076C635.058 249.724 635.058 251.32 634.859 252.968C634.809 253.483 635.557 253.432 635.607 252.968C635.806 251.269 635.806 249.569 635.557 247.869C635.507 247.406 634.809 247.612 634.859 248.076Z" fill="#E8E8E8"/>
<path d="M635.408 251.629C637.253 252.247 637.802 250.032 637.802 248.642C637.802 248.127 637.103 248.178 637.053 248.642C636.904 250.341 636.804 252.092 636.754 253.843C636.754 254.358 637.502 254.358 637.502 253.843C637.552 252.092 637.652 250.393 637.802 248.642C637.552 248.642 637.303 248.642 637.053 248.642C637.053 249.517 636.954 251.32 635.607 250.908C635.108 250.753 634.909 251.526 635.408 251.629Z" fill="#E8E8E8"/>
<path d="M638.3 252.504C638.35 253.019 638.4 253.534 638.35 253.998C638.35 254.204 638.55 254.358 638.749 254.41C638.998 254.41 639.298 254.461 639.547 254.461C640.046 254.461 640.046 253.689 639.547 253.689C639.298 253.689 638.998 253.637 638.749 253.637C638.899 253.792 638.998 253.895 639.148 254.049C639.148 253.534 639.148 253.019 639.098 252.556C639.048 252.35 638.949 252.195 638.699 252.144C638.45 252.144 638.25 252.298 638.3 252.504Z" fill="#E8E8E8"/>
<path d="M642.739 253.38C642.24 252.659 641.991 251.835 641.941 250.908C641.941 250.341 641.991 248.951 642.49 248.539C643.537 247.612 643.986 250.238 644.036 250.856C644.086 251.32 644.086 251.835 643.986 252.298C643.936 252.659 643.437 254.358 642.639 253.277C642.34 252.865 641.841 253.431 642.091 253.843C642.889 254.873 644.136 254.152 644.535 253.174C645.083 251.68 644.884 249.363 643.986 248.075C643.088 246.788 642.041 247.56 641.592 248.745C640.944 250.393 641.193 252.298 642.141 253.74C642.34 254.204 642.988 253.792 642.739 253.38Z" fill="#E8E8E8"/>
<path d="M655.806 233.913C655.008 233.244 653.961 233.244 653.113 233.81C652.066 234.531 651.767 235.921 651.667 237.106C651.617 238.239 651.916 239.372 653.163 239.527C654.41 239.681 655.258 238.651 655.956 237.672C656.255 237.26 655.607 236.9 655.308 237.261C654.859 237.879 654.31 238.651 653.462 238.702C652.365 238.754 652.365 237.518 652.415 236.746C652.515 235.51 653.662 233.089 655.208 234.377C655.607 234.789 656.156 234.222 655.806 233.913Z" fill="#E8E8E8"/>
<path d="M658.3 237.724C658.001 237.312 657.751 236.848 657.652 236.333C657.552 235.921 657.402 234.994 657.652 234.634C657.901 234.531 658.15 234.376 658.4 234.273C658.599 234.428 658.749 234.685 658.849 234.943C658.948 235.149 658.998 235.406 659.048 235.612C659.098 235.921 659.198 236.23 659.148 236.539C659.098 236.9 658.699 237.672 658.2 237.157C657.851 236.797 657.352 237.363 657.652 237.724C658.3 238.393 659.347 238.084 659.746 237.26C660.195 236.282 659.746 234.582 659.048 233.861C658.25 233.089 657.253 233.501 656.953 234.531C656.604 235.818 656.953 237.157 657.702 238.187C657.951 238.496 658.599 238.136 658.3 237.724Z" fill="#E8E8E8"/>
<path d="M659.697 232.162C659.697 232.213 659.697 232.213 659.697 232.162C659.746 232.162 659.846 232.111 659.946 232.111C659.846 232.111 659.946 232.832 659.996 232.986C660.046 233.089 660.096 233.192 660.145 233.295C660.295 233.501 660.495 233.604 660.744 233.656C661.193 233.759 661.692 233.553 661.891 233.089C662.091 232.626 661.442 232.265 661.243 232.677C661.143 232.934 660.794 232.934 660.694 232.677C660.544 232.265 660.544 231.853 659.996 231.75C659.597 231.699 659.298 232.059 659.397 232.419C659.497 232.78 659.946 232.934 660.245 232.677C660.594 232.368 660.046 231.853 659.697 232.162Z" fill="#E8E8E8"/>
<path d="M602.69 232.677C602.44 235.355 602.39 238.085 602.54 240.763C602.54 241.278 603.288 241.278 603.288 240.763C603.188 238.085 603.238 235.355 603.438 232.677C603.438 232.162 602.69 232.162 602.69 232.677Z" fill="#E8E8E8"/>
<path d="M603.338 234.325C604.335 234.222 604.834 234.531 604.784 235.2C604.784 235.509 604.784 235.767 604.685 236.076C604.535 236.797 604.236 237.415 603.487 237.724C603.188 237.827 603.088 238.393 603.487 238.445C604.934 238.754 606.131 239.475 606.979 240.711C607.278 241.123 607.926 240.711 607.627 240.299C606.63 238.908 605.333 238.033 603.687 237.672C603.687 237.93 603.687 238.187 603.687 238.393C605.483 237.672 606.33 234.479 604.784 233.037C603.487 231.853 601.492 233.449 602.789 234.788C603.138 235.2 603.687 234.685 603.338 234.325Z" fill="#E8E8E8"/>
<path d="M608.674 239.269C608.625 239.475 608.674 239.835 608.724 240.093C608.774 240.402 608.874 240.659 609.123 240.814C609.572 241.175 610.171 240.917 610.669 240.711C611.118 240.505 610.719 239.835 610.27 240.041C610.121 240.144 609.921 240.247 609.722 240.247C609.472 240.247 609.472 240.041 609.472 239.784C609.472 239.423 609.423 239.063 609.223 238.754C608.874 238.342 608.076 238.445 607.976 239.011C607.876 239.526 608.575 239.732 608.674 239.269Z" fill="#E8E8E8"/>
<path d="M651.667 248.127C651.716 250.547 651.717 252.968 651.567 255.337C651.517 255.749 652.215 255.852 652.315 255.44C652.365 255.234 652.415 255.028 652.465 254.873C652.564 254.41 651.866 254.204 651.766 254.667C651.717 254.873 651.667 255.079 651.617 255.234C651.866 255.285 652.116 255.285 652.365 255.337C652.515 252.916 652.564 250.496 652.465 248.127C652.365 247.612 651.617 247.612 651.667 248.127Z" fill="#E8E8E8"/>
<path d="M651.667 248.384C652.066 250.444 652.664 252.453 653.462 254.41C653.612 254.822 654.16 254.77 654.21 254.307C654.51 252.041 654.759 249.827 655.058 247.561C655.108 247.046 654.36 247.097 654.31 247.561C654.011 249.827 653.761 252.041 653.462 254.307C653.712 254.255 653.961 254.255 654.21 254.204C653.412 252.247 652.814 250.238 652.415 248.178C652.265 247.663 651.567 247.869 651.667 248.384Z" fill="#E8E8E8"/>
<path d="M656.355 254.152C656.155 253.792 655.906 253.328 655.956 252.916C656.006 252.71 656.255 252.298 656.505 252.453C656.754 252.556 656.704 253.328 656.654 253.586C656.604 253.843 656.305 254.358 656.006 253.998C655.707 253.637 655.158 254.152 655.457 254.564C655.906 255.079 656.754 254.925 657.153 254.358C657.552 253.74 657.602 252.504 657.103 251.938C656.654 251.423 655.856 251.68 655.507 252.144C654.909 252.865 655.357 253.843 655.707 254.564C655.956 254.976 656.604 254.564 656.355 254.152Z" fill="#E8E8E8"/>
<path d="M658.35 247.56C658.649 250.032 658.749 252.453 658.599 254.925C658.549 255.44 659.298 255.44 659.347 254.925C659.497 252.453 659.397 250.032 659.098 247.56C658.998 247.097 658.25 247.097 658.35 247.56Z" fill="#E8E8E8"/>
<path d="M659.198 249.105C659.148 248.693 659.098 248.127 659.597 248.024C660.096 247.921 660.345 248.539 660.395 248.951C660.495 249.775 659.996 250.599 659.347 251.062C658.948 251.32 659.298 251.989 659.746 251.732C660.993 250.908 661.791 248.951 660.644 247.663C660.245 247.2 659.547 246.994 659.048 247.354C658.45 247.766 658.45 248.59 658.549 249.26C658.549 249.775 659.298 249.569 659.198 249.105Z" fill="#E8E8E8"/>
<path d="M660.894 245.809C660.644 246.376 660.844 247.045 661.243 247.457C661.642 247.818 662.44 247.972 662.739 247.354C662.939 246.891 662.29 246.53 662.091 246.942C662.041 247.045 662.141 246.994 662.091 246.994C662.041 246.994 661.991 246.994 661.941 246.994C661.841 246.942 661.742 246.839 661.692 246.736C661.542 246.479 661.542 246.221 661.642 245.964C661.742 245.758 661.542 245.552 661.392 245.5C661.143 245.5 660.993 245.655 660.894 245.809Z" fill="#E8E8E8"/>
<path d="M599.497 228.505C599.497 238.497 599.497 248.436 599.497 258.427C599.497 259.405 600.994 259.405 600.994 258.427C600.994 248.436 600.994 238.497 600.994 228.505C600.994 227.527 599.497 227.527 599.497 228.505Z" fill="#E8E8E8"/>
<path d="M600.445 259.406C622.091 259.406 643.737 259.406 665.382 259.406C666.33 259.406 666.33 257.86 665.382 257.86C643.737 257.86 622.091 257.86 600.445 257.86C599.497 257.86 599.497 259.406 600.445 259.406Z" fill="#E8E8E8"/>
<path d="M122.393 385.941C122.393 399.486 122.393 412.979 122.393 426.523C122.393 427.501 123.889 427.501 123.889 426.523C123.889 412.979 123.889 399.486 123.889 385.941C123.889 384.963 122.393 384.963 122.393 385.941Z" fill="#E8E8E8"/>
<path d="M124.787 386.714C150.273 386.714 175.759 386.714 201.196 386.714C202.143 386.714 202.143 385.168 201.196 385.168C175.71 385.168 150.223 385.168 124.787 385.168C123.79 385.168 123.79 386.714 124.787 386.714Z" fill="#E8E8E8"/>
<path d="M124.787 427.862C149.026 427.862 173.216 427.862 197.455 427.862C198.403 427.862 198.403 426.317 197.455 426.317C173.216 426.317 149.026 426.317 124.787 426.317C123.79 426.317 123.79 427.862 124.787 427.862Z" fill="#E8E8E8"/>
<path d="M199.899 387.074C199.899 399.485 199.899 411.897 199.899 424.308C199.899 425.287 201.395 425.287 201.395 424.308C201.395 411.897 201.395 399.485 201.395 387.074C201.395 386.095 199.899 386.095 199.899 387.074Z" fill="#E8E8E8"/>
<path d="M157.954 364.826C157.954 369.1 157.954 373.323 157.954 377.598C157.954 378.577 159.45 378.577 159.45 377.598C159.45 373.323 159.45 369.1 159.45 364.826C159.45 363.847 157.954 363.847 157.954 364.826Z" fill="#E8E8E8"/>
<path d="M159.201 365.598C175.71 365.598 192.218 365.598 208.727 365.598C209.674 365.598 209.674 364.054 208.727 364.054C192.218 364.054 175.71 364.054 159.201 364.054C158.253 364.054 158.253 365.598 159.201 365.598Z" fill="#E8E8E8"/>
<path d="M159.75 378.937C175.71 378.937 191.67 378.937 207.63 378.937C208.577 378.937 208.577 377.392 207.63 377.392C191.67 377.392 175.71 377.392 159.75 377.392C158.802 377.392 158.802 378.937 159.75 378.937Z" fill="#E8E8E8"/>
<path d="M207.43 367.041C207.43 370.543 207.43 374.096 207.43 377.598C207.43 378.577 208.926 378.577 208.926 377.598C208.926 374.096 208.926 370.543 208.926 367.041C208.926 366.062 207.43 366.062 207.43 367.041Z" fill="#E8E8E8"/>
<path d="M243.34 106.965C246.781 106.811 250.173 106.399 253.515 105.729C254.462 105.523 254.063 104.03 253.116 104.236C249.874 104.854 246.632 105.266 243.34 105.42C242.343 105.472 242.343 107.017 243.34 106.965Z" fill="#E8E8E8"/>
<path d="M253.515 104.751C252.068 99.189 252.068 93.3695 253.714 87.859C255.111 83.0695 259.3 74.7265 265.435 77.7135C270.622 80.237 271.32 87.8075 272.168 92.9575C273.215 99.086 273.714 105.317 273.814 111.549C273.814 112.527 275.31 112.527 275.31 111.549C275.16 103.721 274.362 95.9445 272.816 88.271C271.769 83.1725 269.774 76.22 263.739 75.602C258.402 75.087 254.861 80.546 253.116 84.975C250.622 91.4125 250.323 98.5195 252.068 105.163C252.318 106.141 253.764 105.729 253.515 104.751Z" fill="#E8E8E8"/>
<path d="M243.839 104.751C241.993 96.408 242.841 87.4985 246.482 79.7735C249.724 72.9755 256.058 66.332 263.839 66.1775C272.417 66.023 278.153 73.9025 280.547 81.576C283.24 90.1765 283.888 99.6525 283.839 108.665C283.839 109.643 285.335 109.643 285.335 108.665C285.385 100.322 284.736 91.773 282.691 83.6875C281.095 77.353 278.103 71.1215 272.667 67.4135C261.245 59.5855 248.926 69.834 244.387 80.8035C241.195 88.5285 240.547 97.026 242.343 105.214C242.592 106.141 244.038 105.729 243.839 104.751Z" fill="#E8E8E8"/>
<path d="M274.013 112.733C277.953 115.257 283.29 113.3 284.986 108.922C285.335 107.995 283.888 107.583 283.539 108.51C282.193 112.012 277.854 113.403 274.811 111.394C273.963 110.879 273.215 112.218 274.013 112.733Z" fill="#E8E8E8"/>
<path d="M241.395 126.381C241.395 139.462 241.395 152.491 241.395 165.572C241.395 166.551 242.891 166.551 242.891 165.572C242.891 152.491 242.891 139.462 242.891 126.381C242.891 125.402 241.395 125.402 241.395 126.381Z" fill="#E8E8E8"/>
<path d="M242.692 127.514C257.604 124.887 272.268 121.179 286.632 116.39C287.529 116.081 287.13 114.587 286.233 114.896C271.869 119.737 257.205 123.445 242.293 126.02C241.345 126.175 241.794 127.668 242.692 127.514Z" fill="#E8E8E8"/>
<path d="M286.931 117.317C286.931 129.574 286.931 141.78 286.931 154.037C286.931 155.015 288.427 155.015 288.427 154.037C288.427 141.78 288.427 129.574 288.427 117.317C288.427 116.338 286.931 116.338 286.931 117.317Z" fill="#E8E8E8"/>
<path d="M243.091 167.323C257.904 164.903 272.517 161.247 286.781 156.406C287.679 156.097 287.28 154.603 286.382 154.912C272.118 159.753 257.505 163.41 242.692 165.83C241.744 165.984 242.143 167.478 243.091 167.323Z" fill="#E8E8E8"/>
<path d="M264.437 140.131C263.938 138.792 263.34 137.299 263.29 135.857C263.24 134.106 264.387 131.788 266.382 132.303C269.425 133.076 268.577 138.123 267.48 140.08C266.981 140.955 268.278 141.728 268.776 140.852C270.422 137.968 270.871 131.376 266.482 130.655C264.736 130.398 263.091 131.634 262.293 133.23C261.145 135.599 262.093 138.329 262.941 140.595C263.34 141.47 264.786 141.058 264.437 140.131Z" fill="#E8E8E8"/>
<path d="M263.24 139.977C263.44 143.685 263.639 147.444 263.839 151.152C263.938 152.8 264.737 153.727 266.532 153.315C268.228 152.903 269.076 151.41 269.275 149.762C269.475 148.062 269.026 146.311 268.876 144.663C268.726 142.706 268.726 140.749 268.876 138.741C268.926 137.763 267.43 137.763 267.38 138.741C267.28 140.698 267.23 142.655 267.38 144.663C267.48 146.002 268.726 151.204 266.682 151.616C264.587 152.028 265.136 147.393 265.036 146.105C264.936 144.097 264.836 142.037 264.687 140.028C264.687 138.998 263.19 138.998 263.24 139.977Z" fill="#E8E8E8"/>
<path d="M374.062 111.188C374.062 122.261 374.062 133.333 374.062 144.406C374.062 145.384 375.559 145.384 375.559 144.406C375.559 133.333 375.559 122.261 375.559 111.188C375.559 110.21 374.062 110.21 374.062 111.188Z" fill="#E8E8E8"/>
<path d="M344.287 147.702C362.99 147.702 381.644 147.702 400.347 147.702C401.294 147.702 401.294 146.157 400.347 146.157C381.644 146.157 362.99 146.157 344.287 146.157C343.34 146.157 343.34 147.702 344.287 147.702Z" fill="#E8E8E8"/>
<path d="M393.015 149.504C393.015 158.311 393.015 167.118 393.015 175.873C393.015 176.851 394.511 176.851 394.511 175.873C394.511 167.066 394.511 158.259 394.511 149.504C394.511 148.526 393.015 148.526 393.015 149.504Z" fill="#E8E8E8"/>
<path d="M125.785 261.826C143.939 261.826 162.044 261.826 180.198 261.826C181.146 261.826 181.146 260.281 180.198 260.281C162.044 260.281 143.939 260.281 125.785 260.281C124.837 260.281 124.837 261.826 125.785 261.826Z" fill="#E8E8E8"/>
<path d="M156.258 259.354C156.258 254.513 156.258 249.723 156.258 244.882C156.258 243.904 154.762 243.904 154.762 244.882C154.762 249.723 154.762 254.513 154.762 259.354C154.762 260.332 156.258 260.332 156.258 259.354Z" fill="#E8E8E8"/>
<path d="M172.867 263.577C172.867 269.242 172.867 274.907 172.867 280.624C172.867 281.602 174.363 281.602 174.363 280.624C174.363 274.959 174.363 269.293 174.363 263.577C174.363 262.598 172.867 262.598 172.867 263.577Z" fill="#E8E8E8"/>
<path d="M559.498 360.551C582.041 360.551 604.585 360.551 627.128 360.551C628.076 360.551 628.076 359.006 627.128 359.006C604.585 359.006 582.041 359.006 559.498 359.006C558.55 359.006 558.55 360.551 559.498 360.551Z" fill="#E8E8E8"/>
<path d="M601.492 358.955C601.492 353.857 601.492 348.758 601.492 343.608C601.492 342.63 599.996 342.63 599.996 343.608C599.996 348.707 599.996 353.805 599.996 358.955C599.996 359.933 601.492 359.933 601.492 358.955Z" fill="#E8E8E8"/>
<path d="M592.465 344.38C610.071 344.38 627.627 344.38 645.233 344.38C646.181 344.38 646.181 342.835 645.233 342.835C627.627 342.835 610.071 342.835 592.465 342.835C591.517 342.835 591.517 344.38 592.465 344.38Z" fill="#E8E8E8"/>
<path d="M165.735 562.225C198.502 562.225 231.22 562.225 263.988 562.225C264.936 562.225 264.936 560.68 263.988 560.68C231.22 560.68 198.502 560.68 165.735 560.68C164.737 560.68 164.737 562.225 165.735 562.225Z" fill="#E8E8E8"/>
<path d="M207.679 553.934C243.39 553.934 279.1 553.934 314.861 553.934C315.808 553.934 315.808 552.389 314.861 552.389C279.15 552.389 243.44 552.389 207.679 552.389C206.732 552.389 206.732 553.934 207.679 553.934Z" fill="#E8E8E8"/>
<path d="M278.253 580.662C300.297 580.662 322.292 580.662 344.337 580.662C345.285 580.662 345.285 579.117 344.337 579.117C322.292 579.117 300.297 579.117 278.253 579.117C277.255 579.117 277.255 580.662 278.253 580.662Z" fill="#E8E8E8"/>
<path d="M363.988 551.153C377.703 551.153 391.369 551.153 405.085 551.153C406.032 551.153 406.032 549.608 405.085 549.608C391.369 549.608 377.703 549.608 363.988 549.608C362.99 549.608 362.99 551.153 363.988 551.153Z" fill="#E8E8E8"/>
<path d="M476.506 535.497C505.982 535.497 535.458 535.497 564.934 535.497C565.882 535.497 565.882 533.952 564.934 533.952C535.458 533.952 505.982 533.952 476.506 533.952C475.508 533.952 475.508 535.497 476.506 535.497Z" fill="#E8E8E8"/>
<path d="M538.999 514.279C574.111 514.279 609.273 514.279 644.385 514.279C645.332 514.279 645.332 512.734 644.385 512.734C609.273 512.734 574.111 512.734 538.999 512.734C538.051 512.734 538.051 514.279 538.999 514.279Z" fill="#E8E8E8"/>
<path d="M600.595 534.57C635.707 534.57 670.869 534.57 705.981 534.57C706.928 534.57 706.928 533.025 705.981 533.025C670.869 533.025 635.707 533.025 600.595 533.025C599.647 533.025 599.647 534.57 600.595 534.57Z" fill="#E8E8E8"/>
<path d="M559.548 567.736C575.308 567.736 591.118 567.736 606.879 567.736C607.827 567.736 607.827 566.191 606.879 566.191C591.118 566.191 575.308 566.191 559.548 566.191C558.55 566.191 558.55 567.736 559.548 567.736Z" fill="#E8E8E8"/>
<path opacity="0.07" d="M323.439 548.063C298.402 568.251 273.415 588.439 248.378 608.627C214.712 593.486 181.096 578.345 147.431 563.204C183.091 543.016 218.752 522.828 254.412 502.64C259.949 501.919 264.836 502.073 269.076 502.64C301.744 507.172 319.898 541.11 323.439 548.063Z" fill="#353535"/>
<path d="M248.178 272.487C247.679 350.407 247.181 428.275 246.682 506.194C271.22 522.159 295.759 538.124 320.297 554.089C346.332 535.189 372.367 516.288 398.451 497.336C398.302 431.777 398.102 366.166 397.953 300.606C376.257 281.191 354.611 261.724 332.916 242.308C304.637 252.351 276.407 262.393 248.178 272.487Z" fill="white"/>
<path d="M319.799 338.509C319.799 394.696 319.799 450.882 319.799 507.069C319.799 522.828 319.799 538.587 319.799 554.346C319.799 555.324 321.295 555.324 321.295 554.346C321.295 498.159 321.295 441.973 321.295 385.786C321.295 370.027 321.295 354.268 321.295 338.509C321.295 337.531 319.799 337.479 319.799 338.509Z" fill="#161616"/>
<path d="M397.304 301.121C397.404 352.363 397.454 403.657 397.554 454.9C397.554 469.268 397.603 483.585 397.603 497.954C397.603 498.932 399.1 498.932 399.1 497.954C399 446.711 398.95 395.417 398.85 344.175C398.85 329.806 398.8 315.489 398.8 301.121C398.751 300.142 397.254 300.142 397.304 301.121Z" fill="#161616"/>
<path d="M247.779 272.795C269.325 265.328 290.921 257.86 312.467 250.393C317.804 248.539 323.09 246.736 328.427 244.882C329.574 244.47 330.971 243.646 332.217 244.058C333.165 244.367 334.462 246.015 335.26 246.736C337.504 248.745 339.799 250.702 342.043 252.71C350.621 260.229 359.15 267.748 367.729 275.267C377.554 283.919 387.379 292.52 397.205 301.172C397.255 300.76 397.304 300.348 397.354 299.936C372.118 313.017 346.681 325.531 320.946 337.582C321.245 337.634 321.544 337.686 321.843 337.686C313.564 330.27 305.285 322.802 297.006 315.386C283.739 303.49 270.472 291.541 257.205 279.645C254.163 276.915 251.171 274.186 248.128 271.456C247.629 271.044 246.831 271.302 246.831 272.023C246.831 286.082 246.831 300.193 246.831 314.253C246.831 344.123 246.831 373.941 246.831 403.811C246.831 430.849 246.831 457.886 246.831 484.924C246.831 491.619 246.831 498.263 246.831 504.958C246.831 505.988 246.632 506.863 247.33 507.584C247.929 508.254 248.976 508.666 249.724 509.181C251.42 510.314 253.116 511.395 254.762 512.528C276.008 526.485 297.205 540.39 318.452 554.346C319.001 554.707 319.549 555.067 320.048 555.428C320.248 555.582 320.597 555.582 320.796 555.428C346.681 536.424 372.566 517.472 398.402 498.469C399.2 497.902 398.452 496.563 397.654 497.13C384.038 507.121 370.422 517.112 356.806 527.103C349.923 532.15 343.04 537.197 336.207 542.244C332.816 544.716 329.474 547.188 326.083 549.66C324.636 550.741 322.392 551.823 321.245 553.213C320.896 553.625 320.946 554.037 320.647 554.037C319.948 554.037 318.402 552.543 317.853 552.183C315.858 550.844 313.864 549.557 311.819 548.218C305.784 544.252 299.749 540.287 293.714 536.321C280.896 527.875 268.078 519.481 255.21 511.035C253.415 509.85 251.669 508.717 249.874 507.533C249.425 507.224 248.926 506.812 248.427 506.606C248.078 506.451 247.779 505.936 248.078 506.606C248.427 507.378 248.228 506.245 248.278 505.936C248.328 505.009 248.278 504.082 248.278 503.155C248.278 494.503 248.278 485.799 248.278 477.148C248.278 462.728 248.278 448.307 248.278 433.887C248.278 416.893 248.278 399.897 248.278 382.902C248.278 366.216 248.278 349.53 248.278 332.844C248.278 319.609 248.278 306.373 248.278 293.138C248.278 288.812 248.278 284.434 248.278 280.108C248.278 277.842 248.577 275.319 248.278 273.053C248.228 272.744 248.278 272.435 248.278 272.126C247.829 272.332 247.43 272.486 246.981 272.692C255.26 280.108 263.54 287.576 271.819 294.992C285.086 306.888 298.352 318.836 311.619 330.733C314.661 333.463 317.654 336.192 320.696 338.921C320.996 339.179 321.295 339.179 321.594 339.024C347.28 326.973 372.766 314.459 398.003 301.378C398.402 301.172 398.501 300.451 398.152 300.142C380.397 284.537 362.641 268.933 344.886 253.328C342.741 251.423 340.596 249.569 338.452 247.663C337.454 246.788 336.457 245.912 335.41 244.985C334.612 244.316 333.215 242.565 332.217 242.204C331.519 241.947 330.921 242.359 330.222 242.616C328.826 243.08 327.429 243.595 325.983 244.058C323.19 245.037 320.347 246.015 317.554 246.994C306.632 250.753 295.659 254.564 284.737 258.324C272.218 262.65 259.749 266.976 247.23 271.302C246.432 271.611 246.831 273.104 247.779 272.795Z" fill="#161616"/>
<path d="M258.103 512.219C258.103 502.073 258.103 491.979 258.103 481.834C258.103 480.856 256.607 480.856 256.607 481.834C256.607 491.979 256.607 502.073 256.607 512.219C256.607 513.197 258.103 513.197 258.103 512.219Z" fill="#161616"/>
<path d="M257.006 481.113C268.677 487.86 280.198 494.915 291.519 502.279C292.317 502.794 293.066 501.456 292.268 500.941C280.946 493.576 269.425 486.52 257.754 479.774C256.906 479.31 256.158 480.65 257.006 481.113Z" fill="#161616"/>
<path d="M291.27 501.919C290.622 512.477 289.973 523.086 289.325 533.643C289.275 534.622 290.771 534.622 290.821 533.643C291.47 523.086 292.118 512.477 292.766 501.919C292.816 500.941 291.32 500.941 291.27 501.919Z" fill="#161616"/>
<path d="M262.891 492.34C262.043 499.447 261.545 506.554 261.445 513.661C261.445 514.64 262.941 514.64 262.941 513.661C263.041 506.503 263.54 499.395 264.387 492.34C264.537 491.31 263.041 491.361 262.891 492.34Z" fill="#161616"/>
<path d="M270.821 495.997C269.924 503.361 269.275 510.725 268.926 518.09C268.876 519.068 270.372 519.068 270.422 518.09C270.821 510.725 271.42 503.309 272.318 495.997C272.467 495.018 270.971 495.018 270.821 495.997Z" fill="#161616"/>
<path d="M279.001 501.455C277.903 508.923 277.105 516.442 276.657 523.961C276.607 524.94 278.103 524.94 278.153 523.961C278.602 516.545 279.35 509.18 280.447 501.867C280.597 500.889 279.15 500.477 279.001 501.455Z" fill="#161616"/>
<path d="M285.086 505.061C284.637 511.704 284.188 518.296 283.789 524.939C283.739 525.918 285.235 525.918 285.285 524.939C285.734 518.296 286.183 511.704 286.582 505.061C286.632 504.082 285.135 504.082 285.086 505.061Z" fill="#161616"/>
<path d="M258.003 475.911C270.721 482.761 283.24 490.023 295.509 497.696C296.357 498.211 297.105 496.872 296.257 496.357C283.988 488.683 271.47 481.371 258.751 474.573C257.904 474.109 257.106 475.448 258.003 475.911Z" fill="#161616"/>
<path d="M258.901 474.727C258.901 472.049 258.901 469.423 258.901 466.745C258.901 465.766 257.405 465.766 257.405 466.745C257.405 469.423 257.405 472.049 257.405 474.727C257.405 475.757 258.901 475.757 258.901 474.727Z" fill="#161616"/>
<path d="M258.053 466.538C271.37 473.13 284.238 480.649 296.557 488.992C297.355 489.559 298.103 488.22 297.305 487.654C284.986 479.259 272.118 471.791 258.802 465.199C257.954 464.787 257.206 466.075 258.053 466.538Z" fill="#161616"/>
<path d="M295.759 489.456C295.509 491.774 295.26 494.143 295.011 496.46C294.911 497.439 296.407 497.439 296.507 496.46C296.756 494.143 297.006 491.774 297.255 489.456C297.355 488.478 295.858 488.478 295.759 489.456Z" fill="#161616"/>
<path d="M325.534 344.638C344.935 335.832 363.938 326.047 382.392 315.283C383.239 314.82 382.491 313.48 381.643 313.944C363.14 324.656 344.187 334.441 324.786 343.299C323.888 343.711 324.636 345.05 325.534 344.638Z" fill="#161616"/>
<path d="M324.337 343.866C324.337 348.14 324.337 352.414 324.337 356.689C324.337 357.667 325.833 357.667 325.833 356.689C325.833 352.414 325.833 348.14 325.833 343.866C325.833 342.887 324.337 342.887 324.337 343.866Z" fill="#161616"/>
<path d="M325.734 356.689C339.25 350.509 352.467 343.659 365.384 336.192C366.232 335.728 365.484 334.389 364.636 334.853C351.719 342.32 338.502 349.118 324.986 355.35C324.138 355.762 324.886 357.101 325.734 356.689Z" fill="#161616"/>
<path d="M325.135 413.854C325.135 451.243 325.135 488.632 325.135 525.969C325.135 526.948 326.632 526.948 326.632 525.969C326.632 488.58 326.632 451.191 326.632 413.854C326.632 412.875 325.135 412.875 325.135 413.854Z" fill="#161616"/>
<path d="M329.325 474.727C329.325 495.018 329.325 515.309 329.325 535.6C329.325 536.578 330.821 536.578 330.821 535.6C330.821 515.309 330.821 495.018 330.821 474.727C330.821 473.749 329.325 473.749 329.325 474.727Z" fill="#161616"/>
<path d="M249.874 284.177C249.874 310.442 249.874 336.759 249.874 363.024C249.874 364.002 251.37 364.002 251.37 363.024C251.37 336.759 251.37 310.442 251.37 284.177C251.37 283.198 249.874 283.198 249.874 284.177Z" fill="#161616"/>
<path d="M254.163 341.187C254.163 371.572 254.163 402.009 254.163 432.394C254.163 433.372 255.659 433.372 255.659 432.394C255.659 402.009 255.659 371.572 255.659 341.187C255.659 340.209 254.163 340.209 254.163 341.187Z" fill="#161616"/>
<path opacity="0.06" d="M246.981 272.435C246.981 350.56 246.981 428.686 246.981 506.811C271.52 522.776 296.008 538.741 320.547 554.706C320.547 482.349 320.547 409.992 320.547 337.582C296.008 315.901 271.52 294.168 246.981 272.435Z" fill="#353535"/>
<path opacity="0.1" d="M249.076 300.091C256.507 337.274 263.789 368.174 269.574 391.142C278.552 426.883 283.14 440.788 289.225 455.002C299.649 479.362 311.42 497.953 320.148 510.262C320.447 474.418 320.696 438.625 320.996 402.781C323.439 452.891 345.384 484.357 362.791 483.945C376.856 483.585 390.621 462.521 398.302 436.874C398.302 457.32 398.302 477.714 398.302 498.159C372.516 516.699 346.731 535.291 320.996 553.831C296.607 538.02 272.218 522.158 247.829 506.348C248.228 437.595 248.627 368.843 249.076 300.091Z" fill="#353535"/>
<path opacity="0.39" d="M408.627 275.731C385.584 289.173 362.592 302.614 339.55 316.056C325.884 296.949 312.168 277.791 298.503 258.684C324.837 248.024 351.22 237.312 377.554 226.652C387.928 243.029 398.302 259.354 408.627 275.731Z" fill="#EC615B"/>
<g opacity="0.39">
<g opacity="0.39">
<path opacity="0.39" d="M307.13 263.01C309.674 264.761 312.218 266.512 314.811 268.263C315.21 268.521 315.809 268.263 315.908 267.8C317.006 262.547 318.751 257.603 321.245 252.916C321.694 252.041 320.397 251.268 319.948 252.144C317.405 256.985 315.609 262.083 314.462 267.439C314.811 267.285 315.21 267.13 315.559 266.976C313.016 265.225 310.472 263.474 307.878 261.723C307.08 261.105 306.332 262.444 307.13 263.01Z" fill="#EC615B"/>
</g>
</g>
<path d="M327.629 252.144C328.477 250.805 329.624 249.775 331.07 249.157C331.519 248.951 331.12 248.281 330.671 248.487C329.125 249.208 327.878 250.341 326.981 251.783C326.731 252.195 327.38 252.556 327.629 252.144Z" fill="#EC615B"/>
<path d="M327.679 255.388C328.676 252.195 331.469 249.878 334.711 249.518C335.21 249.466 335.21 248.694 334.711 248.745C331.12 249.106 328.078 251.577 326.981 255.182C326.831 255.646 327.529 255.852 327.679 255.388Z" fill="#EC615B"/>
<path d="M328.527 258.015C329.624 253.483 332.716 250.187 337.454 251.784C337.903 251.938 338.103 251.217 337.654 251.063C332.567 249.312 329.026 252.865 327.829 257.809C327.679 258.273 328.377 258.479 328.527 258.015Z" fill="#EC615B"/>
<path d="M330.023 260.538C330.173 258.015 330.572 255.028 332.916 253.586C335.21 252.196 337.803 253.174 339.499 255.028C339.848 255.389 340.347 254.822 340.048 254.462C338.252 252.505 335.609 251.475 333.115 252.608C330.123 253.947 329.524 257.448 329.325 260.487C329.275 261.002 330.023 261.002 330.023 260.538Z" fill="#EC615B"/>
<path d="M332.267 263.474C332.766 260.539 330.422 257.861 332.966 255.337C334.811 253.535 337.155 254.462 338.651 256.11C339.998 257.655 340.547 259.663 340.796 261.672C340.846 262.135 341.594 262.187 341.544 261.672C341.145 258.273 339.05 252.917 334.761 253.483C333.215 253.689 331.868 255.08 331.27 256.522C330.322 258.839 331.968 260.899 331.569 263.217C331.469 263.731 332.218 263.937 332.267 263.474Z" fill="#EC615B"/>
<path d="M333.913 264.659C335.459 262.032 332.217 259.508 333.514 257.088C334.861 254.461 337.504 256.212 338.402 258.066C339.35 260.126 339.35 262.444 338.801 264.607C338.701 265.071 339.4 265.277 339.499 264.813C340.247 261.826 339.948 255.182 335.759 254.976C334.412 254.925 333.065 255.903 332.666 257.191C331.868 259.663 334.711 261.929 333.315 264.246C333.015 264.71 333.664 265.122 333.913 264.659Z" fill="#EC615B"/>
<path d="M335.659 265.225C336.457 263.268 336.257 261.414 335.31 259.612C335.11 259.302 334.961 258.942 334.811 258.581C335.908 257.809 336.557 258.015 336.756 259.096C336.956 259.612 337.105 260.127 337.155 260.693C337.404 262.29 337.155 263.835 336.606 265.328C336.407 265.792 337.155 265.998 337.305 265.534C338.003 263.732 338.202 261.826 337.754 259.972C337.504 258.787 336.856 256.83 335.409 256.779C334.462 256.727 333.913 257.5 333.963 258.427C334.013 259.251 334.611 259.972 334.911 260.693C335.509 262.135 335.459 263.629 334.861 265.071C334.761 265.483 335.459 265.689 335.659 265.225Z" fill="#EC615B"/>
<path d="M369.424 293.035C369.574 292.108 369.624 291.078 368.776 290.511C367.928 289.945 366.482 290.512 365.484 290.46C363.888 290.357 362.292 289.739 360.796 289.224C357.754 288.194 354.661 286.752 352.467 284.177C351.469 282.992 350.173 281.087 350.073 279.439C349.873 275.576 352.018 278.564 353.514 278.976C354.312 279.182 354.96 279.13 355.01 278.203C355.06 277.585 354.561 277.276 354.162 276.812C353.115 275.679 352.118 274.598 351.17 273.362C349.275 270.787 347.778 267.903 346.881 264.813C346.532 263.628 345.384 258.993 347.629 259.302C348.676 259.405 350.472 261.929 351.12 262.753C351.32 262.547 351.469 262.392 351.669 262.186C350.222 260.281 347.828 257.448 347.978 254.873C348.227 249.929 353.763 254.667 354.761 256.47C354.96 256.315 355.16 256.161 355.359 256.006C354.711 255.234 353.714 253.74 353.714 252.607C353.614 249.466 355.31 250.65 356.507 251.474C358.103 252.607 359.25 254.358 360.397 255.955C360.696 256.367 361.245 256.006 361.045 255.543C360.696 254.873 360.447 254.152 360.247 253.38C359.798 252.401 360.197 251.886 361.544 251.783C363.389 250.805 363.24 251.062 364.437 252.401C365.783 253.895 366.831 255.646 367.928 257.345C369.724 260.229 371.768 262.804 373.763 265.482C375.06 267.233 376.108 269.088 376.656 271.251C377.205 273.362 377.155 275.525 377.454 277.636C377.803 280.108 378.801 282.323 381.095 283.456C381.544 283.662 381.893 282.992 381.494 282.786C376.806 280.469 378.452 272.898 376.556 268.572C375.709 266.615 374.412 264.916 373.065 263.268C371.32 261.105 369.873 258.89 368.377 256.521C366.93 254.204 364.387 249.26 361.295 249.157C357.853 249.054 359.649 254.049 360.397 255.749C360.596 255.594 360.846 255.491 361.045 255.337C359.798 253.534 356.557 248.487 353.714 249.466C351.22 250.341 353.913 255.182 354.861 256.315C355.16 256.676 355.659 256.212 355.459 255.852C354.562 254.255 353.315 252.968 351.719 252.195C350.721 251.732 348.626 250.908 347.679 251.938C346.731 252.968 347.23 255.234 347.629 256.418C348.327 258.684 349.773 260.641 351.22 262.495C351.519 262.907 352.018 262.341 351.768 261.929C350.97 260.899 348.327 257.294 346.681 257.86C345.285 258.375 345.634 261.465 345.734 262.444C346.133 265.585 347.629 268.727 349.225 271.354C349.973 272.59 350.821 273.774 351.719 274.856C352.168 275.422 353.115 276.04 353.414 276.709C354.362 277.379 354.162 277.585 352.766 277.327C352.367 277.07 351.918 276.864 351.519 276.606C350.272 275.937 349.474 275.937 349.225 277.585C348.926 279.799 350.422 282.477 351.719 284.074C353.514 286.34 356.008 287.782 358.601 288.864C360.147 289.482 361.793 290.048 363.389 290.46C364.586 290.769 368.975 290.563 368.726 292.469C368.626 293.344 369.374 293.55 369.424 293.035Z" fill="#EC615B"/>
<path d="M350.522 261.877C352.616 264.504 354.312 267.491 356.157 270.323C356.407 270.735 357.055 270.323 356.806 269.911C354.911 267.027 353.165 263.989 351.02 261.311C350.721 260.95 350.222 261.465 350.522 261.877Z" fill="#EC615B"/>
<path d="M353.614 254.822C355.659 257.706 357.554 260.641 359.349 263.68C359.599 264.092 360.247 263.731 359.998 263.268C358.202 260.229 356.307 257.294 354.262 254.41C354.013 254.049 353.364 254.41 353.614 254.822Z" fill="#EC615B"/>
<path d="M298.302 258.787C311.719 277.997 325.434 297 339.499 315.695C339.798 316.107 340.297 315.541 340.048 315.129C326.033 296.434 312.367 277.533 298.951 258.375C298.701 258.015 298.053 258.375 298.302 258.787Z" fill="#EC615B"/>
<path d="M489.024 525.712C489.822 535.445 490.62 545.127 491.418 554.861C472.616 563.461 463.538 568.972 464.237 571.341C465.085 574.225 480.097 572.577 509.224 566.397C508.625 549.917 507.977 533.385 507.378 516.906C501.294 519.841 495.159 522.776 489.024 525.712Z" fill="#161616"/>
<path d="M507.329 316.931C510.171 318.888 510.67 323.266 511.668 331.969C512.166 336.141 512.416 341.291 511.169 356.226C511.019 357.822 510.62 362.921 509.373 373.89C507.578 389.958 507.079 391.864 506.58 398.661C506.181 403.966 505.932 409.58 506.082 421.631C506.231 433.115 506.381 448.823 508.127 470.71C509.423 486.932 511.618 507.12 515.558 530.295C511.668 532.407 508.027 533.695 505.084 534.519C498.551 536.321 493.264 536.372 488.725 536.372C484.386 536.372 480.596 536.012 477.503 535.6C476.057 527.823 474.162 516.133 472.666 501.816C471.868 494.4 471.369 486.212 470.371 470.144C468.975 447.638 468.277 436.411 468.077 426.884C467.977 422.661 467.977 419.159 468.576 390.216C469.474 346.801 469.823 341.497 474.212 334.544C482.94 320.639 500.645 312.296 507.329 316.931Z" fill="white"/>
<path d="M511.069 318.373C511.917 332.381 511.668 346.389 510.321 360.345C508.974 373.941 506.73 387.383 505.882 400.979C504.137 428.892 505.932 456.959 508.925 484.718C510.62 500.219 512.665 515.721 514.76 531.171C514.91 532.149 516.356 531.737 516.206 530.759C512.466 502.897 508.725 474.984 507.279 446.865C506.58 433.115 506.431 419.261 507.079 405.511C507.777 391.812 509.723 378.37 511.319 364.774C513.114 349.376 513.513 333.823 512.565 318.321C512.516 317.343 511.019 317.343 511.069 318.373Z" fill="#161616"/>
<path d="M467.828 385.477C466.631 424.617 468.077 463.809 472.316 502.743C473.464 513.558 474.86 524.322 476.456 535.085C476.606 536.064 478.052 535.652 477.902 534.673C472.267 496.202 469.274 457.32 468.975 418.386C468.875 407.416 469.025 396.447 469.374 385.477C469.374 384.447 467.878 384.447 467.828 385.477Z" fill="#161616"/>
<path d="M476.905 536.218C489.872 538.896 503.289 537.145 515.209 531.171C516.057 530.759 515.309 529.42 514.461 529.832C502.94 535.6 489.872 537.351 477.304 534.725C476.356 534.519 475.957 536.012 476.905 536.218Z" fill="#161616"/>
<path opacity="0.09" d="M472.965 347.368C471.618 357.101 470.371 368.174 469.523 380.431C469.025 387.126 468.326 398.61 468.227 413.03C468.127 425.03 468.576 435.175 469.523 455.054C470.571 477.508 471.119 488.993 472.566 501.507C474.212 515.927 476.256 527.669 477.753 535.446C481.244 536.218 486.032 536.785 491.618 536.321C495.309 536.012 498.501 535.291 501.144 534.519C496.905 518.142 493.014 500.992 489.473 483.122C479.748 434.3 474.86 388.619 472.965 347.368Z" fill="#353535"/>
<path opacity="0.09" d="M469.074 397.889C471.219 416.326 473.114 432.188 474.71 444.806C478.8 477.817 480.097 486.109 482.94 496.615C487.628 514.022 493.763 527.463 498.102 535.909C495.059 536.682 490.122 537.506 484.236 536.373C481.493 535.858 479.149 534.982 477.304 534.158C475.259 521.644 473.513 508.511 472.117 494.864C468.476 459.689 467.927 427.141 469.074 397.889Z" fill="#353535"/>
<path d="M432.317 531.222C431.618 541.471 430.92 551.771 430.172 562.02C406.731 567.994 395.21 572.32 395.559 574.946C395.958 578.088 413.264 578.809 447.479 577.161C448.526 562.329 449.623 547.445 450.671 532.613C444.536 532.098 438.401 531.634 432.317 531.222Z" fill="#161616"/>
<path d="M453.015 318.888C450.072 322.133 448.127 326.253 448.127 326.253C446.93 328.776 446.182 330.939 445.883 332.69C445.334 336.553 444.536 341.909 443.638 348.295C441.693 362.251 440.346 373.169 439.648 379.04C437.154 399.383 435.758 412.567 432.965 436.926C428.825 472.925 427.628 480.701 424.536 509.953C423.389 520.82 422.441 529.781 421.843 535.652C422.691 537.042 424.137 538.999 426.431 540.75C426.98 541.162 428.027 541.935 431.169 543.48C434.062 544.87 437.005 546.106 438.302 546.57C446.032 549.145 459.997 545.282 460.745 545.076C460.745 539.463 460.845 531.892 461.244 522.88C461.394 519.275 461.892 509.541 463.838 490.847C465.583 474.109 466.93 460.874 469.972 443.055C472.167 430.025 474.311 420.086 476.256 411.434C479.199 397.838 482.092 386.25 484.486 377.238C487.927 370.285 491.369 363.333 494.81 356.38C495.807 354.887 504.935 340.93 499.748 328.261C491.967 309 459.449 311.781 453.015 318.888Z" fill="white"/>
<path d="M451.319 313.223C441.992 339.694 439.997 368.277 436.855 396.035C433.464 425.802 430.072 455.569 426.731 485.387C424.835 502.074 422.94 518.759 421.045 535.394C420.945 536.372 422.441 536.372 422.541 535.394C425.883 505.781 429.274 476.169 432.616 446.556C435.908 417.459 438.8 388.31 442.641 359.316C444.686 343.814 447.528 328.364 452.765 313.635C453.065 312.708 451.618 312.296 451.319 313.223Z" fill="#161616"/>
<path d="M494.461 355.865C486.58 368.689 480.346 382.491 475.957 397.014C475.658 397.941 477.104 398.353 477.404 397.426C481.743 383.057 487.927 369.358 495.757 356.638C496.256 355.814 494.959 354.99 494.461 355.865Z" fill="#161616"/>
<path d="M484.585 374.56C472.516 417.613 464.785 461.955 461.693 506.657C460.795 519.48 460.296 532.304 460.147 545.127C460.147 546.106 461.643 546.106 461.643 545.127C462.142 500.271 467.229 455.517 476.805 411.794C479.498 399.434 482.59 387.177 486.032 375.023C486.281 374.045 484.885 373.633 484.585 374.56Z" fill="#161616"/>
<path d="M421.194 536.218C431.02 548.218 447.229 551.874 461.094 545.437C461.992 545.025 461.194 543.686 460.346 544.098C447.08 550.226 431.618 546.518 422.242 535.085C421.593 534.364 420.546 535.445 421.194 536.218Z" fill="#161616"/>
<path opacity="0.06" d="M462.99 323.266C468.925 328.879 459.548 347.367 453.912 361.684C445.683 382.593 443.937 417.15 440.496 486.366C439.748 500.992 438.95 521.489 438.75 546.26C437.005 546.003 434.91 545.488 432.716 544.458C426.88 541.831 423.489 537.454 421.893 535.085C423.289 524.836 425.284 509.335 427.529 490.383C432.666 446.917 433.713 429.098 437.504 397.889C439.648 380.224 442.99 354.887 448.326 324.141C448.277 324.141 448.277 324.141 462.99 323.266Z" fill="#353535"/>
<path opacity="0.06" d="M438.75 391.194C441.394 429.767 438.601 454.436 435.309 470.298C432.466 483.894 433.115 498.056 431.419 511.858C430.571 518.605 429.424 527.102 434.012 535.085C437.304 540.801 442.192 544.046 445.683 545.797C443.638 546.209 438.302 546.981 432.267 544.458C426.381 541.986 423.09 537.763 421.893 535.96C424.287 514.536 426.78 493.061 429.224 471.637C432.366 444.754 435.558 417.974 438.75 391.194Z" fill="#353535"/>
<path d="M495.907 200.592C494.86 201.21 495.309 207.236 496.256 219.132C496.356 220.111 496.406 221.244 496.555 222.789C496.905 226.291 497.353 229.69 497.902 233.346C502.042 261.105 507.927 281.705 507.927 281.705C510.77 291.645 514.81 303.901 520.545 317.549C521.493 319.3 523.388 322.133 526.58 323.781C530.022 325.583 533.114 325.068 537.702 324.193C546.58 322.493 552.266 318.322 554.311 316.674C557.303 314.305 561.243 311.163 560.894 307.506C560.745 306.219 560.046 304.313 558.5 303.747C557.154 303.232 555.458 303.901 554.311 305.395C556.655 302.048 558.301 298.957 559.398 296.64C561.942 291.284 561.942 289.43 561.393 288.091C561.293 287.885 560.695 286.443 559.398 285.774C559.049 285.619 558.351 285.31 556.106 285.774C553.463 286.289 553.064 286.958 551.368 287.009C549.772 287.061 549.273 286.494 548.076 286.391C546.53 286.237 544.236 286.855 541.144 290.563C540.645 290.151 539.897 289.687 538.949 289.739C537.353 289.79 536.106 291.335 532.914 297.052C531.917 298.803 530.67 301.121 529.273 303.953C528.575 300.76 527.528 295.816 526.331 289.791C522.241 268.573 522.84 264.452 519.747 248.951C515.408 226.909 510.82 217.69 506.78 211.459C502.89 205.176 497.752 199.459 495.907 200.592Z" fill="white"/>
<path d="M496.057 201.726C498.301 200.644 500.994 204.764 502.191 206.258C503.688 208.163 505.084 210.12 506.331 212.18C508.675 215.94 510.62 219.957 512.266 224.128C515.957 233.347 518.101 243.132 519.797 252.917C521.543 263.114 522.939 273.362 524.485 283.559C525.832 292.417 526.73 301.841 531.518 309.566C532.017 310.39 533.313 309.618 532.815 308.794C528.575 301.996 527.528 293.91 526.381 286.134C525.084 277.379 523.787 268.624 522.441 259.869C519.997 243.956 516.904 227.63 508.924 213.571C507.029 210.275 504.885 207.133 502.491 204.198C500.695 202.086 498.351 198.945 495.358 200.387C494.411 200.799 495.159 202.138 496.057 201.726Z" fill="#161616"/>
<path d="M495.757 223.407C497.503 239.269 500.296 254.977 504.186 270.427C507.977 285.465 512.416 300.966 518.8 315.077C521.493 320.948 526.58 327.437 533.662 325.532C534.61 325.274 534.211 323.781 533.263 324.038C523.338 326.768 519.049 312.09 516.456 305.138C513.264 296.486 510.421 287.731 507.927 278.873C502.84 260.745 499.299 242.205 497.204 223.459C497.154 222.429 495.658 222.377 495.757 223.407Z" fill="#161616"/>
<path d="M530.121 304.931C531.418 302.202 532.665 299.421 533.962 296.691C535.308 293.859 536.954 289.893 540.595 290.254C541.543 290.357 541.543 288.812 540.595 288.709C537.752 288.451 535.707 290.357 534.311 292.674C532.166 296.228 530.62 300.348 528.825 304.107C528.426 305.034 529.672 305.807 530.121 304.931Z" fill="#161616"/>
<path d="M537.603 298.391C539.747 294.683 543.837 284.383 549.423 287.525C550.271 287.988 551.019 286.649 550.171 286.186C543.338 282.323 538.899 293.087 536.306 297.567C535.807 298.494 537.104 299.267 537.603 298.391Z" fill="#161616"/>
<path d="M541.942 300.297C543.737 297.67 545.583 295.044 547.378 292.417C549.323 289.585 551.917 286.134 555.707 286.701C556.655 286.855 557.054 285.362 556.106 285.207C552.964 284.692 550.421 286.237 548.376 288.606C545.483 291.902 543.139 295.919 540.645 299.524C540.046 300.297 541.343 301.069 541.942 300.297Z" fill="#161616"/>
<path d="M546.181 301.43C548.326 298.803 550.421 296.125 552.565 293.499C553.812 291.954 558.8 283.971 560.894 288.709C561.443 289.894 560.545 292.314 560.146 293.499C559.598 295.044 558.8 296.486 558.051 297.928C556.356 301.121 554.61 304.262 552.416 307.095C551.817 307.867 552.864 308.949 553.463 308.176C556.206 304.571 558.5 300.554 560.495 296.434C561.742 293.859 563.687 289.173 561.742 286.443C559.797 283.714 556.455 286.392 554.959 288.143C551.568 292.108 548.376 296.28 545.134 300.348C544.535 301.069 545.583 302.151 546.181 301.43Z" fill="#161616"/>
<path d="M555.358 286.649C556.106 286.752 556.805 286.958 557.503 287.216C557.902 287.37 558.301 287.061 558.401 286.701C558.5 286.237 558.251 285.928 557.902 285.774C557.104 285.465 556.256 285.259 555.358 285.156C554.959 285.104 554.61 285.568 554.61 285.928C554.61 286.34 554.959 286.598 555.358 286.649Z" fill="#161616"/>
<path d="M556.006 305.086C557.154 303.592 559.398 304.622 559.847 306.27C560.046 306.991 560.046 307.867 559.897 308.588C559.548 310.287 558.5 311.781 557.353 313.017C555.308 315.283 552.864 317.24 550.271 318.785C545.084 321.875 539.199 323.42 533.263 323.884C532.316 323.935 532.316 325.48 533.263 325.429C542.241 324.759 551.069 321.566 557.602 314.974C559.996 312.553 562.39 309.154 561.193 305.498C560.296 302.717 556.904 301.429 554.959 303.953C554.311 304.777 555.408 305.858 556.006 305.086Z" fill="#161616"/>
<path opacity="0.08" d="M496.506 201.468C497.603 205.537 499.199 211.82 501.044 219.545C505.782 239.578 508.875 256.419 514.66 281.242C520.495 306.271 522.69 311.936 528.076 314.099C534.061 316.468 545.882 315.283 553.263 308.949C555.607 306.94 557.952 304.056 559.149 304.726C560.395 305.447 560.046 309.67 558.45 312.914C555.458 319.094 548.425 321.206 541.642 323.214C536.106 324.862 533.313 325.686 529.822 324.605C524.685 323.008 521.742 318.579 520.296 316.416C518.5 313.687 518.201 312.09 515.757 305.138C513.264 297.979 513.064 298.185 511.219 292.932C507.528 282.478 505.333 273.311 503.937 267.594C501.094 255.852 498.501 244.986 497.104 230.308C496.506 222.995 496.007 213.159 496.506 201.468Z" fill="#353535"/>
<path opacity="0.06" d="M519.448 310.957C520.845 312.45 527.428 319.197 538.051 319.609C550.121 320.072 557.802 311.935 558.949 310.7C557.652 312.965 555.109 316.57 550.77 319.351C548.026 321.154 545.682 321.875 543.039 322.647C536.206 324.707 531.767 325.995 527.578 324.038C521.194 321.102 519.697 312.399 519.448 310.957Z" fill="#353535"/>
<path d="M492.216 196.318C486.88 195.648 481.842 199.408 479.099 201.468C471.468 207.184 468.526 215.27 467.179 218.772C458.95 240.041 456.556 265.792 455.508 275.474C454.162 287.628 451.518 305.344 445.533 326.871C449.025 329.806 462.84 340.776 483.089 340.106C500.396 339.488 512.216 330.682 516.057 327.489C517.154 306.837 517.304 289.43 517.204 276.4C516.954 252.607 516.156 241.689 512.665 229.123C509.972 219.441 503.937 197.76 492.216 196.318Z" fill="#EC615B"/>
<path opacity="0.08" d="M487.977 197.914C482.99 202.961 494.91 222.635 496.855 227.218C505.832 248.333 509.972 282.477 488.526 339.642C491.468 339.076 494.76 338.252 498.251 336.964C505.533 334.389 511.269 330.887 515.458 327.797C515.807 324.038 516.256 318.991 516.605 313.017C517.154 303.489 517.204 295.661 517.154 289.069C517.054 268.984 517.004 258.942 515.458 245.603C514.66 238.96 512.915 226.549 507.129 212.489C503.688 204.198 500.147 198.43 494.511 197.091C493.813 196.885 489.922 195.957 487.977 197.914Z" fill="#353535"/>
<path opacity="0.05" d="M516.057 257.088C515.059 256.985 513.762 266.41 511.468 278.667C506.63 304.468 500.595 324.605 496.306 337.531C499.149 336.398 502.142 335.111 505.184 333.669C508.925 331.918 512.466 330.115 515.807 328.364C517.952 269.345 517.204 257.191 516.057 257.088Z" fill="#353535"/>
<path d="M480.795 203.837C479.199 203.168 477.703 203.271 476.805 203.425C475.309 205.279 472.965 208.215 470.122 211.82C457.603 227.939 456.506 231.699 447.778 241.999C439.399 251.887 433.613 256.522 429.324 259.509C424.486 262.856 420.895 264.556 419.798 265.071C411.868 268.727 404.686 269.86 399.948 270.272C398.501 269.551 396.407 268.367 394.312 266.41C391.619 263.835 390.372 261.363 389.075 259.097C384.137 250.496 382.791 248.024 380.945 248.076C380.297 248.076 379.25 248.436 377.953 250.445C377.454 250.084 376.606 249.415 375.659 248.539C373.314 246.376 372.666 245.089 370.721 244.213C369.873 243.853 368.776 243.338 367.828 243.904C366.881 244.471 366.681 245.81 366.631 246.119C365.783 245.192 363.738 243.286 360.846 243.132C360.048 243.08 358.901 243.029 358.352 243.75C357.504 244.78 358.302 247.252 360.397 249.827C359.898 249.672 357.504 248.848 356.507 249.981C355.409 251.166 356.556 253.792 357.305 255.492C358.801 258.942 360.746 260.693 364.786 265.328C366.432 267.234 367.728 268.779 368.576 269.757C367.728 269.654 366.382 269.448 364.886 268.83C362.641 267.903 361.893 266.822 360.896 267.131C359.798 267.491 359.2 269.397 359.399 270.89C359.649 272.59 361.195 273.62 362.142 274.186C367.878 277.791 374.96 279.594 377.155 280.16C382.591 281.551 385.334 282.22 387.379 282.478C390.92 282.941 394.461 283.147 399.748 282.89C414.411 282.169 425.833 279.079 428.277 278.409C433.563 276.967 438.202 275.68 444.037 272.95C449.474 270.427 461.444 264.71 471.917 251.784C477.653 244.728 480.097 238.909 485.034 227.321C485.633 225.879 486.83 223.047 487.029 219.236C487.279 213.88 485.832 205.897 480.795 203.837Z" fill="white"/>
<path d="M480.396 202.756C476.955 201.417 474.361 204.764 472.416 207.236C469.623 210.738 466.98 214.343 464.336 218C458.601 225.982 453.064 234.171 446.73 241.741C434.76 256.161 419 268.882 399.798 269.345C398.85 269.345 398.85 270.89 399.798 270.89C417.154 270.478 432.117 260.23 443.638 247.561C449.623 240.969 454.91 233.759 460.097 226.497C462.84 222.635 465.583 218.772 468.376 214.961C470.022 212.747 471.718 210.532 473.413 208.369C474.96 206.412 477.104 203.219 479.947 204.301C480.895 204.558 481.244 203.065 480.396 202.756Z" fill="#161616"/>
<path d="M486.181 218.051C479.598 264.813 427.429 286.134 386.581 281.396C379.898 280.624 373.115 279.027 366.98 276.092C365.434 275.371 363.888 274.547 362.491 273.568C361.893 273.156 361.294 272.796 360.846 272.229C359.698 271.354 359.599 270.427 360.447 269.397C360.546 268.006 361.195 267.594 362.442 268.109C364.885 268.676 366.432 270.839 369.075 270.89C370.023 270.89 370.023 269.345 369.075 269.345C366.382 269.294 364.636 266.667 361.993 266.461C360.097 266.307 358.501 267.388 358.252 269.397C357.753 274.135 364.686 276.761 367.978 278.203C380.197 283.456 393.863 284.177 406.88 283.044C430.92 280.933 455.409 271.972 471.668 252.917C479.947 243.183 485.782 231.338 487.578 218.463C487.777 217.485 486.331 217.073 486.181 218.051Z" fill="#161616"/>
<path d="M369.474 269.602C368.277 267.336 366.382 265.895 364.636 264.144C362.142 261.62 360.098 258.066 358.402 254.873C357.953 253.998 357.504 253.123 357.255 252.196C356.606 250.908 357.005 250.445 358.352 250.857C359.2 250.496 359.848 250.702 360.347 251.372C361.594 252.144 362.791 253.638 363.788 254.719C366.232 257.294 368.377 260.178 370.272 263.216C370.771 264.04 372.068 263.268 371.569 262.444C370.073 260.075 358.551 243.595 355.858 249.414C354.262 252.762 358.252 257.552 359.798 260.127C360.945 261.98 362.043 263.731 363.589 265.276C365.235 266.924 367.08 268.263 368.227 270.426C368.626 271.25 369.923 270.478 369.474 269.602Z" fill="#161616"/>
<path d="M362.342 250.651C361.694 249.981 356.856 243.852 359.948 243.492C360.646 243.389 362.442 244.934 363.04 245.346C364.038 246.067 365.035 246.891 365.933 247.818C369.225 250.96 371.818 254.77 374.362 258.53C374.91 259.354 376.207 258.581 375.659 257.757C371.818 252.144 367.429 245.243 361.095 242.359C359.549 241.638 357.454 241.535 357.255 243.749C357.005 246.582 359.449 249.981 361.245 251.783C361.993 252.453 363.04 251.372 362.342 250.651Z" fill="#161616"/>
<path d="M368.377 248.076C368.227 247.767 367.529 246.273 367.629 245.913C368.177 245.449 368.726 244.934 369.275 244.471C369.624 244.677 370.023 244.831 370.372 245.037C371.818 245.913 373.065 247.2 374.212 248.488C376.506 251.166 378.501 254.153 380.596 256.985C381.195 257.758 382.491 256.985 381.893 256.213C378.701 251.938 375.409 245.707 370.422 243.338C369.324 242.823 367.778 242.411 366.781 243.338C365.285 244.677 366.382 247.097 366.98 248.539C367.279 249.415 368.726 249.003 368.377 248.076Z" fill="#161616"/>
<path d="M379.1 251.372C378.701 250.084 378.352 249.775 379.948 249.621C381.344 249.518 381.394 249.827 382.242 250.754C383.289 251.99 384.237 253.277 385.185 254.564C386.781 256.83 388.277 259.199 389.923 261.517C392.466 265.07 395.808 270.066 400.396 270.735C401.344 270.89 401.743 269.396 400.795 269.242C396.656 268.624 393.514 263.989 391.219 260.744C389.125 257.809 387.18 254.668 385.035 251.784C383.788 250.187 381.893 246.891 379.549 246.994C377.055 247.097 377.205 250.033 377.753 251.784C377.953 252.711 379.399 252.299 379.1 251.372Z" fill="#161616"/>
<path opacity="0.08" d="M485.982 209.502C484.785 209.142 482.84 214.395 479.099 221.193C472.965 232.42 466.78 239.784 460.247 246.479C444.735 262.341 436.955 270.323 423.389 274.495C418.551 275.988 396.207 282.168 375.559 268.83C365.783 262.495 360.147 254.204 357.305 249.157C356.806 249.672 356.207 250.444 356.108 251.474C355.908 252.968 356.856 254.101 357.953 255.646C359.449 257.86 359.549 258.427 360.098 259.56C360.098 259.56 360.546 260.384 361.195 261.311C362.891 263.731 368.876 269.345 368.477 269.911C368.327 270.117 367.18 269.551 364.836 268.469C362.541 267.388 362.142 267.079 361.394 267.234C360.048 267.491 358.701 269.036 358.751 270.581C358.801 271.972 359.948 272.898 360.995 273.722C362.192 274.701 363.339 275.061 363.639 275.164C368.028 276.709 369.125 277.739 372.965 278.924C384.187 282.374 396.855 282.683 396.855 282.683C415.459 283.147 429.723 278.306 432.716 277.224C438.9 275.061 451.02 270.684 463.289 259.869C469.374 254.513 478.65 246.17 483.538 232.265C487.279 221.708 487.678 209.966 485.982 209.502Z" fill="#353535"/>
<path opacity="0.06" d="M369.275 276.658C377.255 278.461 386.98 279.8 398.052 279.594C425.135 279.079 446.032 269.397 457.803 262.65C451.518 268.006 440.895 275.68 425.982 280.006C399.599 287.679 377.304 279.903 369.275 276.658Z" fill="#353535"/>
<path d="M450.87 132.87C450.82 132.973 449.075 136.011 445.633 142.14C441.643 149.195 439.997 152.131 438.351 156.302C437.204 159.238 436.456 161.659 436.007 163.306C438.202 164.234 440.396 165.16 442.591 166.087C443.189 171.134 444.636 174.997 445.783 177.417C447.628 181.331 450.272 187.048 456.257 189.829C457.154 190.241 459.848 191.425 463.538 191.425C468.127 191.425 471.518 189.571 473.015 188.644C473.314 190.601 473.912 193.074 475.059 195.803C476.007 198.12 477.104 199.975 478.102 201.416C482.79 199.562 487.478 197.709 492.117 195.803C490.82 193.795 489.124 190.601 488.077 186.378C487.728 184.936 486.93 181.332 487.229 176.233C487.578 170.002 489.274 166.757 491.119 160.886C493.962 151.719 495.658 146.363 494.86 140.647C493.812 133.231 488.426 124.682 480.147 121.592C468.276 117.111 455.957 125.814 450.87 132.87Z" fill="white"/>
<path d="M442.591 138.844C439.499 137.608 438.8 131.325 439.399 127.154C439.598 125.763 440.346 121.643 443.987 117.523C448.925 111.91 454.162 111.961 461.743 108.614C465.932 106.76 471.917 103.412 478.301 96.923C477.354 99.8585 476.406 102.743 475.409 105.678C476.855 105.781 480.446 105.936 484.187 103.773C488.825 101.146 490.62 96.82 491.119 95.584C491.917 96.8715 495.209 102.485 493.463 108.871C492.965 110.674 492.167 112.116 491.418 113.249C494.012 112.528 497.653 111.137 500.745 107.996C504.137 104.545 504.585 101.404 505.982 101.558C508.675 101.816 509.673 113.146 510.221 119.377C510.57 123.497 511.119 126.381 510.072 129.832C509.124 133.025 507.329 135.445 507.528 135.6C507.877 135.806 512.915 127.257 514.311 127.926C515.159 128.338 513.663 131.634 513.114 137.866C512.466 145.488 513.962 146.93 512.615 152.337C511.817 155.479 510.67 157.693 509.423 160.217C507.877 163.152 505.982 166.86 502.491 170.156C499.249 173.246 495.259 177.006 490.321 176.285C483.887 175.306 480.895 167.427 480.695 166.86C481.244 166.86 486.182 166.603 488.625 162.689C491.718 157.693 488.625 150.277 485.084 149.041C482.491 148.114 480.446 150.844 478.002 149.556C476.007 148.526 475.758 146.003 474.96 143.634C473.912 140.492 471.618 136.321 465.982 132.098C462.441 131.943 457.204 132.252 451.768 134.879C446.98 137.093 444.935 139.771 442.591 138.844Z" fill="#5222D0"/>
<path d="M442.142 147.651C439.548 151.771 437.404 156.148 435.907 160.835C435.558 161.916 434.96 163.049 435.708 163.976C436.257 164.645 437.603 164.852 438.351 165.161C439.598 165.624 440.845 166.139 442.092 166.603C442.99 166.963 443.389 165.47 442.491 165.109C441.643 164.8 440.845 164.491 439.997 164.131C439.498 163.925 437.853 163.564 437.503 163.152C436.456 162.07 437.952 159.393 438.401 158.26C439.748 154.809 441.444 151.565 443.439 148.423C443.987 147.599 442.69 146.827 442.142 147.651Z" fill="#161616"/>
<path d="M441.793 166.036C444.536 175.924 447.977 186.945 457.753 191.632C458.601 192.044 459.399 190.705 458.501 190.293C449.124 185.761 445.882 175.152 443.239 165.624C442.94 164.645 441.493 165.057 441.793 166.036Z" fill="#161616"/>
<path d="M458.002 191.786C466.73 193.794 476.506 188.953 482.341 182.516C482.99 181.795 481.942 180.713 481.294 181.434C475.808 187.46 466.581 192.198 458.401 190.292C457.454 190.035 457.055 191.528 458.002 191.786Z" fill="#161616"/>
<path d="M472.316 189.005C472.915 193.537 474.511 197.606 477.254 201.211C477.852 201.983 478.9 200.902 478.301 200.129C475.857 196.885 474.361 193.074 473.813 189.005C473.713 188.027 472.217 188.027 472.316 189.005Z" fill="#161616"/>
<path d="M486.58 182.362C486.88 187.46 488.675 192.095 491.867 196.009C492.466 196.782 493.563 195.649 492.915 194.928C489.972 191.323 488.326 187.048 488.027 182.362C487.977 181.383 486.481 181.383 486.58 182.362Z" fill="#161616"/>
<path d="M479.199 151.564C480.645 149.299 483.388 148.99 485.533 150.432C487.478 151.719 488.426 154.191 488.575 156.457C488.825 160.113 486.531 167.529 481.543 165.315C480.645 164.903 479.897 166.242 480.795 166.654C487.279 169.538 490.72 160.731 489.972 155.427C489.523 152.388 487.827 149.402 484.885 148.372C482.241 147.393 479.498 148.423 477.952 150.792C477.354 151.616 478.65 152.388 479.199 151.564Z" fill="#161616"/>
<path d="M473.663 191.065C476.556 189.16 479.049 186.842 481.194 184.113C481.792 183.34 480.745 182.259 480.147 183.031C478.102 185.658 475.658 187.924 472.915 189.778C472.117 190.293 472.865 191.632 473.663 191.065Z" fill="#161616"/>
<path d="M446.381 176.233C449.823 176.542 453.264 175.255 455.658 172.628C457.204 170.877 457.803 167.942 454.661 168.045C453.863 168.096 453.613 169.332 454.461 169.538C455.608 169.847 456.556 170.311 457.503 171.135C458.252 171.752 459.299 170.671 458.551 170.053C457.404 169.075 456.306 168.457 454.86 168.096C454.81 168.611 454.71 169.126 454.661 169.59C456.356 169.538 454.112 172.062 453.912 172.268C453.114 172.989 452.267 173.504 451.319 173.916C449.723 174.637 448.127 174.843 446.381 174.688C445.434 174.637 445.434 176.182 446.381 176.233Z" fill="#161616"/>
<path d="M452.965 152.955C452.117 151.41 451.818 149.711 452.217 148.011C451.867 148.166 451.468 148.32 451.119 148.474C452.466 149.556 452.167 151.565 451.967 153.058C452.416 153.007 452.865 152.955 453.314 152.852C452.715 151.977 452.416 151.05 452.416 149.968C452.416 148.99 450.92 148.99 450.92 149.968C450.92 151.307 451.269 152.543 452.017 153.625C452.366 154.088 453.264 154.14 453.364 153.419C453.713 151.101 453.813 148.681 451.818 147.084C451.419 146.775 450.82 147.084 450.72 147.548C450.222 149.659 450.521 151.822 451.618 153.676C452.167 154.603 453.463 153.831 452.965 152.955Z" fill="#161616"/>
<path d="M449.972 142.037C452.416 139.05 455.957 141.316 457.254 144.149C457.653 145.024 458.95 144.252 458.551 143.376C456.855 139.668 451.967 137.299 448.925 140.956C448.276 141.728 449.324 142.81 449.972 142.037Z" fill="#161616"/>
<path opacity="0.07" d="M474.012 141.161C474.212 142.346 474.461 144.2 474.86 146.363C475.957 152.491 476.905 155.993 477.254 157.641C478.551 163.924 476.855 173.606 470.67 179.941C463.838 186.893 454.511 186.739 452.167 186.636C453.214 187.923 454.86 189.571 457.254 190.653C464.536 193.949 471.917 189.159 472.715 188.593C472.615 191.94 473.314 193.073 474.012 193.434C476.157 194.412 480.945 189.829 483.039 184.885C485.284 179.529 484.137 174.379 483.538 172.267C480.745 168.302 480.595 166.911 480.994 166.448C481.593 165.778 483.239 167.014 485.084 166.345C487.029 165.572 487.827 163.152 488.326 161.658C488.974 159.65 490.72 154.191 487.478 150.998C485.433 148.99 482.092 148.629 478.95 149.762C478.301 149.659 477.453 149.35 476.805 148.629C475.957 147.702 475.957 146.62 475.508 144.766C475.209 143.839 474.81 142.603 474.012 141.161Z" fill="#353535"/>
<path opacity="0.1" d="M480.994 175.976C480.595 180.405 479.548 184.01 478.6 186.636C480.346 186.121 482.142 185.555 483.887 185.04C485.383 189.108 486.83 193.228 488.326 197.297C489.423 196.73 490.471 196.164 491.568 195.546C490.321 192.662 489.074 189.108 488.077 184.988C487.229 181.486 486.78 178.242 486.531 175.461C485.683 174.585 484.685 173.504 483.787 172.113C482.241 169.796 481.344 167.633 480.795 165.933C481.094 168.56 481.344 172.01 480.994 175.976Z" fill="#353535"/>
<path opacity="0.13" d="M509.224 111.395C508.525 111.395 508.974 118.501 506.032 127.153C504.785 130.81 502.491 137.299 496.605 142.758C492.416 146.62 488.077 148.526 485.334 149.453C486.082 149.916 487.279 150.792 488.177 152.285C490.371 155.89 488.974 159.959 488.575 161.143C488.027 162.791 487.279 164.954 485.184 166.087C483.239 167.117 481.244 166.705 480.546 166.499C480.695 166.963 483.837 175.512 490.371 176.233C493.114 176.542 495.358 175.306 497.054 174.379C501.493 172.01 503.737 168.456 506.481 164.079C510.121 158.259 512.665 154.139 513.014 148.32C513.264 143.736 511.917 142.552 512.865 138.174C513.164 136.784 513.962 134.003 513.812 130.14C513.762 129.316 513.712 128.647 513.663 128.183C511.618 130.604 509.573 133.076 507.528 135.496C508.226 134.106 509.124 131.943 509.722 129.162C510.371 126.123 510.271 123.754 510.121 119.84C510.072 117.626 509.872 111.395 509.224 111.395Z" fill="#353535"/>
</svg>
