<svg width="109" height="40" viewBox="0 0 109 40" fill="none" xmlns="http://www.w3.org/2000/svg">
<path d="M49.3199 26.4169H57.7428V28.3334H46.964V10.5599H49.3199V26.4169ZM59.464 21.6073C59.464 20.3134 59.7163 19.1496 60.2208 18.1161C60.7335 17.0826 61.4415 16.285 62.3448 15.7235C63.2563 15.162 64.2939 14.8812 65.4576 14.8812C67.2561 14.8812 68.7088 15.5038 69.8156 16.7489C70.9305 17.994 71.4879 19.6501 71.4879 21.7172V21.8759C71.4879 23.1617 71.2397 24.3173 70.7433 25.3427C70.255 26.3599 69.5511 27.1534 68.6315 27.723C67.72 28.2927 66.6702 28.5775 65.4821 28.5775C63.6917 28.5775 62.2391 27.955 61.1241 26.7098C60.0174 25.4647 59.464 23.8168 59.464 21.766V21.6073ZM61.7345 21.8759C61.7345 23.3407 62.0722 24.5166 62.7477 25.4037C63.4313 26.2907 64.3427 26.7343 65.4821 26.7343C66.6295 26.7343 67.541 26.2867 68.2164 25.3915C68.8919 24.4882 69.2296 23.2268 69.2296 21.6073C69.2296 20.1587 68.8837 18.9869 68.192 18.0917C67.5084 17.1884 66.597 16.7367 65.4576 16.7367C64.3427 16.7367 63.4435 17.1802 62.7599 18.0673C62.0763 18.9543 61.7345 20.2238 61.7345 21.8759ZM73.7828 21.6195C73.7828 19.5606 74.2589 17.9248 75.2111 16.7123C76.1632 15.4916 77.4246 14.8812 78.9952 14.8812C80.6066 14.8812 81.8639 15.4509 82.7672 16.5902L82.8771 15.1254H84.9401V28.016C84.9401 29.725 84.4314 31.0718 83.4142 32.0565C82.4051 33.0412 81.046 33.5336 79.337 33.5336C78.3849 33.5336 77.4531 33.3301 76.5416 32.9232C75.6302 32.5163 74.9344 31.9589 74.4542 31.2509L75.6261 29.8959C76.5945 31.0922 77.7786 31.6903 79.1783 31.6903C80.277 31.6903 81.1315 31.3811 81.7418 30.7626C82.3603 30.1441 82.6696 29.2733 82.6696 28.1503V27.015C81.7662 28.0567 80.5333 28.5775 78.9708 28.5775C77.4246 28.5775 76.1713 27.955 75.2111 26.7098C74.2589 25.4647 73.7828 23.7679 73.7828 21.6195ZM76.0533 21.8759C76.0533 23.3651 76.3585 24.537 76.9689 25.3915C77.5792 26.2378 78.4337 26.661 79.5323 26.661C80.9565 26.661 82.0022 26.014 82.6696 24.7201V18.6898C81.9778 17.4284 80.9402 16.7977 79.5568 16.7977C78.4581 16.7977 77.5996 17.225 76.9811 18.0795C76.3626 18.934 76.0533 20.1994 76.0533 21.8759ZM87.7599 21.6073C87.7599 20.3134 88.0122 19.1496 88.5167 18.1161C89.0294 17.0826 89.7374 16.285 90.6407 15.7235C91.5522 15.162 92.5898 14.8812 93.7535 14.8812C95.552 14.8812 97.0047 15.5038 98.1115 16.7489C99.2264 17.994 99.7838 19.6501 99.7838 21.7172V21.8759C99.7838 23.1617 99.5356 24.3173 99.0392 25.3427C98.5509 26.3599 97.847 27.1534 96.9274 27.723C96.0159 28.2927 94.9661 28.5775 93.778 28.5775C91.9876 28.5775 90.535 27.955 89.42 26.7098C88.3133 25.4647 87.7599 23.8168 87.7599 21.766V21.6073ZM90.0304 21.8759C90.0304 23.3407 90.3681 24.5166 91.0436 25.4037C91.7272 26.2907 92.6386 26.7343 93.778 26.7343C94.9254 26.7343 95.8369 26.2867 96.5123 25.3915C97.1878 24.4882 97.5255 23.2268 97.5255 21.6073C97.5255 20.1587 97.1796 18.9869 96.4879 18.0917C95.8043 17.1884 94.8929 16.7367 93.7535 16.7367C92.6386 16.7367 91.7394 17.1802 91.0558 18.0673C90.3722 18.9543 90.0304 20.2238 90.0304 21.8759Z" fill="black"/>
<path d="M20 0L24.4903 13.8197H39.0211L27.2654 22.3607L31.7557 36.1803L20 27.6393L8.2443 36.1803L12.7346 22.3607L0.97887 13.8197H15.5097L20 0Z" fill="#C4C4C4"/>
</svg>
