<svg width="16" height="16" viewBox="0 0 16 16" fill="none" xmlns="http://www.w3.org/2000/svg">
<path d="M0.9425 7.5575L7.565 0.935C7.8425 0.6575 8.225 0.5 8.6225 0.5H14C14.825 0.5 15.5 1.175 15.5 2V7.3775C15.5 7.775 15.3425 8.1575 15.0575 8.435L8.435 15.0575C7.85 15.6425 6.8975 15.6425 6.3125 15.0575L0.934999 9.68C0.35 9.095 0.35 8.15 0.9425 7.5575ZM7.3775 14L14 7.3775V2H8.6225L2 8.6225L7.3775 14Z" fill="#F53838"/>
<path d="M12.125 5C11.5037 5 11 4.49632 11 3.875C11 3.25368 11.5037 2.75 12.125 2.75C12.7463 2.75 13.25 3.25368 13.25 3.875C13.25 4.49632 12.7463 5 12.125 5Z" fill="#F53838"/>
</svg>
