<svg width="720" height="561" viewBox="0 0 720 561" fill="none" xmlns="http://www.w3.org/2000/svg">
<path d="M102.78 476.943C124.92 477.972 147.06 478.486 169.2 478.439C170.055 478.439 170.055 477.037 169.2 477.037C147.06 477.084 124.92 476.569 102.78 475.541C101.925 475.494 101.925 476.897 102.78 476.943Z" fill="#E8E8E8"/>
<path d="M170.55 442.161C174.015 455.672 177.255 469.276 180.225 482.927C180.405 483.816 181.71 483.442 181.53 482.553C178.515 468.902 175.32 455.298 171.855 441.787C171.63 440.946 170.325 441.32 170.55 442.161Z" fill="#E8E8E8"/>
<path d="M230.85 443.19C229.59 456.046 228.33 468.949 227.115 481.805C227.025 482.694 228.375 482.694 228.465 481.805C229.725 468.949 230.985 456.046 232.2 443.19C232.245 442.302 230.895 442.302 230.85 443.19Z" fill="#E8E8E8"/>
<path d="M180.585 484.19C188.46 485.639 196.425 486.293 204.435 486.06C212.085 485.826 220.455 485.218 227.745 482.694C228.555 482.413 228.195 481.057 227.385 481.338C220.14 483.816 211.995 484.423 204.435 484.657C196.56 484.891 188.685 484.236 180.945 482.834C180.09 482.647 179.73 484.003 180.585 484.19Z" fill="#E8E8E8"/>
<path d="M171.09 442.629C180.405 445.341 190.53 445.387 200.16 445.434C210.51 445.528 220.86 444.92 231.12 443.704C231.975 443.611 231.975 442.208 231.12 442.302C221.13 443.517 211.095 444.078 201.06 444.032C191.295 443.985 180.945 443.985 171.45 441.273C170.595 441.04 170.235 442.395 171.09 442.629Z" fill="#E8E8E8"/>
<path d="M167.22 437.814C167.31 438.702 167.4 439.637 167.49 440.525C167.535 441.086 167.535 441.787 167.76 442.302C168.3 443.517 170.1 443.096 171.135 443.096C171.99 443.096 171.99 441.694 171.135 441.694C170.64 441.694 170.145 441.694 169.605 441.694C168.93 441.694 168.93 441.554 168.885 440.852C168.795 439.824 168.705 438.842 168.615 437.814C168.48 436.925 167.13 436.879 167.22 437.814Z" fill="#E8E8E8"/>
<path d="M168.12 438.562C179.37 439.918 190.665 440.572 202.005 440.666C207.585 440.712 213.165 440.619 218.79 440.432C221.58 440.338 224.37 440.198 227.16 440.058C228.465 440.011 230.265 439.544 231.57 439.824C233.145 440.105 233.055 441.507 233.235 442.956C233.37 442.676 233.55 442.395 233.685 442.115C233.1 442.115 232.515 442.115 231.93 442.115C231.075 441.928 230.715 443.284 231.57 443.471C232.47 443.658 233.145 443.658 234 443.471C234.405 443.377 234.54 442.956 234.45 442.629C234.225 440.993 234.405 438.936 232.515 438.515C231.39 438.235 229.995 438.562 228.825 438.609C227.34 438.702 225.9 438.749 224.415 438.842C218.115 439.123 211.77 439.31 205.425 439.31C192.915 439.31 180.45 438.702 168.03 437.159C167.265 437.066 167.265 438.468 168.12 438.562Z" fill="#E8E8E8"/>
<path d="M177.885 472.549C181.485 477.458 185.715 481.712 190.485 485.358C191.205 485.873 191.88 484.657 191.16 484.143C186.57 480.637 182.475 476.523 179.01 471.801C178.515 471.1 177.345 471.801 177.885 472.549Z" fill="#E8E8E8"/>
<path d="M174.87 458.29C181.89 468.809 190.53 478.019 200.52 485.545C201.24 486.06 201.915 484.844 201.195 484.33C191.43 476.943 182.925 467.874 176.04 457.589C175.545 456.841 174.375 457.542 174.87 458.29Z" fill="#E8E8E8"/>
<path d="M172.125 445.761C184.275 460.721 197.775 474.7 213.885 485.078C214.605 485.546 215.325 484.33 214.56 483.863C198.54 473.578 185.13 459.693 173.07 444.78C172.53 444.078 171.585 445.107 172.125 445.761Z" fill="#E8E8E8"/>
<path d="M185.04 444.966C196.605 458.945 209.43 472.222 223.74 483.161C224.46 483.675 225.135 482.46 224.415 481.946C210.195 471.1 197.46 457.823 185.985 443.985C185.4 443.283 184.455 444.265 185.04 444.966Z" fill="#E8E8E8"/>
<path d="M199.8 445.948C207.63 455.906 216.63 464.788 226.62 472.409C227.34 472.923 228.015 471.707 227.295 471.193C217.395 463.666 208.485 454.831 200.745 444.966C200.205 444.265 199.26 445.247 199.8 445.948Z" fill="#E8E8E8"/>
<path d="M211.86 445.434C216.9 451.324 222.66 456.373 229.05 460.628C229.77 461.095 230.445 459.88 229.725 459.412C223.425 455.251 217.755 450.202 212.805 444.452C212.22 443.751 211.275 444.733 211.86 445.434Z" fill="#E8E8E8"/>
<path d="M149.58 368.39C152.505 374.795 154.485 381.527 155.61 388.539C155.655 388.866 155.97 389.053 156.24 389.053C156.51 389.053 157.95 389.007 158.04 389.474C158.085 389.661 157.185 390.736 157.095 390.97C156.825 391.718 156.825 392.606 157.095 393.354C157.455 394.243 158.13 394.85 158.94 395.178C159.21 395.318 159.525 395.365 159.84 395.411C160.11 395.458 160.38 395.458 160.65 395.411C161.01 395.365 160.965 395.411 160.56 395.598C160.11 396.3 159.48 396.393 159.3 397.422C159.165 398.403 159.615 399.338 159.975 400.18C161.46 403.452 162.315 406.912 163.53 410.325C167.715 421.919 175.725 431.502 184.77 439.403C185.445 439.964 186.39 438.982 185.715 438.421C176.4 430.287 168.12 420.329 164.205 408.127C163.71 406.538 163.26 404.948 162.72 403.406C162.27 402.05 161.415 400.647 161.01 399.292C160.56 398.544 160.605 397.702 161.19 396.861C161.37 396.72 161.55 396.58 161.73 396.44C161.865 396.206 162.135 396.066 162.27 395.785C162.45 395.271 162.315 394.804 161.955 394.43C161.37 393.822 160.47 394.149 159.705 393.915C156.78 393.027 159.165 390.97 159.39 389.474C159.705 387.511 157.365 387.744 156.105 387.651C156.33 387.838 156.555 387.978 156.735 388.165C155.61 381.059 153.54 374.187 150.57 367.689C150.39 366.847 149.22 367.548 149.58 368.39Z" fill="#E8E8E8"/>
<path d="M150.075 368.063C164.7 372.13 177.525 382.462 186.84 394.71C196.74 407.707 202.905 423.321 206.235 439.45C206.415 440.338 207.72 439.964 207.54 439.076C204.165 422.713 197.865 406.912 187.83 393.728C178.38 381.34 165.33 370.868 150.48 366.754C149.58 366.473 149.22 367.829 150.075 368.063Z" fill="#E8E8E8"/>
<path d="M155.385 373.86C173.295 391.952 187.11 414.158 195.615 438.608C195.93 439.45 197.235 439.076 196.92 438.234C188.325 413.597 174.42 391.157 156.33 372.878C155.745 372.223 154.755 373.205 155.385 373.86Z" fill="#E8E8E8"/>
<path d="M163.35 403.265C167.13 403.686 170.82 404.574 174.33 406.024C177.75 407.426 181.485 409.203 183.645 412.428C184.14 413.176 185.31 412.475 184.815 411.727C182.655 408.501 179.28 406.678 175.86 405.182C171.855 403.406 167.67 402.33 163.305 401.863C162.495 401.769 162.495 403.172 163.35 403.265Z" fill="#E8E8E8"/>
<path d="M170.055 377.646C170.01 383.023 170.865 388.305 172.53 393.401C172.8 394.243 174.105 393.869 173.835 393.027C172.215 388.072 171.405 382.929 171.405 377.646C171.405 376.758 170.055 376.758 170.055 377.646Z" fill="#E8E8E8"/>
<path d="M194.76 403.078C196.965 394.523 204.3 389.427 210.555 384.191C217.215 378.628 223.65 372.691 229.77 366.52C229.41 366.286 229.005 366.052 228.645 365.819C226.62 371.475 226.215 377.413 226.305 383.397C226.395 389.381 227.7 396.253 225.855 402.05C226.08 401.863 226.305 401.723 226.485 401.536C225.045 401.629 223.605 401.769 222.165 401.863C221.715 401.91 221.265 402.471 221.58 402.938C222.615 404.387 223.83 404.855 223.785 407.005C223.785 408.501 223.425 410.231 222.93 411.634C222.435 413.083 221.13 414.065 220.68 415.42C220.32 416.636 221.22 417.664 221.22 418.88C221.265 420.89 219.87 422.573 218.88 424.163C217.935 425.659 217.08 427.201 216.315 428.791C214.785 431.923 213.57 435.149 212.67 438.515C212.445 439.403 213.75 439.777 213.975 438.889C215.1 434.728 216.72 430.708 218.835 426.968C220.275 424.443 222.975 421.498 222.66 418.319C222.525 417.057 221.895 416.683 222.435 415.233C222.48 415.187 223.29 414.065 223.335 413.971C224.19 412.522 224.595 410.886 224.865 409.249C225.045 408.034 225.405 406.538 225.225 405.322C224.955 403.593 223.695 403.452 222.75 402.143C222.57 402.517 222.345 402.845 222.165 403.219C223.605 403.125 225.045 402.985 226.485 402.891C226.8 402.845 227.025 402.704 227.115 402.377C228.825 396.954 227.79 390.643 227.61 385.033C227.43 378.628 227.655 372.177 229.86 366.099C230.13 365.398 229.185 364.977 228.735 365.398C222.21 371.99 215.37 378.301 208.215 384.191C202.095 389.24 195.48 394.383 193.365 402.611C193.23 403.593 194.535 403.967 194.76 403.078Z" fill="#E8E8E8"/>
<path d="M224.775 372.598C220.365 380.592 215.865 388.493 211.635 396.58C207.675 404.06 204.165 411.821 202.5 420.189C202.32 421.077 203.625 421.451 203.805 420.563C205.515 412.008 209.16 404.154 213.21 396.534C217.35 388.726 221.715 381.059 225.945 373.299C226.35 372.551 225.18 371.803 224.775 372.598Z" fill="#E8E8E8"/>
<path d="M211.5 385.594C212.085 388.259 212.355 390.923 212.265 393.635C212.22 394.523 213.57 394.523 213.615 393.635C213.705 390.783 213.435 388.025 212.805 385.22C212.58 384.332 211.32 384.706 211.5 385.594Z" fill="#E8E8E8"/>
<path d="M218.835 376.665C219.33 378.675 219.42 380.639 219.195 382.649C219.105 383.537 220.455 383.537 220.545 382.649C220.815 380.498 220.68 378.395 220.14 376.291C219.915 375.449 218.61 375.823 218.835 376.665Z" fill="#E8E8E8"/>
<path d="M219.15 385.968C221.805 384.332 224.55 382.882 227.385 381.667C228.195 381.34 227.835 379.984 227.025 380.311C224.055 381.573 221.22 383.069 218.43 384.752C217.71 385.22 218.385 386.435 219.15 385.968Z" fill="#E8E8E8"/>
<path d="M207.54 409.436C209.25 407.941 210.96 406.491 212.715 405.089C214.56 403.593 216.585 401.583 218.835 400.648C219.645 400.32 219.285 398.965 218.475 399.292C216.45 400.087 214.785 401.629 213.075 403.032C210.87 404.808 208.71 406.585 206.595 408.455C205.92 409.016 206.865 409.997 207.54 409.436Z" fill="#E8E8E8"/>
<path d="M155.43 383.21C158.58 383.537 161.73 383.864 164.88 384.145C165.735 384.238 165.735 382.836 164.88 382.742C161.73 382.415 158.58 382.088 155.43 381.807C154.575 381.714 154.575 383.116 155.43 383.21Z" fill="#E8E8E8"/>
<path d="M238.005 476.476C294.39 476.476 350.73 476.476 407.115 476.476C423 476.476 438.885 476.476 454.77 476.476C455.625 476.476 455.625 475.073 454.77 475.073C398.385 475.073 342.045 475.073 285.66 475.073C269.775 475.073 253.89 475.073 238.005 475.073C237.105 475.073 237.105 476.476 238.005 476.476Z" fill="#E8E8E8"/>
<path d="M428.715 361.938C428.715 368.764 428.715 375.589 428.715 382.415C428.715 383.303 430.065 383.303 430.065 382.415C430.065 375.589 430.065 368.764 430.065 361.938C430.065 361.05 428.715 361.05 428.715 361.938Z" fill="#E8E8E8"/>
<path d="M397.665 385.547C419.49 385.547 441.315 385.547 463.14 385.547C463.995 385.547 463.995 384.145 463.14 384.145C441.315 384.145 419.49 384.145 397.665 384.145C396.81 384.145 396.765 385.547 397.665 385.547Z" fill="#E8E8E8"/>
<path d="M412.335 385.921C412.335 391.812 412.335 397.702 412.335 403.639C412.335 404.528 413.685 404.528 413.685 403.639C413.685 397.749 413.685 391.858 413.685 385.921C413.685 384.986 412.335 384.986 412.335 385.921Z" fill="#E8E8E8"/>
<path d="M446.085 385.547C446.085 390.737 446.085 395.973 446.085 401.162C446.085 402.05 447.435 402.05 447.435 401.162C447.435 395.973 447.435 390.737 447.435 385.547C447.435 384.659 446.085 384.659 446.085 385.547Z" fill="#E8E8E8"/>
<path d="M424.71 404.995C441.405 404.995 458.1 404.995 474.795 404.995C475.65 404.995 475.65 403.593 474.795 403.593C458.1 403.593 441.405 403.593 424.71 403.593C423.855 403.593 423.855 404.995 424.71 404.995Z" fill="#E8E8E8"/>
<path d="M386.955 490.033C423.81 490.033 460.665 490.033 497.52 490.033C498.375 490.033 498.375 488.631 497.52 488.631C460.665 488.631 423.81 488.631 386.955 488.631C386.1 488.631 386.1 490.033 386.955 490.033Z" fill="#E8E8E8"/>
<path d="M539.37 477.925C575.55 477.925 611.775 477.925 647.955 477.925C658.125 477.925 668.295 477.925 678.465 477.925C679.32 477.925 679.32 476.523 678.465 476.523C642.285 476.523 606.06 476.523 569.88 476.523C559.71 476.523 549.54 476.523 539.37 476.523C538.515 476.523 538.515 477.925 539.37 477.925Z" fill="#E8E8E8"/>
<path d="M90.765 501.861C127.845 501.861 164.97 501.861 202.05 501.861C202.905 501.861 202.905 500.459 202.05 500.459C164.97 500.459 127.845 500.459 90.765 500.459C89.91 500.459 89.91 501.861 90.765 501.861Z" fill="#E8E8E8"/>
<path d="M165.555 515.886C195.84 515.886 226.125 515.886 256.41 515.886C257.265 515.886 257.265 514.484 256.41 514.484C226.125 514.484 195.84 514.484 165.555 514.484C164.655 514.484 164.655 515.886 165.555 515.886Z" fill="#E8E8E8"/>
<path d="M625.95 116.174C625.95 103.131 625.95 90.134 625.95 77.0907C625.95 76.2025 624.6 76.2025 624.6 77.0907C624.6 90.134 624.6 103.131 624.6 116.174C624.6 117.062 625.95 117.062 625.95 116.174Z" fill="#E8E8E8"/>
<path d="M625.725 76.8102C641.97 76.8102 658.215 76.8102 674.46 76.8102C675.315 76.8102 675.315 75.4077 674.46 75.4077C658.215 75.4077 641.97 75.4077 625.725 75.4077C624.87 75.4077 624.87 76.8102 625.725 76.8102Z" fill="#E8E8E8"/>
<path d="M673.785 76.2024C673.695 89.4327 673.605 102.663 673.47 115.893C673.47 116.781 674.82 116.781 674.82 115.893C674.91 102.663 675 89.4327 675.135 76.2024C675.135 75.3142 673.785 75.3142 673.785 76.2024Z" fill="#E8E8E8"/>
<path d="M625.95 116.875C641.97 116.875 657.99 116.875 674.01 116.875C674.865 116.875 674.865 115.472 674.01 115.472C657.99 115.472 641.97 115.472 625.95 115.472C625.095 115.472 625.095 116.875 625.95 116.875Z" fill="#E8E8E8"/>
<path d="M627.255 79.8022C627.255 90.7884 627.255 101.728 627.255 112.714C627.255 113.602 628.605 113.602 628.605 112.714C628.605 101.728 628.605 90.7884 628.605 79.8022C628.605 78.9139 627.255 78.9139 627.255 79.8022Z" fill="#E8E8E8"/>
<path d="M628.245 80.5034C642.465 80.5034 656.64 80.5034 670.86 80.5034C671.715 80.5034 671.715 79.101 670.86 79.101C656.64 79.101 642.465 79.101 628.245 79.101C627.345 79.101 627.345 80.5034 628.245 80.5034Z" fill="#E8E8E8"/>
<path d="M670.14 80.1294C670.095 90.8819 670.05 101.634 670.005 112.434C670.005 113.322 671.355 113.322 671.355 112.434C671.4 101.681 671.445 90.9287 671.49 80.1294C671.49 79.2412 670.14 79.2412 670.14 80.1294Z" fill="#E8E8E8"/>
<path d="M628.515 113.602C642.51 113.602 656.505 113.602 670.5 113.602C671.355 113.602 671.355 112.2 670.5 112.2C656.505 112.2 642.51 112.2 628.515 112.2C627.66 112.2 627.66 113.602 628.515 113.602Z" fill="#E8E8E8"/>
<path d="M628.245 103.925C633.42 102.055 638.865 103.738 643.905 105.281C649.035 106.824 654.075 108.694 658.98 110.844C659.79 111.171 660.15 109.816 659.34 109.488C653.895 107.104 648.315 105.094 642.645 103.458C637.83 102.102 632.745 100.793 627.885 102.569C627.075 102.85 627.435 104.206 628.245 103.925Z" fill="#E8E8E8"/>
<path d="M645.345 105.515C653.85 105 661.815 101.447 670.23 100.466C671.085 100.372 671.085 98.9697 670.23 99.0632C661.815 100.045 653.85 103.551 645.345 104.112C644.445 104.206 644.445 105.608 645.345 105.515Z" fill="#E8E8E8"/>
<path d="M661.455 88.4042C659.565 87.2822 661.275 83.589 663.3 84.4772C664.38 84.9447 664.605 86.3005 664.02 87.2822C663.39 88.3575 662.085 88.5445 661.005 88.2172C660.15 87.9835 659.79 89.3392 660.645 89.573C662.445 90.0872 664.47 89.5262 665.37 87.703C666.18 86.0667 665.55 83.9162 663.84 83.1682C660.33 81.6255 657.45 87.703 660.78 89.6197C661.5 90.0405 662.22 88.825 661.455 88.4042Z" fill="#E8E8E8"/>
<path d="M647.685 75.8752C647.73 75.0804 647.775 74.2857 648 73.5377C648.18 72.9299 648.63 71.4807 649.305 71.2002C650.52 70.7327 650.97 75.1739 651.06 76.0154C651.15 76.9037 652.5 76.9037 652.41 76.0154C652.275 74.3792 651.915 69.2367 649.395 69.6107C648.315 69.7509 647.55 71.0132 647.145 71.9482C646.605 73.1637 646.425 74.5194 646.38 75.8284C646.335 76.7634 647.685 76.7634 647.685 75.8752Z" fill="#E8E8E8"/>
<path d="M655.245 293.964C655.245 299.574 655.245 305.231 655.245 310.841C655.245 311.729 656.595 311.729 656.595 310.841C656.595 305.231 656.595 299.574 656.595 293.964C656.595 293.076 655.245 293.076 655.245 293.964Z" fill="#E8E8E8"/>
<path d="M638.91 312.898C651.15 312.898 663.435 312.898 675.675 312.898C676.53 312.898 676.53 311.495 675.675 311.495C663.435 311.495 651.15 311.495 638.91 311.495C638.055 311.495 638.055 312.898 638.91 312.898Z" fill="#E8E8E8"/>
<path d="M644.085 313.319C644.085 315.983 644.085 318.601 644.085 321.266C644.085 322.154 645.435 322.154 645.435 321.266C645.435 318.601 645.435 315.983 645.435 313.319C645.435 312.43 644.085 312.43 644.085 313.319Z" fill="#E8E8E8"/>
<path d="M663.75 313.739C663.75 316.871 663.75 320.05 663.75 323.183C663.75 324.071 665.1 324.071 665.1 323.183C665.1 320.05 665.1 316.871 665.1 313.739C665.1 312.804 663.75 312.804 663.75 313.739Z" fill="#E8E8E8"/>
<path d="M654.21 325.006C662.715 325.006 671.22 325.006 679.725 325.006C680.58 325.006 680.58 323.604 679.725 323.604C671.22 323.604 662.715 323.604 654.21 323.604C653.355 323.604 653.355 325.006 654.21 325.006Z" fill="#E8E8E8"/>
<path d="M342.855 461.703C357.03 451.745 364.14 446.743 365.985 446.135C370.485 444.639 385.065 439.824 397.8 447.912C406.935 453.709 415.35 466.285 411.84 474.7C409.32 480.684 401.625 482.554 394.65 484.283C384.345 486.808 375.525 485.405 370.575 484.19C368.64 486.153 365.535 488.771 361.17 490.501C353.925 493.4 345.555 492.885 345.15 491.156C344.97 490.267 346.77 488.538 355.5 484.985C354.465 483.816 352.935 482.413 350.775 481.432C344.385 478.393 337.995 481.338 336.78 481.946C343.035 485.733 344.385 487.696 344.07 488.771C343.26 491.483 330.525 492.371 327.105 486.153C326.745 485.546 325.755 483.442 326.565 479.468C328.185 472.175 334.035 467.921 342.855 461.703Z" fill="#161616"/>
<path d="M404.595 472.081C406.035 468.996 412.515 469.744 415.035 470.024C418.275 470.398 421.155 470.726 423.765 473.11C425.745 474.886 428.625 478.767 427.59 481.899C426.645 484.891 423.09 484.657 416.205 488.163C415.035 488.771 403.785 494.521 404.55 498.308C404.865 499.851 406.89 499.804 413.325 502.656C418.905 505.087 422.19 506.583 424.935 509.855C426.285 511.492 428.985 514.718 428.265 517.99C426.915 524.021 414.855 525.049 414.54 524.114C414.27 523.32 422.73 521.122 422.82 517.008C422.91 513.876 418.185 511.352 415.215 509.715C406.485 504.994 400.59 506.676 398.295 502.142C396.99 499.57 397.71 496.812 397.845 496.298C398.52 493.773 400.41 491.623 409.635 486.808C418.05 482.413 421.785 481.385 421.74 479.421C421.695 477.598 418.455 476.102 416.475 475.588C410.895 474.045 406.8 477.691 404.91 475.634C404.1 474.699 404.145 473.11 404.595 472.081Z" fill="#161616"/>
<path d="M327.735 449.454C330.57 451.652 333.405 453.849 336.24 456.046C340.29 455.625 344.295 455.251 348.345 454.831C350.865 452.306 353.385 449.735 355.905 447.21C356.085 448.8 356.445 452.4 356.58 454.129C358.155 469.697 358.29 471.053 357.345 472.829C354.24 478.58 343.755 480.917 337.725 476.897C334.8 474.933 333.675 471.988 331.56 466.331C328.995 459.506 328.095 453.522 327.735 449.454Z" fill="#161616"/>
<path d="M339.165 465.63C338.49 467.079 337.005 467.967 335.475 467.687C335.07 467.593 334.89 468.295 335.295 468.341C337.14 468.669 338.985 467.734 339.75 465.957C339.93 465.583 339.39 465.209 339.165 465.63Z" fill="white"/>
<path d="M345.42 465.162C346.905 466.658 348.885 467.313 350.91 466.986C351.36 466.939 351.135 466.238 350.73 466.331C348.93 466.612 347.175 466.004 345.87 464.695C345.555 464.368 345.105 464.835 345.42 465.162Z" fill="white"/>
<path d="M343.035 469.604C342.9 469.604 342.81 469.557 342.675 469.557C342.72 469.51 342.72 469.417 342.765 469.37C342.855 469.464 342.99 469.557 343.08 469.651C343.08 469.557 343.035 469.51 343.035 469.417C342.9 468.996 342.27 469.183 342.405 469.604C342.63 470.632 342.99 472.222 341.775 472.736C341.37 472.923 341.55 473.578 341.955 473.391C343.575 472.689 343.395 470.866 343.08 469.37C342.855 469.417 342.63 469.51 342.45 469.557C342.45 469.651 342.495 469.697 342.495 469.791C342.54 469.931 342.675 470.071 342.81 470.071C343.98 469.978 343.035 468.295 342.495 469.277C342.27 469.604 342.81 469.978 343.035 469.604Z" fill="white"/>
<path d="M342.585 469.931C342.81 470.726 342.855 471.614 343.35 472.315C343.755 472.876 344.385 473.157 345.06 473.017C345.465 472.923 345.285 472.269 344.88 472.362C343.62 472.643 343.44 470.586 343.215 469.744C343.125 469.323 342.495 469.51 342.585 469.931Z" fill="white"/>
<path d="M340.425 470.586C339.12 469.978 337.77 469.697 336.33 469.791C335.88 469.838 335.88 470.539 336.33 470.492C337.635 470.399 338.895 470.632 340.065 471.193C340.47 471.38 340.83 470.773 340.425 470.586Z" fill="white"/>
<path d="M339.255 471.521C338.13 471.614 337.14 472.082 336.375 472.876C336.06 473.204 336.555 473.671 336.87 473.391C337.545 472.736 338.355 472.315 339.3 472.222C339.66 472.175 339.66 471.474 339.255 471.521Z" fill="white"/>
<path d="M345.69 470.258C346.995 469.744 348.3 469.557 349.695 469.697C350.145 469.744 350.145 469.043 349.695 468.996C348.255 468.856 346.86 469.09 345.51 469.604C345.105 469.744 345.24 470.445 345.69 470.258Z" fill="white"/>
<path d="M346.59 471.521C347.58 471.38 348.525 471.474 349.47 471.848C349.875 471.988 350.055 471.334 349.65 471.193C348.66 470.819 347.625 470.726 346.59 470.866C346.14 470.866 346.14 471.614 346.59 471.521Z" fill="white"/>
<path d="M335.97 463.573C336.645 463.152 337.455 463.152 338.13 463.573C338.49 463.807 338.85 463.199 338.49 462.965C337.59 462.451 336.555 462.451 335.655 462.965C335.25 463.199 335.61 463.807 335.97 463.573Z" fill="white"/>
<path d="M345.42 462.638C346.095 462.264 346.86 462.171 347.67 462.264C348.075 462.311 348.3 461.656 347.85 461.61C346.905 461.469 345.96 461.61 345.105 462.077C344.655 462.217 345.015 462.825 345.42 462.638Z" fill="white"/>
<path d="M334.665 447.959C336.06 447.351 337.455 446.743 338.805 446.089C338.535 445.902 338.31 445.715 338.04 445.481C337.5 447.257 336.69 448.847 335.61 450.343C335.34 450.717 335.79 451.278 336.195 451.138C337.725 450.53 339.255 449.969 340.785 449.361C341.37 449.127 341.145 448.099 340.515 448.333C338.985 448.94 337.455 449.501 335.925 450.109C336.105 450.39 336.285 450.623 336.51 450.904C337.68 449.361 338.49 447.678 339.075 445.808C339.21 445.341 338.715 445.06 338.31 445.2C336.915 445.808 335.52 446.416 334.17 447.07C333.54 447.351 334.08 448.239 334.665 447.959Z" fill="#161616"/>
<path d="M336.915 439.45C337.86 438.889 338.805 438.515 339.84 438.281C339.66 438.001 339.48 437.767 339.255 437.487C338.85 438.422 338.355 439.357 337.77 440.198C337.545 440.572 337.86 440.946 338.22 440.993C339.435 441.086 340.56 440.759 341.505 440.011C342 439.59 341.505 438.702 341.01 439.123C340.2 439.777 339.3 440.058 338.265 439.964C338.4 440.245 338.535 440.479 338.715 440.759C339.3 439.871 339.795 438.983 340.2 438.048C340.38 437.627 340.065 437.159 339.615 437.253C338.49 437.487 337.41 437.907 336.42 438.515C335.835 438.889 336.33 439.777 336.915 439.45Z" fill="#161616"/>
<path d="M344.34 450.764C342.855 449.221 345.42 448.333 345.69 446.977C345.96 445.387 344.16 443.891 346.185 442.676C346.77 442.349 346.23 441.414 345.69 441.788C344.97 442.208 344.385 442.863 344.205 443.751C343.935 445.247 345.195 446.135 344.115 447.491C343.62 448.146 343.035 448.333 342.855 449.221C342.675 450.109 343.035 450.857 343.62 451.512C344.115 451.979 344.835 451.231 344.34 450.764Z" fill="#161616"/>
<path d="M468.585 317.292C355.77 325.754 242.955 334.169 130.185 342.631C127.125 257.639 124.065 172.648 121.05 87.6562C234.36 86.0667 347.67 84.4772 460.98 82.8877C463.5 161.007 466.02 239.126 468.585 317.292Z" fill="white" stroke="#161616" stroke-width="3.5" stroke-miterlimit="10"/>
<path d="M216.9 129.03C238.77 129.03 260.685 129.03 282.555 129.03C283.41 129.03 283.41 127.627 282.555 127.627C260.685 127.627 238.77 127.627 216.9 127.627C216.045 127.627 216.045 129.03 216.9 129.03Z" fill="#161616"/>
<path d="M241.47 134.78C264.015 134.78 286.56 134.78 309.105 134.78C309.96 134.78 309.96 133.378 309.105 133.378C286.56 133.378 264.015 133.378 241.47 133.378C240.57 133.378 240.57 134.78 241.47 134.78Z" fill="#161616"/>
<path d="M134.73 271.945C135.54 291.486 136.35 311.075 137.16 330.616C137.205 331.504 138.555 331.504 138.51 330.616C137.7 311.075 136.89 291.486 136.08 271.945C136.035 271.057 134.685 271.057 134.73 271.945Z" fill="#161616"/>
<path d="M233.865 260.538C235.8 260.538 237.735 260.538 239.715 260.538C240.57 260.538 240.57 259.135 239.715 259.135C237.78 259.135 235.845 259.135 233.865 259.135C233.01 259.135 233.01 260.538 233.865 260.538Z" fill="#161616"/>
<path d="M244.8 260.538C249.795 260.538 254.745 260.538 259.74 260.538C260.595 260.538 260.595 259.135 259.74 259.135C254.745 259.135 249.795 259.135 244.8 259.135C243.945 259.135 243.945 260.538 244.8 260.538Z" fill="#161616"/>
<path d="M271.035 259.79C276.975 259.79 282.915 259.79 288.9 259.79C289.755 259.79 289.755 258.387 288.9 258.387C282.96 258.387 277.02 258.387 271.035 258.387C270.18 258.387 270.18 259.79 271.035 259.79Z" fill="#161616"/>
<path d="M241.92 270.355C249.21 270.355 256.5 270.355 263.79 270.355C264.645 270.355 264.645 268.953 263.79 268.953C256.5 268.953 249.21 268.953 241.92 268.953C241.02 268.953 241.02 270.355 241.92 270.355Z" fill="#161616"/>
<path d="M252.45 265.072C260.955 265.072 269.46 265.072 277.965 265.072C278.82 265.072 278.82 263.67 277.965 263.67C269.46 263.67 260.955 263.67 252.45 263.67C251.595 263.67 251.595 265.072 252.45 265.072Z" fill="#161616"/>
<path d="M297.63 315.048C311.94 315.048 326.295 315.048 340.605 315.048C341.46 315.048 341.46 313.646 340.605 313.646C326.295 313.646 311.94 313.646 297.63 313.646C296.775 313.646 296.775 315.048 297.63 315.048Z" fill="#161616"/>
<path d="M332.955 318.835C340.47 318.835 348.03 318.835 355.545 318.835C356.4 318.835 356.4 317.432 355.545 317.432C348.03 317.432 340.47 317.432 332.955 317.432C332.1 317.432 332.1 318.835 332.955 318.835Z" fill="#161616"/>
<path d="M352.62 313.131C360.045 313.131 367.425 313.131 374.85 313.131C375.705 313.131 375.705 311.729 374.85 311.729C367.425 311.729 360.045 311.729 352.62 311.729C351.765 311.729 351.765 313.131 352.62 313.131Z" fill="#161616"/>
<path d="M390.51 186.392C404.235 186.392 417.96 186.392 431.685 186.392C432.54 186.392 432.54 184.99 431.685 184.99C417.96 184.99 404.235 184.99 390.51 184.99C389.655 184.99 389.655 186.392 390.51 186.392Z" fill="#161616"/>
<path d="M377.775 188.636C382.14 188.636 386.505 188.636 390.87 188.636C391.725 188.636 391.725 187.234 390.87 187.234C386.505 187.234 382.14 187.234 377.775 187.234C376.875 187.234 376.875 188.636 377.775 188.636Z" fill="#161616"/>
<path d="M380.295 192.423C394.965 192.423 409.68 192.423 424.35 192.423C425.205 192.423 425.205 191.021 424.35 191.021C409.68 191.021 394.965 191.021 380.295 191.021C379.44 191.021 379.44 192.423 380.295 192.423Z" fill="#161616"/>
<path d="M434.61 189.01C437.4 189.01 440.19 189.01 442.98 189.01C443.835 189.01 443.835 187.608 442.98 187.608C440.19 187.608 437.4 187.608 434.61 187.608C433.71 187.608 433.71 189.01 434.61 189.01Z" fill="#161616"/>
<path d="M423.675 246.139C427.815 246.139 431.91 246.139 436.05 246.139C436.905 246.139 436.905 244.736 436.05 244.736C431.91 244.736 427.815 244.736 423.675 244.736C422.775 244.736 422.775 246.139 423.675 246.139Z" fill="#161616"/>
<path d="M415.665 249.925C420.165 249.925 424.665 249.925 429.12 249.925C429.975 249.925 429.975 248.523 429.12 248.523C424.62 248.523 420.12 248.523 415.665 248.523C414.765 248.523 414.765 249.925 415.665 249.925Z" fill="#161616"/>
<path d="M422.19 253.712C431.055 253.712 439.92 253.712 448.785 253.712C449.64 253.712 449.64 252.31 448.785 252.31C439.92 252.31 431.055 252.31 422.19 252.31C421.335 252.31 421.335 253.712 422.19 253.712Z" fill="#161616"/>
<path d="M438.975 249.177C441.63 249.177 444.33 249.177 446.985 249.177C447.84 249.177 447.84 247.775 446.985 247.775C444.33 247.775 441.63 247.775 438.975 247.775C438.075 247.775 438.075 249.177 438.975 249.177Z" fill="#161616"/>
<path d="M253.62 190.88C259.92 190.88 266.175 190.88 272.475 190.88C273.33 190.88 273.33 189.478 272.475 189.478C266.175 189.478 259.92 189.478 253.62 189.478C252.765 189.478 252.765 190.88 253.62 190.88Z" fill="#161616"/>
<path d="M267.345 194.901C276.615 194.901 285.93 194.901 295.2 194.901C296.055 194.901 296.055 193.498 295.2 193.498C285.93 193.498 276.615 193.498 267.345 193.498C266.49 193.498 266.445 194.901 267.345 194.901Z" fill="#161616"/>
<path d="M291.78 189.524C297.045 189.524 302.355 189.524 307.62 189.524C308.475 189.524 308.475 188.122 307.62 188.122C302.355 188.122 297.045 188.122 291.78 188.122C290.925 188.122 290.925 189.524 291.78 189.524Z" fill="#161616"/>
<path d="M130.725 114.911C131.715 150.395 132.705 185.925 133.695 221.408C133.965 231.506 134.235 241.557 134.55 251.655C134.595 252.543 135.945 252.543 135.9 251.655C134.91 216.172 133.92 180.642 132.93 145.159C132.66 135.061 132.39 125.009 132.075 114.911C132.075 114.023 130.725 114.023 130.725 114.911Z" fill="#161616"/>
<path d="M457.83 230.898C458.505 254.367 459.18 277.789 459.855 301.257C459.9 302.145 461.25 302.145 461.205 301.257C460.53 277.789 459.855 254.367 459.18 230.898C459.18 230.01 457.83 230.01 457.83 230.898Z" fill="#161616"/>
<path d="M364.635 220.146C364.905 222.997 365.175 225.896 365.4 228.748C368.01 228.046 370.575 227.298 373.185 226.597C372.825 223.745 372.51 220.847 372.15 217.995C369.63 218.696 367.155 219.444 364.635 220.146Z" fill="#EC615B"/>
<path d="M363.06 241.978C365.76 241.604 368.415 241.277 371.115 240.903C371.475 244.315 371.79 247.728 372.15 251.141C369.72 251.234 367.29 251.328 364.905 251.421C364.275 248.242 363.69 245.11 363.06 241.978Z" fill="#EC615B"/>
<path d="M372.915 262.688C373.77 265.634 374.625 268.626 375.525 271.571C377.955 270.402 380.385 269.233 382.77 268.065C382.005 265.447 381.195 262.875 380.43 260.257C377.955 261.099 375.435 261.894 372.915 262.688Z" fill="#EC615B"/>
<path d="M195.03 290.551C195.615 299.621 196.2 308.69 196.785 317.713C212.085 316.684 227.385 315.703 242.685 314.674C242.955 306.54 243.27 298.358 243.54 290.224C227.385 290.364 211.185 290.458 195.03 290.551Z" fill="#5222D0"/>
<path d="M385.245 106.029C387.009 106.029 388.44 104.794 388.44 103.271C388.44 101.747 387.009 100.512 385.245 100.512C383.48 100.512 382.05 101.747 382.05 103.271C382.05 104.794 383.48 106.029 385.245 106.029Z" fill="#5222D0"/>
<path d="M168.12 126.693C169.586 126.693 170.775 125.876 170.775 124.869C170.775 123.862 169.586 123.046 168.12 123.046C166.654 123.046 165.465 123.862 165.465 124.869C165.465 125.876 166.654 126.693 168.12 126.693Z" fill="#EC615B"/>
<path d="M210.375 179.567C211.518 179.567 212.445 178.436 212.445 177.042C212.445 175.648 211.518 174.518 210.375 174.518C209.232 174.518 208.305 175.648 208.305 177.042C208.305 178.436 209.232 179.567 210.375 179.567Z" fill="#EC615B"/>
<path opacity="0.21" d="M191.385 116.595C192.195 116.454 193.77 124.262 197.64 138.427C202.725 157.08 207.765 172.133 211.41 182.418C205.875 185.971 193.5 192.75 176.625 192.984C164.7 193.124 155.295 189.945 149.715 187.514C160.65 188.776 169.47 188.449 175.635 187.841C185.4 186.906 183.69 185.831 191.07 185.457C194.13 185.317 198.135 185.317 202.23 182.746C203.715 181.811 204.795 180.782 205.515 180.034C202.635 173.863 198.945 164.794 195.975 153.434C191.25 134.967 190.215 116.828 191.385 116.595Z" fill="#6D6C6C"/>
<path opacity="0.25" d="M233.55 167.318C234.27 173.255 235.575 179.894 237.735 187C243.9 207.196 254.295 221.595 262.125 230.478C257.445 234.077 251.64 237.817 244.665 240.95C223.515 250.44 203.76 249.037 193.185 247.354C192.78 244.876 192.375 242.399 191.97 239.921C196.47 240.061 201.24 239.968 206.235 239.687C224.055 238.519 239.355 234.358 251.55 229.73C247.68 222.904 244.89 217.014 242.955 212.572C238.275 201.96 234.81 193.966 233.595 183.166C232.83 176.575 233.145 171.011 233.55 167.318Z" fill="#6D6C6C"/>
<path opacity="0.14" d="M376.605 198.267C377.055 208.926 378.135 217.761 379.08 224.119C381.285 238.705 382.905 248.803 388.665 260.164C392.265 267.223 396.315 272.412 399.24 275.778C394.155 280.313 387.315 285.455 378.54 289.569C356.49 299.995 335.79 297.891 326.115 296.208C325.62 293.917 325.125 291.626 324.63 289.289C325.845 289.382 327.735 289.476 330.03 289.523C337.68 289.71 353.61 289.99 371.88 283.632C377.01 281.856 384.21 278.864 392.31 273.908C389.115 269.467 385.965 264.184 383.22 258.06C372.375 233.89 374.535 210.422 376.605 198.267Z" fill="#6D6C6C"/>
<path opacity="0.18" d="M411.075 93.4065C411.975 97.7542 413.28 104.393 414.585 112.667C417.015 128.656 416.835 134.453 419.67 143.896C421.155 148.805 423.81 155.771 428.805 163.718C424.62 167.271 419.4 170.965 412.965 174.05C391.905 184.195 371.745 181.343 362.475 179.333C362.565 177.463 362.655 175.593 362.745 173.77C363.915 174.097 365.67 174.518 367.83 174.892C370.665 175.359 381.15 176.949 400.86 171.806C406.305 170.404 413.64 168.16 422.055 164.56C420.435 161.568 418.05 156.893 415.89 150.909C409.59 133.565 409.635 118.511 409.725 110.751C409.77 106.496 410.04 100.559 411.075 93.4065Z" fill="#6D6C6C"/>
<path d="M142.065 113.93C137.61 138.427 142.11 163.204 146.61 187.327C146.79 188.215 148.095 187.841 147.915 186.953C143.46 163.111 139.005 138.567 143.37 114.304C143.505 113.462 142.2 113.041 142.065 113.93Z" fill="#161616"/>
<path d="M143.325 113.743C149.76 118.231 157.545 119.025 165.15 118.464C173.835 117.81 182.43 115.893 191.025 114.397C191.88 114.257 191.52 112.901 190.665 113.041C182.43 114.444 174.195 116.267 165.87 116.968C158.265 117.623 150.48 117.015 144 112.48C143.28 112.013 142.605 113.228 143.325 113.743Z" fill="#161616"/>
<path d="M190.125 115.379C191.385 137.725 194.625 160.539 205.515 180.174C205.965 180.969 207.135 180.268 206.685 179.473C195.93 160.025 192.735 137.445 191.475 115.379C191.43 114.491 190.08 114.491 190.125 115.379Z" fill="#161616"/>
<path d="M147.735 187.701C157.95 190.787 168.93 188.917 179.325 188.028C188.55 187.234 198.45 186.86 206.37 181.25C207.09 180.735 206.415 179.52 205.695 180.034C197.73 185.691 187.74 185.878 178.47 186.673C168.48 187.514 157.95 189.244 148.095 186.299C147.24 186.112 146.88 187.467 147.735 187.701Z" fill="#161616"/>
<path d="M165.015 125.15C164.115 124.729 165.105 123.841 165.645 123.7C166.32 123.513 167.625 123.42 167.94 124.215C168.165 124.822 167.805 125.617 167.265 125.851C166.41 126.272 165.465 125.757 164.88 125.15C164.25 124.495 163.305 125.477 163.935 126.131C165.06 127.3 166.905 127.908 168.3 126.833C169.425 125.991 169.83 124.121 168.885 122.999C167.805 121.737 165.51 121.877 164.295 122.812C163.215 123.654 162.99 125.664 164.385 126.318C165.15 126.739 165.825 125.524 165.015 125.15Z" fill="#161616"/>
<path d="M183.06 187.888C179.82 204.952 183.285 222.203 186.795 238.939C186.975 239.828 188.28 239.454 188.1 238.565C184.635 222.109 181.215 205.092 184.365 188.262C184.545 187.374 183.24 187 183.06 187.888Z" fill="#161616"/>
<path d="M201.645 169.983C212.04 167.926 222.57 167.178 233.1 167.599C232.875 167.365 232.65 167.131 232.425 166.898C230.31 189.431 239.58 210.889 250.83 229.543C251.28 230.291 252.45 229.589 252 228.841C240.885 210.375 231.66 189.197 233.775 166.898C233.82 166.524 233.415 166.196 233.1 166.196C222.435 165.776 211.77 166.57 201.285 168.627C200.43 168.814 200.79 170.17 201.645 169.983Z" fill="#161616"/>
<path d="M187.515 239.921C209.385 242.586 231.57 239.173 251.82 230.197C252.63 229.823 251.91 228.654 251.145 228.981C231.165 237.864 209.115 241.136 187.515 238.518C186.66 238.425 186.66 239.827 187.515 239.921Z" fill="#161616"/>
<path d="M210.105 175.733C210.105 175.686 210.24 175.453 210.24 175.359C210.285 175.172 210.42 174.985 210.555 174.845C210.825 174.611 211.14 174.424 211.5 174.377C212.175 174.284 212.805 174.658 212.985 175.359C213.12 175.92 212.895 176.668 212.265 176.762C211.68 176.855 211.14 176.434 211.05 175.827C210.915 174.938 209.61 175.312 209.745 176.201C209.97 177.837 211.995 178.632 213.3 177.837C214.74 176.949 214.65 174.658 213.435 173.583C212.085 172.414 209.835 173.022 209.07 174.611C208.71 175.406 208.71 176.481 209.565 176.949C210.24 177.323 211.23 176.995 211.41 176.107C211.545 175.219 210.24 174.845 210.105 175.733Z" fill="#161616"/>
<path d="M146.52 139.362C158.49 141.091 170.37 138.52 181.845 135.107C182.7 134.874 182.34 133.518 181.485 133.752C170.235 137.071 158.58 139.689 146.88 138.006C146.025 137.866 145.665 139.221 146.52 139.362Z" fill="#161616"/>
<path d="M148.77 148.525C154.98 149.226 161.19 148.571 167.175 146.608C167.985 146.327 167.67 144.972 166.815 145.252C160.965 147.169 154.89 147.777 148.77 147.122C147.915 147.029 147.915 148.431 148.77 148.525Z" fill="#161616"/>
<path d="M148.77 159.838C160.65 161.288 172.62 160.399 184.14 157.267C184.995 157.033 184.635 155.678 183.78 155.911C172.35 159.044 160.515 159.885 148.77 158.436C147.915 158.296 147.915 159.698 148.77 159.838Z" fill="#161616"/>
<path d="M193.23 231.599C205.155 232.16 217.08 230.664 228.51 227.111C229.32 226.878 229.005 225.522 228.15 225.756C216.81 229.262 205.065 230.758 193.23 230.197C192.33 230.15 192.33 231.553 193.23 231.599Z" fill="#161616"/>
<path d="M195.525 220.894C200.835 220.707 206.145 220.286 211.455 219.678C212.31 219.585 212.31 218.182 211.455 218.276C206.145 218.883 200.88 219.304 195.525 219.491C194.67 219.538 194.67 220.94 195.525 220.894Z" fill="#161616"/>
<path d="M199.845 201.633C203.355 202.1 207 201.165 210.465 200.651C214.29 200.043 218.07 199.482 221.895 198.874C222.75 198.734 222.39 197.378 221.535 197.519C218.025 198.08 214.47 198.641 210.96 199.155C207.315 199.716 203.535 200.744 199.845 200.23C198.99 200.09 198.99 201.492 199.845 201.633Z" fill="#161616"/>
<path d="M358.875 96.8193C353.97 121.831 353.475 147.543 357.39 172.741C357.525 173.63 358.83 173.256 358.695 172.367C354.825 147.45 355.365 121.924 360.18 97.1933C360.36 96.305 359.055 95.931 358.875 96.8193Z" fill="#161616"/>
<path d="M360.405 97.1465C376.74 93.2662 393.615 92.4715 410.265 94.809C411.12 94.9492 411.48 93.5935 410.625 93.4532C393.75 91.069 376.65 91.8637 360.045 95.7907C359.235 96.0245 359.595 97.3802 360.405 97.1465Z" fill="#161616"/>
<path d="M409.86 93.5467C409.365 117.623 409.68 143.055 421.425 164.607C421.875 165.401 423 164.7 422.595 163.905C410.985 142.587 410.715 117.389 411.21 93.5467C411.255 92.6584 409.905 92.6584 409.86 93.5467Z" fill="#161616"/>
<path d="M358.425 173.489C363.465 175.079 368.865 175.172 374.085 175.219C379.71 175.266 385.335 174.892 390.96 174.097C401.715 172.601 412.2 169.562 422.235 165.168C423.045 164.84 422.325 163.625 421.56 163.952C411.525 168.347 400.95 171.339 390.15 172.788C385.11 173.442 380.025 173.816 374.94 173.77C369.585 173.77 363.96 173.723 358.83 172.087C357.93 171.9 357.615 173.255 358.425 173.489Z" fill="#161616"/>
<path d="M385.965 98.6425C384.435 99.2035 383.76 101.027 384.3 102.57C384.93 104.299 386.865 104.72 388.305 103.692C389.7 102.663 390.15 100.606 388.8 99.297C387.63 98.175 385.605 98.1283 384.525 99.3438C383.94 99.9983 384.885 100.98 385.47 100.326C386.82 98.8295 389.475 100.933 387.63 102.429C386.91 102.99 385.875 102.99 385.56 102.009C385.335 101.261 385.56 100.232 386.325 99.9515C387.135 99.671 386.775 98.3153 385.965 98.6425Z" fill="#161616"/>
<path d="M359.55 118.558C371.835 118.885 384.075 118.652 396.315 117.81C397.17 117.763 397.17 116.361 396.315 116.408C384.075 117.249 371.79 117.53 359.55 117.156C358.65 117.156 358.65 118.558 359.55 118.558Z" fill="#161616"/>
<path d="M360.765 125.664C365.355 125.851 369.945 126.038 374.49 126.225C375.345 126.272 375.345 124.869 374.49 124.823C369.9 124.636 365.31 124.449 360.765 124.262C359.865 124.215 359.865 125.617 360.765 125.664Z" fill="#161616"/>
<path d="M359.505 135.575C371.07 136.229 382.77 136.79 394.155 134.172C395.01 133.985 394.65 132.63 393.795 132.817C382.5 135.388 370.935 134.827 359.505 134.172C358.65 134.126 358.65 135.528 359.505 135.575Z" fill="#161616"/>
<path d="M191.745 287.559C190.71 296.909 190.35 306.306 190.665 315.703C190.71 316.591 192.06 316.591 192.015 315.703C191.7 306.306 192.06 296.909 193.095 287.559C193.185 286.671 191.835 286.671 191.745 287.559Z" fill="#161616"/>
<path d="M192.195 288.12C208.215 288.12 224.28 287.887 240.3 287.372C241.155 287.326 241.155 285.923 240.3 285.97C224.28 286.484 208.215 286.718 192.195 286.718C191.34 286.718 191.34 288.12 192.195 288.12Z" fill="#161616"/>
<path d="M240.165 286.718C240.3 294.852 240.435 302.94 240.57 311.075C240.57 311.963 241.92 311.963 241.92 311.075C241.785 302.94 241.65 294.852 241.515 286.718C241.515 285.829 240.12 285.829 240.165 286.718Z" fill="#161616"/>
<path d="M190.53 314.674C190.62 317.713 195.705 316.357 197.37 316.264C202.14 315.937 206.91 315.609 211.635 315.235C221.31 314.534 230.985 313.88 240.66 313.178C241.515 313.132 241.515 311.729 240.66 311.776C232.425 312.337 224.235 312.945 216 313.506C212.085 313.786 208.17 314.067 204.255 314.347C203.085 314.441 191.88 315.563 191.835 314.674C191.88 313.786 190.53 313.786 190.53 314.674Z" fill="#161616"/>
<path d="M195.84 294.432C206.64 293.917 217.44 294.338 228.15 295.741C229.005 295.834 229.005 294.432 228.15 294.338C217.44 292.936 206.64 292.515 195.84 293.029C194.94 293.076 194.94 294.478 195.84 294.432Z" fill="#161616"/>
<path d="M196.245 301.537C202.275 301.07 208.35 300.556 214.38 300.088C215.235 300.041 215.235 298.639 214.38 298.686C208.35 299.153 202.275 299.667 196.245 300.135C195.39 300.182 195.39 301.584 196.245 301.537Z" fill="#161616"/>
<path d="M198.27 308.69C206.955 307.522 216.405 305.137 225.135 306.774C225.99 306.914 226.35 305.605 225.495 305.418C216.585 303.735 207.135 306.072 198.27 307.288C197.46 307.428 197.415 308.831 198.27 308.69Z" fill="#161616"/>
<path d="M315.315 207.991C308.16 234.451 309.06 262.782 317.835 288.728C318.105 289.569 319.41 289.195 319.14 288.354C310.455 262.641 309.555 234.591 316.62 208.365C316.845 207.476 315.54 207.102 315.315 207.991Z" fill="#161616"/>
<path d="M316.215 208.458C336.24 208.365 356.175 205.653 375.57 200.371C376.425 200.137 376.065 198.781 375.21 199.015C355.95 204.251 336.15 206.962 316.215 207.056C315.315 207.056 315.315 208.458 316.215 208.458Z" fill="#161616"/>
<path d="M375.21 199.529C374.4 212.525 374.94 225.615 377.19 238.472C378.315 244.97 379.665 251.468 382.14 257.546C384.615 263.577 388.035 269.046 392.04 274.049C392.58 274.75 393.57 273.768 392.985 273.067C388.89 267.971 385.425 262.314 382.995 256.143C380.7 250.253 379.44 243.941 378.405 237.724C376.245 225.148 375.75 212.292 376.515 199.529C376.605 198.641 375.255 198.641 375.21 199.529Z" fill="#161616"/>
<path d="M318.015 289.476C343.485 291.346 370.08 288.354 392.4 274.703C393.165 274.235 392.49 273.02 391.725 273.487C369.54 287.045 343.215 289.897 318.015 288.073C317.16 287.98 317.16 289.382 318.015 289.476Z" fill="#161616"/>
<path d="M345.105 212.666C344.34 211.31 345.87 209.627 347.175 210.702C348.57 211.871 347.085 213.741 345.6 213.133C344.79 212.806 344.43 214.162 345.24 214.489C346.455 215.003 347.94 214.442 348.66 213.32C349.47 212.058 349.11 210.468 347.985 209.58C345.555 207.57 342.495 210.702 343.935 213.367C344.385 214.162 345.555 213.46 345.105 212.666Z" fill="#161616"/>
<path d="M316.665 228.794C330.12 228.561 343.575 227.579 356.985 225.896C357.84 225.802 357.84 224.4 356.985 224.493C343.62 226.223 330.165 227.158 316.665 227.392C315.81 227.439 315.81 228.841 316.665 228.794Z" fill="#161616"/>
<path d="M361.8 219.398C362.205 221.548 362.61 223.746 363.015 225.896C363.195 226.784 364.5 226.41 364.32 225.522C363.915 223.372 363.51 221.174 363.105 219.024C362.97 218.136 361.665 218.51 361.8 219.398Z" fill="#161616"/>
<path d="M362.7 219.211C365.175 218.837 367.65 218.463 370.17 218.042C371.025 217.902 370.665 216.546 369.81 216.686C367.335 217.06 364.86 217.434 362.34 217.855C361.485 217.995 361.845 219.351 362.7 219.211Z" fill="#161616"/>
<path d="M369.765 217.621C370.125 219.632 370.44 221.642 370.8 223.605C370.935 224.494 372.24 224.12 372.105 223.231C371.745 221.221 371.43 219.211 371.07 217.247C370.935 216.406 369.63 216.78 369.765 217.621Z" fill="#161616"/>
<path d="M364.14 226.971C366.795 226.41 369.315 225.662 371.835 224.634C372.645 224.306 372.285 222.951 371.475 223.278C368.955 224.26 366.39 225.054 363.78 225.615C362.925 225.802 363.285 227.158 364.14 226.971Z" fill="#161616"/>
<path d="M364.365 220.8C364.86 221.969 365.535 222.904 366.525 223.699C366.885 223.979 367.56 223.979 367.65 223.371C368.01 220.847 368.865 218.603 370.305 216.499C370.8 215.751 369.63 215.05 369.135 215.798C367.65 217.948 366.705 220.379 366.345 222.997C366.705 222.904 367.11 222.81 367.47 222.67C366.615 221.969 365.985 221.127 365.535 220.052C365.175 219.257 364.005 219.959 364.365 220.8Z" fill="#161616"/>
<path d="M364.86 240.856C364.14 244.222 364.455 247.495 365.76 250.627C366.12 251.468 367.245 250.72 366.93 249.926C365.76 247.167 365.535 244.175 366.165 241.23C366.345 240.342 365.04 239.968 364.86 240.856Z" fill="#161616"/>
<path d="M365.76 241.323C368.46 240.856 371.16 240.435 373.86 239.968C373.59 239.687 373.32 239.407 373.05 239.126C372.6 242.118 372.915 244.97 374.04 247.775C374.355 248.616 375.66 248.242 375.345 247.401C374.31 244.876 373.95 242.212 374.355 239.5C374.445 238.939 374.085 238.565 373.545 238.659C370.845 239.079 368.145 239.547 365.445 240.014C364.545 240.108 364.905 241.464 365.76 241.323Z" fill="#161616"/>
<path d="M366.345 250.673C369.315 250.58 372.15 249.972 374.94 248.944C375.75 248.616 375.39 247.261 374.58 247.588C371.925 248.616 369.18 249.177 366.345 249.271C365.49 249.271 365.49 250.673 366.345 250.673Z" fill="#161616"/>
<path d="M366.75 244.175C367.155 245.391 367.83 246.232 368.91 246.887C369.405 247.167 369.855 246.793 369.945 246.279C370.215 243.801 370.845 241.417 371.835 239.126C372.195 238.332 371.025 237.584 370.665 238.425C369.585 240.95 368.91 243.568 368.595 246.279C368.955 246.092 369.27 245.858 369.63 245.671C368.865 245.204 368.415 244.643 368.1 243.755C367.785 242.96 366.48 243.334 366.75 244.175Z" fill="#161616"/>
<path d="M367.65 262.548C367.965 265.68 368.775 268.625 370.125 271.43C370.485 272.225 371.655 271.524 371.295 270.729C370.08 268.158 369.315 265.4 369.045 262.548C368.91 261.66 367.56 261.66 367.65 262.548Z" fill="#161616"/>
<path d="M368.28 262.408C371.745 262.735 374.985 262.08 378.09 260.491C377.775 260.351 377.415 260.21 377.1 260.07C377.685 262.922 378.9 265.4 380.79 267.597C381.375 268.251 382.32 267.27 381.735 266.615C380.025 264.605 378.945 262.361 378.405 259.743C378.315 259.275 377.775 259.135 377.415 259.322C374.535 260.771 371.475 261.332 368.28 261.052C367.425 260.958 367.425 262.361 368.28 262.408Z" fill="#161616"/>
<path d="M371.34 271.945C374.85 270.589 378.315 269.14 381.69 267.55C382.5 267.176 381.78 265.961 381.015 266.335C377.73 267.878 374.355 269.28 370.98 270.589C370.17 270.916 370.53 272.272 371.34 271.945Z" fill="#161616"/>
<path d="M370.62 264.885C371.7 265.867 374.175 269.233 375.435 266.755C376.02 265.633 375.885 264.091 376.245 262.829C376.785 261.052 377.685 259.416 378.855 258.013C379.395 257.312 378.45 256.33 377.91 257.032C376.65 258.574 375.66 260.257 375.075 262.221C374.805 263.109 374.58 264.044 374.445 264.979C374.265 266.148 373.95 265.867 373.095 265.306C372.555 264.932 372.06 264.371 371.565 263.904C370.935 263.296 369.99 264.278 370.62 264.885Z" fill="#161616"/>
<path d="M317.88 251.655C330.48 251.515 343.035 250.44 355.455 248.383C356.31 248.242 355.95 246.887 355.095 247.027C342.765 249.037 330.345 250.113 317.88 250.206C317.025 250.253 317.025 251.655 317.88 251.655Z" fill="#161616"/>
<path d="M316.44 232.675C324.585 232.909 332.685 232.628 340.785 231.927C341.64 231.833 341.64 230.431 340.785 230.524C332.685 231.226 324.54 231.459 316.44 231.272C315.585 231.226 315.585 232.628 316.44 232.675Z" fill="#161616"/>
<path d="M318.375 254.414C326.925 254.834 335.475 254.507 343.935 253.385C344.79 253.292 344.79 251.889 343.935 251.982C335.43 253.058 326.88 253.432 318.375 253.011C317.52 252.964 317.52 254.367 318.375 254.414Z" fill="#161616"/>
<path d="M346.815 252.73C349.245 252.777 351.63 252.45 353.97 251.655C354.78 251.375 354.42 250.019 353.61 250.299C351.405 251.047 349.155 251.375 346.815 251.328C345.96 251.328 345.96 252.73 346.815 252.73Z" fill="#161616"/>
<path d="M322.965 271.991C333.225 271.337 343.44 270.355 353.61 268.906C354.465 268.766 354.465 267.363 353.61 267.503C343.44 268.906 333.225 269.934 322.965 270.589C322.065 270.636 322.065 272.038 322.965 271.991Z" fill="#161616"/>
<path d="M324.135 275.264C327.51 275.264 330.885 275.264 334.26 275.264C335.115 275.264 335.115 273.861 334.26 273.861C330.885 273.861 327.51 273.861 324.135 273.861C323.28 273.861 323.28 275.264 324.135 275.264Z" fill="#161616"/>
<path d="M327.06 278.396C332.325 278.069 337.59 277.555 342.855 276.9C347.085 276.339 351.63 276.105 355.275 273.534C355.995 273.02 355.32 271.804 354.6 272.319C350.775 275.03 345.645 275.17 341.19 275.685C336.51 276.246 331.785 276.666 327.105 276.994C326.205 277.04 326.16 278.443 327.06 278.396Z" fill="#161616"/>
<path d="M378.45 240.622C386.64 240.201 394.785 239.079 402.84 237.303C402.57 237.163 402.3 236.976 402.03 236.835C405.81 248.523 411.39 259.416 418.545 269.28C419.04 269.981 420.255 269.28 419.715 268.579C412.65 258.855 407.115 248.055 403.335 236.508C403.2 236.134 402.885 235.947 402.525 236.041C394.605 237.817 386.595 238.892 378.495 239.313C377.55 239.266 377.55 240.669 378.45 240.622Z" fill="#161616"/>
<path d="M379.845 280.079C381.06 281.856 382.05 283.726 382.905 285.736C382.995 286.016 383.4 286.157 383.67 286.063C390.285 283.772 396.81 281.248 403.2 278.396C406.44 276.947 409.635 275.451 412.83 273.861C414.36 273.113 415.89 272.319 417.375 271.524C418.275 271.056 419.31 270.776 419.625 269.747C419.715 269.467 419.58 269.093 419.31 268.953C418.905 268.719 418.68 268.719 418.275 268.953C418.005 269.093 417.87 269.467 417.96 269.747C417.96 269.794 418.005 269.841 418.005 269.888C418.23 270.776 419.535 270.402 419.31 269.514C419.31 269.467 419.265 269.42 419.265 269.373C419.175 269.654 419.04 269.888 418.95 270.168C418.86 270.168 418.725 270.168 418.635 270.168C418.545 269.888 418.41 269.654 418.32 269.373C418.05 270.215 415.215 271.103 414.45 271.524C413.19 272.178 411.93 272.786 410.625 273.441C407.61 274.937 404.55 276.339 401.445 277.695C395.505 280.313 389.43 282.65 383.31 284.754C383.58 284.848 383.805 284.988 384.075 285.081C383.265 283.071 382.23 281.201 381.015 279.425C380.52 278.63 379.35 279.331 379.845 280.079Z" fill="#161616"/>
<path d="M387.675 244.269C387.585 243.661 388.665 243.1 389.07 243.521C389.61 244.082 388.71 245.11 388.08 244.876C387.27 244.549 386.91 245.905 387.72 246.232C389.655 246.98 391.545 244.082 390.06 242.539C389.385 241.838 388.35 241.884 387.54 242.305C386.685 242.773 386.235 243.661 386.415 244.643C386.505 245.531 387.81 245.11 387.675 244.269Z" fill="#161616"/>
<path d="M188.28 206.869C193.275 206.962 198.315 206.728 203.265 206.027C208.44 205.279 213.57 203.736 218.835 203.97C219.69 204.017 219.69 202.614 218.835 202.568C214.02 202.381 209.34 203.643 204.615 204.391C199.215 205.279 193.725 205.606 188.235 205.466C187.425 205.466 187.425 206.869 188.28 206.869Z" fill="#161616"/>
<path d="M189 191.394C196.65 192.002 204.3 191.301 211.725 189.291C212.58 189.057 212.22 187.701 211.365 187.935C204.03 189.898 196.56 190.6 189 189.992C188.145 189.945 188.145 191.348 189 191.394Z" fill="#161616"/>
<path d="M362.16 152.031C361.395 157.173 360.765 162.737 363.87 167.225C364.365 167.973 365.535 167.271 365.04 166.523C362.16 162.363 362.79 157.173 363.465 152.405C363.6 151.517 362.295 151.143 362.16 152.031Z" fill="#161616"/>
<path d="M362.565 151.984C373.275 152.405 383.985 151.33 394.425 148.758C394.155 148.618 393.885 148.431 393.615 148.291C394.56 153.106 396.36 157.594 398.88 161.708C399.33 162.456 400.5 161.755 400.05 161.007C397.575 156.987 395.865 152.592 394.92 147.917C394.83 147.543 394.425 147.356 394.11 147.449C383.805 149.974 373.23 151.049 362.61 150.628C361.71 150.535 361.71 151.937 362.565 151.984Z" fill="#161616"/>
<path d="M364.995 167.178C376.605 166.804 388.08 165.027 399.24 161.848C400.095 161.615 399.735 160.259 398.88 160.493C387.81 163.672 376.47 165.448 364.995 165.775C364.095 165.822 364.095 167.225 364.995 167.178Z" fill="#161616"/>
<path d="M523.665 493.727C523.665 499.009 523.665 504.245 523.665 509.528C487.665 524.348 480.33 529.631 480.87 531.547C481.005 532.015 481.95 533.417 500.85 531.127C519.57 528.836 534.735 525.517 545.265 522.805C543.42 512.006 541.53 501.207 539.685 490.407C534.33 491.529 528.975 492.651 523.665 493.727Z" fill="#161616"/>
<path d="M539.82 270.121C538.785 272.132 538.425 273.768 538.335 274.142C531.9 302.566 523.485 319.349 517.995 352.308C507.51 415.794 516.555 487.93 517.41 494.708C520.29 496.017 525.825 497.981 532.89 497.7C539.1 497.42 543.915 495.503 546.66 494.147C545.625 473.437 546.66 447.865 553.545 419.675C561.96 385.126 572.625 373.673 582.21 333.281C589.32 303.361 597.555 268.532 583.335 258.2C572.445 250.159 546.93 256.05 539.82 270.121Z" fill="#EC615B"/>
<path opacity="0.2" d="M564.705 285.035C557.505 319.162 550.8 355.534 545.13 394.009C539.775 430.194 535.77 464.835 532.8 497.747C537.345 496.766 541.845 495.784 546.39 494.802C545.805 480.263 546.435 467.874 547.335 458.384C548.415 446.603 551.16 419.161 562.185 391.765C563.625 388.259 565.47 384.005 568.485 376.01C573.57 362.78 577.26 351.467 578.925 346.137C586.755 320.705 590.67 291.206 591.885 281.482C582.795 282.604 573.75 283.819 564.705 285.035Z" fill="#6D6C6C"/>
<path opacity="0.19" d="M579.555 344.454C561.915 368.343 553.68 389.988 549.54 404.528C545.76 417.758 544.095 429.446 541.935 444.593C538.875 466.098 537.705 484.237 537.21 497.14C540.18 496.392 543.105 495.597 546.075 494.849C545.58 476.757 546.795 461.282 548.28 449.221C550.08 434.915 552.15 418.319 559.35 398.357C561.96 391.11 563.22 389.054 569.16 373.392C573.75 361.144 577.26 351.092 579.555 344.454Z" fill="#6D6C6C"/>
<path d="M620.865 488.35C623.385 494.849 625.951 501.347 628.471 507.892C607.32 521.87 597.331 530.005 598.456 532.389C599.851 535.334 618.12 529.49 653.266 514.951C649.531 502.329 645.796 489.753 642.061 477.13C634.996 480.87 627.93 484.61 620.865 488.35Z" fill="#161616"/>
<path d="M603.495 270.682C614.52 281.154 614.16 295.834 615.555 320.144C615.555 320.144 618.975 379.937 630.45 427.996C633.33 440.011 638.55 458.664 648.225 481.011C646.605 483.161 642.195 488.397 634.455 491.156C626.535 493.961 619.785 492.465 617.265 491.763C603.495 467.36 593.73 446.556 587.43 432.157C558.225 365.679 555.885 330.663 555.885 312.383C555.885 293.59 556.2 271.056 569.655 263.53C579.78 257.873 594.63 262.267 603.495 270.682Z" fill="#EC615B"/>
<path opacity="0.15" d="M572.265 277.835C577.26 297.797 582.66 318.087 588.42 338.657C603.45 392.045 619.785 442.489 636.93 489.8C638.595 488.911 640.62 487.696 642.69 486.06C644.805 484.377 646.47 482.694 647.73 481.198C645.39 475.541 642.15 467.36 638.73 457.308C633.555 441.928 625.14 413.644 620.775 375.963C616.59 339.779 614.475 321.687 614.655 310.28C614.79 300.883 615.6 281.762 603.9 271.477C601.47 269.373 599.085 268.111 597.42 267.363C589.005 270.869 580.635 274.376 572.265 277.835Z" fill="#6D6C6C"/>
<path opacity="0.22" d="M615.195 322.435C613.125 344.173 612.45 373.299 617.49 406.959C622.575 440.806 631.8 468.435 640.125 488.537C642.69 486.34 645.255 484.143 647.82 481.899C644.76 474.372 640.755 463.9 636.75 451.091C629.055 426.453 625.725 407.239 622.845 389.988C619.92 372.317 616.86 349.456 615.195 322.435Z" fill="#6D6C6C"/>
<path d="M404.505 99.9048C402.705 100.84 400.23 102.476 398.295 105.281C397.26 106.73 396 108.647 395.82 111.359C395.775 112.434 395.64 114.771 397.08 116.314C397.485 116.782 398.565 117.67 403.875 117.483C408.6 117.296 410.985 117.202 412.2 115.893C414.54 113.369 413.685 108.6 412.2 105.749C409.86 101.214 405.27 100.092 404.505 99.9048Z" fill="white" stroke="#161616" stroke-width="2" stroke-miterlimit="10"/>
<path d="M431.685 111.639C438.03 119.166 448.2 123.654 466.875 131.648C490.41 141.746 502.2 146.795 516.15 148.572C531.225 150.488 539.28 148.478 542.07 153.574C545.715 160.166 537.165 172.508 528.345 182.839C521.775 181.343 514.98 179.473 507.96 177.042C469.485 163.812 441.675 140.531 423.405 121.176C421.11 121.69 417.195 122.205 412.74 120.802C408.915 119.633 403.515 116.641 403.83 114.257C404.235 111.359 414 110.844 414.585 110.798C411.615 109.535 407.34 107.385 402.705 103.879C401.355 102.85 393.615 96.9128 394.56 95.0428C395.37 93.4065 402.39 95.6505 409.005 97.7543C415.035 99.671 419.22 101.027 423.81 104.299C428.22 107.385 430.785 110.564 431.685 111.639Z" fill="white" stroke="#161616" stroke-width="2" stroke-miterlimit="10"/>
<path d="M400.545 100.419C401.625 101.681 401.85 103.364 402.795 104.673C403.605 105.842 404.775 106.684 405.99 107.385C409.635 109.489 413.505 111.218 417.24 113.135C417.87 113.462 418.68 112.574 418.05 112.013C416.115 110.283 414.045 108.741 411.885 107.338C411.165 106.871 410.445 108.086 411.21 108.554C413.28 109.909 415.26 111.359 417.105 112.995C417.375 112.621 417.645 112.247 417.915 111.873C414.36 110.096 410.805 108.367 407.295 106.45C405.63 105.562 404.145 104.533 403.29 102.757C402.705 101.541 402.39 100.372 401.49 99.3438C400.905 98.7828 399.96 99.7645 400.545 100.419Z" fill="white"/>
<path d="M404.055 105.328C406.125 106.263 408.105 107.478 409.905 108.928C410.58 109.489 411.525 108.507 410.85 107.946C408.96 106.403 406.935 105.141 404.73 104.112C403.92 103.738 403.245 104.954 404.055 105.328Z" fill="white"/>
<path d="M398.745 99.5776C400.455 102.429 402.705 104.767 405.36 106.637C406.08 107.151 406.755 105.936 406.035 105.421C403.56 103.692 401.49 101.494 399.915 98.8296C399.465 98.1283 398.295 98.8296 398.745 99.5776Z" fill="white"/>
<path d="M400.77 103.411C401.67 104.673 402.66 105.842 403.785 106.871C404.595 107.619 408.15 110.283 406.305 111.639C405.945 111.873 406.305 112.481 406.665 112.247C407.925 111.359 407.43 109.769 406.665 108.694C406.08 107.899 405.27 107.291 404.505 106.59C403.335 105.515 402.3 104.346 401.355 103.084C401.085 102.663 400.5 103.037 400.77 103.411Z" fill="#161616"/>
<path d="M399.825 108.273C401.175 110.19 403.74 112.901 406.26 112.107C406.665 111.966 406.485 111.312 406.08 111.452C403.92 112.153 401.535 109.582 400.41 107.946C400.14 107.572 399.555 107.899 399.825 108.273Z" fill="#161616"/>
<path d="M397.845 111.546C399.33 113.649 401.49 114.865 404.01 115.005C404.46 115.052 404.46 114.351 404.01 114.304C401.76 114.164 399.78 113.042 398.43 111.172C398.16 110.798 397.575 111.172 397.845 111.546Z" fill="#161616"/>
<path d="M396.405 115.753C398.52 118.044 402.03 118.091 404.145 115.753C404.46 115.426 403.965 114.912 403.65 115.239C401.805 117.296 398.745 117.249 396.9 115.239C396.585 114.912 396.09 115.426 396.405 115.753Z" fill="#161616"/>
<path d="M396.855 99.484C401.85 102.897 405.45 108.647 411.705 109.769C412.11 109.862 412.335 109.161 411.885 109.114C405.72 108.039 402.12 102.289 397.215 98.923C396.81 98.5957 396.495 99.2035 396.855 99.484Z" fill="#161616"/>
<path opacity="0.2" d="M396.315 114.771C394.695 112.48 396.045 107.572 399.96 102.943C404.37 105.608 408.735 108.32 413.145 110.984C412.335 110.984 405.225 111.078 404.73 113.369C404.64 113.743 404.73 114.304 405.405 115.098C407.655 116.22 411.435 117.716 416.295 117.857C418.815 117.903 421.02 117.576 422.73 117.155C431.91 126.786 448.065 141.325 471.825 151.891C492.705 161.147 511.425 163.812 523.8 164.56C523.395 170.076 522.99 175.546 522.585 181.063C502.2 175.453 474.57 164.794 447.12 143.382C437.76 136.089 429.75 128.562 422.91 121.316C416.61 122.391 412.695 121.269 410.22 119.96C408.105 118.838 406.755 117.436 403.965 117.202C402.12 117.062 400.545 117.529 398.52 116.501C398.295 116.407 396.99 115.706 396.315 114.771Z" fill="#6D6C6C"/>
<path opacity="0.14" d="M454.275 147.777C460.575 151.283 467.865 154.836 476.19 157.875C494.325 164.56 510.75 166.664 523.305 167.131C523.125 171.9 522.99 176.715 522.81 181.484C509.76 178.305 493.38 172.741 476.01 162.643C467.685 157.828 460.485 152.732 454.275 147.777Z" fill="#6D6C6C"/>
<path d="M525.42 161.101C522.855 167.131 522.72 172.134 522.495 181.11C522.315 187.888 522.765 195.181 526.275 214.349C530.55 237.537 532.575 241.277 533.25 253.572C533.79 263.203 533.07 271.103 532.395 276.339C538.065 279.565 547.56 283.96 559.98 284.941C581.94 286.671 598.185 276.62 603.765 272.786C604.44 258.107 605.115 243.381 605.835 228.701C603.36 216.172 600.435 206.355 598.32 199.903C591.66 179.567 585.45 169.936 589.41 159.745C591.615 154.088 595.98 150.629 598.995 148.712C596.88 147.029 574.695 129.965 550.485 138.801C547.965 139.689 532.035 145.533 525.42 161.101Z" fill="white" stroke="#161616" stroke-width="2" stroke-miterlimit="10"/>
<path opacity="0.19" d="M550.395 138.754C557.145 149.974 560.925 159.885 563.085 166.804C563.085 166.804 573.66 200.183 565.92 244.97C564.255 254.507 561.285 268.064 555.435 283.585C557.685 284.1 560.385 284.52 563.445 284.661C563.445 284.661 568.17 284.894 573.48 284.193C579.96 283.305 591.075 279.705 604.17 272.786C604.395 257.125 604.62 241.51 604.845 225.849C601.515 212.619 598.14 202.007 595.62 194.574C589.545 176.855 585.27 168.534 588.78 159.745C591.075 153.995 595.755 150.442 599.4 148.385C594.63 145.112 585.81 140.016 573.75 138.053C563.805 136.463 555.615 137.585 550.395 138.754Z" fill="#6D6C6C"/>
<path opacity="0.11" d="M556.56 137.679C563.805 146.935 572.265 160.446 577.485 178.258C592.29 229.122 567.945 273.721 562.32 283.492C567.045 283.445 572.58 283.025 578.61 281.809C589.365 279.659 597.96 275.825 604.125 272.412C604.35 257.826 604.575 243.24 604.8 228.701C600.975 215.19 597.375 202.381 592.47 184.99C589.14 173.069 586.53 163.298 591.435 155.491C593.82 151.704 597.15 149.6 599.67 148.385C585.315 144.785 570.915 141.232 556.56 137.679Z" fill="#6D6C6C"/>
<path d="M553.23 233.189C553.095 223.184 553.005 213.227 552.87 203.222C575.955 202.007 599.04 200.791 622.17 199.576C622.98 208.832 623.79 218.089 624.645 227.345C600.84 229.309 577.035 231.225 553.23 233.189Z" fill="white" stroke="#161616" stroke-width="2" stroke-miterlimit="10"/>
<path d="M546.21 229.916C546.21 226.27 546.21 222.623 546.21 218.977C575.865 216.686 605.52 214.349 635.175 212.058C635.4 216.546 635.625 221.081 635.895 225.569C606.015 226.971 576.09 228.467 546.21 229.916Z" fill="white" stroke="#161616" stroke-width="2" stroke-miterlimit="10"/>
<path d="M548.685 213.46C549.045 218.837 549.405 224.166 549.72 229.542C577.17 227.252 604.575 224.914 632.025 222.623C632.25 217.761 632.475 212.899 632.745 207.991C604.71 209.814 576.675 211.637 548.685 213.46Z" fill="white" stroke="#161616" stroke-width="2" stroke-miterlimit="10"/>
<path d="M541.98 225.522C542.79 246.84 543.6 268.158 544.455 289.476C575.055 285.923 605.655 282.417 636.255 278.864C637.2 257.92 638.145 236.976 639.09 216.032C606.69 219.211 574.335 222.343 541.98 225.522Z" fill="white" stroke="#161616" stroke-width="2" stroke-miterlimit="10"/>
<path d="M547.2 233.843C561.105 231.927 575.01 230.571 589.005 229.729C589.635 229.683 589.635 228.654 589.005 228.654C575.01 229.496 561.06 230.851 547.2 232.768C546.57 232.862 546.57 233.937 547.2 233.843Z" fill="#161616"/>
<path d="M562.725 236.695C573.39 235.293 584.055 233.843 594.765 232.441C595.395 232.347 595.395 231.319 594.765 231.366C584.1 232.768 573.435 234.217 562.725 235.62C562.095 235.76 562.095 236.789 562.725 236.695Z" fill="#161616"/>
<path d="M613.98 266.615C613.8 269.56 613.8 272.552 614.07 275.498C614.115 276.152 615.15 276.152 615.105 275.498C614.835 272.552 614.79 269.56 615.015 266.615C615.06 265.961 614.025 265.961 613.98 266.615Z" fill="#161616"/>
<path d="M614.43 266.709C620.01 266.849 625.545 266.522 631.08 265.774C630.9 265.587 630.72 265.4 630.585 265.259C630.495 267.971 630.585 270.636 630.765 273.3C630.81 273.955 631.845 273.955 631.8 273.3C631.575 270.636 631.53 267.924 631.62 265.259C631.62 264.979 631.395 264.698 631.125 264.745C625.59 265.493 620.055 265.774 614.475 265.68C613.755 265.633 613.755 266.662 614.43 266.709Z" fill="#161616"/>
<path d="M614.835 276.339C620.37 276.433 625.815 275.825 631.215 274.563C631.845 274.422 631.575 273.394 630.945 273.534C625.635 274.75 620.28 275.357 614.835 275.264C614.205 275.264 614.205 276.292 614.835 276.339Z" fill="#161616"/>
<path d="M616.95 269.981C620.37 270.215 623.745 270.028 627.165 269.467C627.795 269.373 627.525 268.345 626.895 268.438C623.61 268.999 620.28 269.14 616.95 268.906C616.32 268.859 616.32 269.934 616.95 269.981Z" fill="#161616"/>
<path d="M619.11 272.926C622.665 272.833 626.085 272.132 629.46 270.869C630.045 270.636 629.82 269.607 629.19 269.841C625.95 271.103 622.575 271.758 619.11 271.898C618.48 271.851 618.435 272.926 619.11 272.926Z" fill="#161616"/>
<path opacity="0.2" d="M556.515 287.045C557.325 267.316 558.135 247.588 558.9 227.813C585.18 225.615 611.505 223.465 637.785 221.268C637.2 239.968 636.57 258.668 635.985 277.368C609.48 280.593 583.02 283.819 556.515 287.045Z" fill="#6D6C6C"/>
<path opacity="0.2" d="M627.885 208.505C628.02 213.928 627.75 220.379 626.4 227.532C623.07 245.11 615.06 257.779 609.615 264.932C613.305 270.028 616.995 275.124 620.73 280.219C609.435 281.575 598.14 282.931 586.845 284.287C588.645 262.875 590.445 241.464 592.245 220.099C591.66 217.294 591.03 214.489 590.445 211.684C602.91 210.562 615.42 209.533 627.885 208.505Z" fill="#6D6C6C"/>
<path d="M596.565 147.45C605.97 146.141 617.175 168.581 621.63 184.709C626.76 203.269 624.51 219.304 622.665 227.766C619.065 244.362 611.595 256.05 606.915 262.361C607.635 264.839 609.3 271.571 606.555 278.957C602.505 289.757 591.525 294.946 590.67 293.964C590.4 293.637 590.94 292.281 595.215 287.185C594.315 288.167 587.835 294.852 580.545 293.263C579.285 292.982 577.71 292.655 576.81 291.346C574.695 288.167 578.205 280.968 585.675 272.973C577.53 275.077 575.37 274.516 574.965 273.581C573.93 271.337 582.255 264.979 585.27 262.642C589.725 259.229 593.73 256.891 596.475 255.442C604.17 238.846 603.765 225.896 603.09 219.819C602.1 210.843 598.86 201.072 598.23 199.202C596.43 193.826 595.575 192.61 591.975 182.933C586.17 167.412 586.17 164.747 586.395 162.69C587.205 156.519 591.21 148.198 596.565 147.45Z" fill="white" stroke="#161616" stroke-width="2" stroke-miterlimit="10"/>
<path d="M576.99 290.037C581.985 287.092 586.35 283.305 589.995 278.724C590.535 278.022 589.59 277.04 589.05 277.742C585.495 282.23 581.22 285.97 576.315 288.868C575.55 289.242 576.225 290.458 576.99 290.037Z" fill="#161616"/>
<path d="M581.4 293.169C586.35 290.504 590.58 286.811 594 282.23C594.54 281.529 593.37 280.827 592.83 281.529C589.59 285.923 585.45 289.429 580.725 291.954C579.96 292.374 580.635 293.59 581.4 293.169Z" fill="#161616"/>
<path opacity="0.17" d="M592.785 149.694C583.83 157.781 620.37 193.265 614.115 233.563C609.84 261.192 592.11 279.238 592.11 279.238C587.16 284.38 577.845 290.692 578.97 292.889C579.78 294.478 585.405 293.029 587.43 292.375C591.255 291.159 593.91 289.102 595.395 287.746C593.145 290.364 590.58 293.59 591.12 294.245C591.885 295.086 598.275 291.627 602.28 286.765C609.21 278.35 608.22 266.662 607.545 261.894C609.165 259.696 611.28 256.611 613.44 252.684C615.42 249.178 621.135 238.238 623.61 223.372C627.975 197.051 619.02 176.294 615.42 168.16C612.18 160.914 606.69 148.899 598.365 148.385C597.285 148.244 594.54 148.104 592.785 149.694Z" fill="#6D6C6C"/>
<path opacity="0.22" d="M623.115 222.624C620.685 229.963 617.805 237.677 614.385 245.765C611.955 251.515 609.48 256.891 606.96 261.987C605.7 266.195 603.315 272.506 598.59 279.004C593.64 285.83 588.195 289.99 584.55 292.375C585.585 292.421 586.845 292.328 588.24 291.954C591.75 291.112 594.09 289.102 595.26 287.887C593.91 289.663 592.515 291.393 591.165 293.169C592.245 292.982 593.955 292.655 595.845 291.767C605.745 287.139 607.815 274.563 607.95 273.721C608.31 271.431 608.535 267.504 607.185 262.642C610.425 258.668 614.52 252.731 617.805 244.736C621.45 235.947 622.665 228.047 623.115 222.624Z" fill="#6D6C6C"/>
<path d="M515.07 116.688C507.825 125.29 512.82 137.305 513.495 138.941C516.015 145.018 522.54 153.667 530.82 152.966C536.85 152.405 540.675 147.122 541.62 145.72C548.28 135.762 546.075 116.735 534.825 111.826C528.615 109.114 520.065 110.704 515.07 116.688Z" fill="#5222D0"/>
<path d="M533.34 124.355C533.655 128.048 537.39 128.843 539.91 134.92C541.71 139.315 541.71 143.616 541.395 146.701C544.32 146.982 549.72 147.122 555.84 144.691C560.655 142.774 564.03 140.016 566.055 138.099C565.11 135.902 563.715 132.676 562.05 128.843C554.85 112.527 553.68 111.125 551.925 110.423C544.905 107.665 532.755 117.483 533.34 124.355Z" fill="white" stroke="#161616" stroke-width="2" stroke-miterlimit="10"/>
<path d="M507.42 76.0622C505.89 78.3062 504.945 81.0644 504.81 92.8922C504.72 102.99 505.26 112.2 506.16 120.381C508.185 119.166 510.21 117.95 512.235 116.735C513.135 119.025 514.665 122.158 517.275 125.196C522.45 131.227 528.75 133.284 531.54 134.032C534.465 133.284 541.755 130.947 547.29 123.794C550.935 119.025 552.105 114.304 552.375 113.228C554.04 106.169 552.42 100.325 551.565 97.8944C552.645 97.3802 554.31 96.3984 555.57 94.6219C558.225 90.8819 558.945 84.1967 555.66 81.9527C553.23 80.2697 548.91 81.2514 545.67 84.7109C544.95 82.9812 543.825 80.5969 542.025 78.1192C541.575 77.5114 538.2 72.9299 534.06 70.5457C526.095 65.7772 512.91 68.0212 507.42 76.0622Z" fill="white" stroke="#161616" stroke-width="2" stroke-miterlimit="10"/>
<path d="M504.135 90.7417C502.335 90.4144 499.005 89.4327 497.43 86.5809C494.73 81.7657 498.69 74.4259 499.68 72.6027C500.49 71.0599 502.65 67.3667 511.83 60.6814C518.805 55.5857 522.315 53.0612 526.095 51.8457C539.505 47.6849 551.79 54.8844 554.085 56.2402C558.9 59.0919 561.96 62.1774 564.39 64.6084C568.125 68.3484 572.31 72.6494 576.99 77.6049C589.005 93.7804 593.235 108.553 594.945 117.389C596.88 127.394 598.86 137.585 593.1 143.569C587.34 149.553 576.81 148.338 570.375 145.486C561.42 141.512 557.595 133.097 554.625 126.599C549.585 115.472 549.27 104.813 549.765 97.8944C554.265 96.5387 556.56 92.1442 555.525 88.8249C554.715 86.2069 551.7 83.5889 548.595 84.5239C546.21 85.2252 544.5 87.7964 544.635 90.7884C542.475 90.7417 536.715 90.2274 531.225 85.9264C527.22 82.7942 525.195 79.0542 524.25 76.9972C521.775 77.3244 516.825 78.2594 511.83 81.9994C507.645 84.9914 505.305 88.5912 504.135 90.7417Z" fill="#5222D0"/>
<path opacity="0.24" d="M533.925 99.671C539.325 106.45 541.035 113.602 541.035 113.602C542.79 121.643 540.27 128.469 539.145 131.227C541.98 128.983 544.86 126.739 547.695 124.495C549.675 131.321 551.61 138.099 553.59 144.925C555.075 144.785 558.135 144.224 561.195 141.98C563.535 140.25 564.93 138.24 565.695 136.977C562.05 133.471 555.075 125.711 551.88 113.509C550.35 107.618 550.125 102.382 550.305 98.4555C554.4 96.7257 556.515 92.565 555.66 89.1055C555.03 86.581 552.555 83.5422 549.36 84.0097C546.705 84.4305 544.5 87.142 544.545 90.4612C542.52 90.4612 537.75 90.2275 532.755 87.0952C527.58 83.8695 525.105 79.3815 524.16 77.4647C524.385 86.4407 527.04 91.63 529.425 94.7155C531 96.8192 531.72 96.9127 533.925 99.671Z" fill="#6D6C6C"/>
<path d="M513 97.7075C512.505 99.5775 512.55 101.494 513.225 103.317C513.45 103.972 514.305 104.019 514.53 103.317C515.07 101.634 515.07 99.858 514.575 98.175C514.305 97.3335 513 97.6607 513.27 98.549C513.72 100.045 513.675 101.494 513.225 102.99C513.675 102.99 514.08 102.99 514.53 102.99C513.945 101.401 513.855 99.7645 514.305 98.1282C514.53 97.1932 513.27 96.8192 513 97.7075Z" fill="#161616"/>
<path d="M511.38 94.809C512.55 94.061 513.99 94.2012 514.98 95.183C515.61 95.7907 516.555 94.809 515.925 94.2012C514.53 92.7987 512.37 92.5182 510.705 93.5934C509.985 94.0609 510.66 95.2765 511.38 94.809Z" fill="#161616"/>
<path d="M516.24 106.684C517.095 106.684 517.095 105.281 516.24 105.281C515.34 105.281 515.34 106.684 516.24 106.684Z" fill="#161616"/>
<path d="M519.21 102.616C519.21 102.663 519.21 102.71 519.21 102.756C519.21 103.13 519.525 103.458 519.885 103.458C520.245 103.458 520.56 103.13 520.56 102.756C520.56 102.71 520.56 102.663 520.56 102.616C520.56 102.242 520.245 101.915 519.885 101.915C519.525 101.915 519.21 102.195 519.21 102.616Z" fill="#161616"/>
<path d="M519.345 106.122C520.2 106.122 520.2 104.72 519.345 104.72C518.49 104.72 518.49 106.122 519.345 106.122Z" fill="#161616"/>
<path d="M500.805 99.858C500.265 101.728 500.309 103.645 500.939 105.468C501.164 106.122 502.02 106.122 502.245 105.468C502.785 103.785 502.83 102.008 502.38 100.325C502.155 99.4372 500.85 99.8112 501.075 100.699C501.48 102.195 501.434 103.645 500.939 105.094C501.389 105.094 501.795 105.094 502.245 105.094C501.705 103.504 501.615 101.868 502.11 100.232C502.335 99.3437 501.03 98.9697 500.805 99.858Z" fill="#161616"/>
<path d="M500.04 96.3517C500.985 95.8374 502.29 96.0712 502.92 97.0061C503.415 97.7074 504.585 97.0061 504.09 96.3049C502.965 94.7622 501.03 94.2479 499.365 95.1362C498.6 95.5569 499.275 96.7724 500.04 96.3517Z" fill="#161616"/>
<path d="M515.205 121.784C518.67 121.129 521.685 119.212 523.935 116.361C524.34 115.846 523.62 115.098 523.215 115.613C521.1 118.324 518.265 120.101 514.935 120.755C514.305 120.895 514.575 121.924 515.205 121.784Z" fill="#161616"/>
<path d="M522.225 115.706C523.035 115.987 523.71 116.407 524.295 117.015C524.745 117.483 525.465 116.735 525.015 116.267C524.295 115.519 523.44 115.005 522.495 114.678C521.865 114.491 521.595 115.519 522.225 115.706Z" fill="#161616"/>
<path opacity="0.45" d="M550.26 54.5571C555.975 62.7851 563.31 74.4259 570.285 89.2924C577.665 105 583.065 116.828 578.88 121.503C573.345 127.721 554.22 117.857 551.16 116.22C551.79 120.475 553.365 127.253 558 134.032C560.34 137.445 564.435 143.476 571.995 146.281C576.54 147.964 580.59 147.87 582.165 147.73C584.28 147.59 586.71 147.403 589.365 145.907C589.365 145.907 592.83 143.99 595.17 140.063C598.725 134.079 596.835 125.991 594.315 115.846C591.3 103.691 587.25 95.6036 583.29 87.6094C582.3 85.6459 581.13 83.3551 579.24 80.6904C577.35 77.9789 575.955 76.5296 570.105 70.6859C561.42 61.9436 560.07 60.6814 557.46 58.8581C554.58 56.8011 552.015 55.4454 550.26 54.5571Z" fill="#371B9B"/>
<path opacity="0.43" d="M539.415 134.079C539.775 135.154 540.585 138.193 539.415 141.559C537.66 146.561 532.8 148.244 532.035 148.478C526.5 150.348 519.525 147.403 514.845 140.998C515.475 142.681 516.87 145.673 519.75 148.291C521.19 149.6 525.105 153.106 530.64 152.685C531.585 152.592 537.66 152.124 540.45 146.655C542.475 142.774 542.025 137.912 539.415 134.079Z" fill="#371B9B"/>
</svg>
