<svg width="25" height="25" viewBox="0 0 25 25" fill="none" xmlns="http://www.w3.org/2000/svg">
<path d="M16.3854 3.125H8.61458L3.125 8.61458V16.3854L8.61458 21.875H16.3854L21.875 16.3854V8.61458L16.3854 3.125ZM19.7917 15.5208L15.5208 19.7917H9.47917L5.20833 15.5208V9.47917L9.47917 5.20833H15.5208L19.7917 9.47917V15.5208Z" fill="#231F20"/>
<path d="M12.5002 17.7083C13.0755 17.7083 13.5418 17.242 13.5418 16.6667C13.5418 16.0914 13.0755 15.625 12.5002 15.625C11.9249 15.625 11.4585 16.0914 11.4585 16.6667C11.4585 17.242 11.9249 17.7083 12.5002 17.7083Z" fill="#231F20"/>
<path d="M11.4585 7.29167H13.5418V14.5833H11.4585V7.29167Z" fill="#231F20"/>
</svg>
