<svg width="28" height="28" viewBox="0 0 39 38" fill="none" xmlns="http://www.w3.org/2000/svg">
<path d="M25.2116 22.1667H23.9608L23.5175 21.7392C25.0691 19.9342 26.0033 17.5908 26.0033 15.0417C26.0033 9.3575 21.3958 4.75 15.7116 4.75C10.0275 4.75 5.41998 9.3575 5.41998 15.0417C5.41998 20.7258 10.0275 25.3333 15.7116 25.3333C18.2608 25.3333 20.6041 24.3992 22.4091 22.8475L22.8366 23.2908V24.5417L30.7533 32.4425L33.1125 30.0833L25.2116 22.1667ZM15.7116 22.1667C11.7691 22.1667 8.58665 18.9842 8.58665 15.0417C8.58665 11.0992 11.7691 7.91667 15.7116 7.91667C19.6541 7.91667 22.8366 11.0992 22.8366 15.0417C22.8366 18.9842 19.6541 22.1667 15.7116 22.1667Z" fill="black"/>
</svg>
