<svg width="798" height="618" viewBox="0 0 798 618" fill="none" xmlns="http://www.w3.org/2000/svg">
<path d="M112.269 209.399C121.146 201.932 133.166 200.85 144.139 202.91C155.859 205.073 166.533 210.893 177.355 215.785C188.527 220.884 199.899 224.54 212.168 225.158C224.388 225.828 236.607 224.025 248.477 220.935C273.265 214.498 296.008 202.138 319.798 192.816C331.719 188.13 344.038 184.061 356.706 182.207C363.589 181.177 370.521 180.92 377.454 181.692C384.038 182.413 390.471 184.01 396.905 185.658C411.12 189.314 425.284 192.507 439.848 194.31C454.86 196.164 470.022 196.782 485.134 196.267C486.082 196.215 486.082 194.67 485.134 194.722C457.703 195.752 430.272 192.713 403.638 185.864C390.92 182.568 378.302 179.169 365.085 179.838C352.267 180.508 339.599 184.01 327.529 188.284C303.34 196.885 280.597 209.502 256.058 217.176C243.589 221.038 230.672 223.716 217.605 223.768C204.338 223.819 191.869 220.626 179.749 215.167C167.779 209.811 156.059 203.168 143.041 201.108C131.969 199.357 120.149 200.747 111.221 208.266C110.473 208.936 111.52 210.069 112.269 209.399Z" fill="#E8E8E8"/>
<path d="M380.895 162.328C415.459 177.727 454.71 175.152 490.072 163.976C509.224 157.899 528.276 149.762 548.675 149.813C569.223 149.865 588.725 157.281 608.824 160.577C627.078 163.564 647.178 163.204 662.839 151.874C663.637 151.307 662.889 149.968 662.091 150.534C647.627 160.989 629.273 161.916 612.315 159.547C593.113 156.869 574.66 149.968 555.258 148.526C535.857 147.084 517.553 153.109 499.349 159.29C481.194 165.418 462.84 170.208 443.738 171.341C422.591 172.628 401.195 169.693 381.693 160.989C380.796 160.577 380.048 161.916 380.895 162.328Z" fill="#E8E8E8"/>
<path d="M93.2164 290.718C104.139 282.684 117.057 277.74 130.423 276.401C137.106 275.731 143.839 275.989 150.423 277.173C157.256 278.409 163.839 280.778 170.373 283.147C182.493 287.473 194.512 290.769 207.28 287.731C218.303 285.104 228.278 279.182 238.053 273.568C249.574 266.925 261.544 260.127 274.911 258.891C275.859 258.788 275.859 257.243 274.911 257.346C251.071 259.56 233.166 278.049 210.921 285.104C205.285 286.907 199.4 287.834 193.515 287.473C186.283 287.01 179.251 284.692 172.468 282.272C165.635 279.851 158.802 277.225 151.62 275.834C145.435 274.65 139.101 274.289 132.867 274.701C118.403 275.628 104.289 280.727 92.4682 289.43C91.6702 289.945 92.4184 291.284 93.2164 290.718Z" fill="#E8E8E8"/>
<path d="M225.435 310.493C244.836 289.327 273.365 280.675 300.946 280.417C316.956 280.263 332.916 282.632 348.526 286.082C363.389 289.327 377.803 293.55 393.165 291.438C409.224 289.224 424.237 282.117 438.601 274.649C439.449 274.186 438.7 272.847 437.853 273.31C424.187 280.417 409.972 287.164 394.761 289.636C386.98 290.872 379.15 290.769 371.369 289.481C363.489 288.194 355.808 286.031 347.978 284.331C319.449 278.151 289.075 275.525 261.046 285.567C247.23 290.511 234.462 298.391 224.388 309.36C223.739 310.133 224.787 311.214 225.435 310.493Z" fill="#E8E8E8"/>
<path d="M456.606 325.892C464.735 328.828 473.064 326.098 480.496 322.442C488.825 318.322 496.655 313.223 505.184 309.567C513.712 305.91 522.889 303.438 532.166 304.623C540.645 305.704 548.475 309.618 555.907 313.79C562.939 317.755 569.872 322.081 577.353 325.12C585.682 328.467 594.66 330.064 603.587 329.858C621.891 329.446 637.452 320.021 654.16 313.635C669.771 307.661 690.569 304.983 703.088 318.991C703.736 319.712 704.784 318.631 704.135 317.91C694.31 306.94 678.649 305.704 665.183 308.64C647.627 312.451 632.465 323.523 614.809 327.077C605.383 328.982 595.507 328.725 586.181 326.407C577.503 324.244 569.722 320.021 561.942 315.541C554.909 311.472 547.777 307.249 540.047 304.829C532.017 302.305 523.638 302.254 515.508 304.314C505.583 306.837 496.456 311.833 487.528 316.88C478.301 322.03 467.628 328.313 456.905 324.45C456.107 324.09 455.708 325.583 456.606 325.892Z" fill="#E8E8E8"/>
<path d="M587.927 350.715C608.575 352.003 625.582 337.531 645.083 333.154C650.27 331.969 655.757 331.454 661.043 332.381C665.781 333.205 670.071 335.214 674.16 337.789C681.193 342.218 688.026 347.934 696.604 348.552C707.028 349.273 716.255 342.578 724.035 336.295C724.783 335.677 723.736 334.596 722.988 335.214C715.407 341.291 706.33 347.934 696.155 346.956C687.327 346.132 680.345 339.54 672.913 335.265C655.806 325.377 637.502 333.154 621.093 340.621C610.57 345.359 599.647 349.943 587.976 349.222C586.979 349.119 586.979 350.664 587.927 350.715Z" fill="#E8E8E8"/>
<path d="M117.156 449.183C124.388 442.076 135.111 439.295 144.737 442.024C154.812 444.857 161.296 453.818 169.376 459.998C185.485 472.306 207.43 470.349 225.136 463.088C246.033 454.539 263.44 439.089 284.288 430.385C294.462 426.111 305.484 423.381 316.557 424.154C327.33 424.926 336.507 429.716 345.035 436.205C353.514 442.642 361.494 450.264 371.419 454.333C382.043 458.659 394.013 457.732 403.988 452.015C404.835 451.552 404.087 450.213 403.239 450.676C393.065 456.496 380.895 457.011 370.272 452.17C361.394 448.101 354.113 441.303 346.382 435.329C338.452 429.201 330.023 424.411 320.048 422.969C309.774 421.527 299.3 423.33 289.574 426.677C268.278 434.042 250.722 449.234 230.522 458.968C211.869 467.98 187.879 472.203 170.174 458.659C161.346 451.912 154.413 442.282 143.042 440.016C133.416 438.11 123.191 441.097 116.109 448.101C115.411 448.771 116.458 449.904 117.156 449.183Z" fill="#E8E8E8"/>
<path d="M308.776 477.92C317.006 472.41 326.781 469.783 336.606 470.607C345.584 471.38 354.063 474.83 362.292 478.281C370.272 481.628 378.352 485.13 386.93 486.572C395.908 488.066 404.985 486.933 413.613 484.203C423.938 480.907 433.514 475.654 442.94 470.35C443.788 469.886 443.04 468.547 442.192 469.011C424.935 478.641 405.983 488.787 385.733 484.77C368.826 481.422 353.963 470.607 336.557 469.062C326.482 468.187 316.407 470.916 307.978 476.581C307.23 477.148 307.978 478.487 308.776 477.92Z" fill="#E8E8E8"/>
<path d="M497.054 512.837C507.927 502.331 521.293 494.761 535.707 490.898C543.039 488.941 550.57 487.963 558.151 488.014C566.58 488.117 574.959 489.508 583.338 490.332C599.597 491.928 615.208 489.096 630.42 482.967C644.934 477.148 658.599 467.054 674.21 464.582C692.465 461.698 706.579 474.212 718.2 487.036C718.848 487.757 719.896 486.675 719.247 485.954C709.671 475.397 698.4 464.479 683.836 462.779C667.876 460.925 653.362 470.607 639.497 477.251C623.537 484.924 606.33 490.177 588.625 489.147C579.797 488.632 571.069 486.984 562.191 486.521C554.66 486.109 547.079 486.675 539.697 488.272C523.388 491.722 508.176 499.859 496.007 511.653C495.309 512.425 496.356 513.507 497.054 512.837Z" fill="#E8E8E8"/>
<path d="M205.036 187.409C219.001 198.584 237.205 193.64 252.417 188.49C271.27 182.053 290.372 177.984 310.322 177.572C311.27 177.572 311.27 176.027 310.322 176.027C291.968 176.388 273.864 179.632 256.407 185.503C240.597 190.808 220.946 198.275 206.083 186.327C205.335 185.709 204.288 186.791 205.036 187.409Z" fill="#161616"/>
<path d="M339.499 93.7816C356.357 92.4941 372.616 87.6531 388.925 83.5846C405.883 79.3101 422.89 76.4776 440.396 78.4346C458.052 80.3916 475.159 85.902 492.466 89.816C509.124 93.627 526.032 95.378 543.089 94.5025C562.291 93.524 581.243 89.3525 599.148 82.2455C600.046 81.885 599.647 80.3916 598.749 80.7521C566.181 93.6786 530.62 96.408 496.506 89.095C479.498 85.4385 462.84 80.0825 445.633 77.5075C429.025 75.0355 412.815 76.4261 396.456 80.1341C377.504 84.4086 358.901 90.6915 339.499 92.1851C338.552 92.3396 338.552 93.8846 339.499 93.7816Z" fill="#161616"/>
<path d="M609.423 222.841C623.986 217.279 639.098 225.21 653.662 226.652C661.492 227.424 669.273 226.652 676.903 224.798C684.385 222.944 691.667 220.214 699.297 219.03C707.477 217.742 716.205 218.257 723.287 223.047C724.085 223.613 724.833 222.274 724.035 221.708C711.467 213.262 696.105 217.794 682.839 221.605C674.51 224.025 666.18 225.776 657.502 225.416C649.223 225.107 641.293 222.738 633.213 220.987C625.183 219.287 616.904 218.36 609.073 221.347C608.126 221.656 608.525 223.15 609.423 222.841Z" fill="#161616"/>
<path d="M101.047 379.091C113.715 367.453 131.57 377.752 145.635 379.967C161.894 382.542 178.154 377.907 193.665 373.427C194.612 373.169 194.213 371.676 193.266 371.933C176.109 376.877 158.353 381.769 140.548 377.392C127.53 374.199 111.62 367.401 99.9495 378.01C99.2512 378.628 100.299 379.709 101.047 379.091Z" fill="#161616"/>
<path d="M260.547 523.704C264.587 518.76 270.821 516.082 277.106 516.906C280.697 517.369 283.988 519.069 287.28 520.562C290.023 521.798 292.816 522.828 295.659 523.652C307.878 527.154 320.996 526.639 332.916 522.313C333.813 522.004 333.414 520.511 332.517 520.82C319.15 525.609 304.387 525.609 291.071 520.459C285.285 518.245 279.899 514.691 273.465 515.206C268.028 515.618 262.991 518.296 259.45 522.571C258.851 523.395 259.949 524.476 260.547 523.704Z" fill="#161616"/>
<path d="M345.434 519.481C354.512 516.751 363.838 515.412 373.314 515.464C374.262 515.464 374.262 513.919 373.314 513.919C363.738 513.867 354.262 515.258 345.035 517.987C344.138 518.296 344.487 519.79 345.434 519.481Z" fill="#161616"/>
<path d="M357.305 119.171C366.132 126.175 374.561 133.694 382.641 141.676C383.339 142.346 384.387 141.264 383.688 140.595C375.559 132.561 366.98 124.991 358.053 117.884C357.305 117.214 356.556 118.553 357.305 119.171Z" fill="#161616"/>
<path d="M270.821 146.312C271.669 141.471 272.567 136.63 273.415 131.737C273.614 130.759 272.168 130.347 271.968 131.325C271.12 136.166 270.223 141.007 269.375 145.9C269.225 146.878 270.672 147.29 270.821 146.312Z" fill="#161616"/>
<path d="M558.4 177.005C559.998 177.005 561.293 175.668 561.293 174.018C561.293 172.369 559.998 171.031 558.4 171.031C556.803 171.031 555.508 172.369 555.508 174.018C555.508 175.668 556.803 177.005 558.4 177.005Z" fill="#EC615B"/>
<path d="M180.448 423.69C182.348 423.69 183.889 422.099 183.889 420.137C183.889 418.174 182.348 416.583 180.448 416.583C178.547 416.583 177.006 418.174 177.006 420.137C177.006 422.099 178.547 423.69 180.448 423.69Z" fill="#EC615B"/>
<path d="M163.789 101.764C168.142 101.764 171.67 98.1209 171.67 93.627C171.67 89.1331 168.142 85.49 163.789 85.49C159.437 85.49 155.909 89.1331 155.909 93.627C155.909 98.1209 159.437 101.764 163.789 101.764Z" fill="#EC615B"/>
<path d="M179.6 109.643C181.06 109.643 182.243 108.421 182.243 106.914C182.243 105.406 181.06 104.184 179.6 104.184C178.14 104.184 176.956 105.406 176.956 106.914C176.956 108.421 178.14 109.643 179.6 109.643Z" fill="#EC615B"/>
<path d="M330.621 567.736C333.872 567.736 336.507 565.015 336.507 561.659C336.507 558.303 333.872 555.582 330.621 555.582C327.371 555.582 324.736 558.303 324.736 561.659C324.736 565.015 327.371 567.736 330.621 567.736Z" fill="#EC615B"/>
<path d="M604.136 112.373C607 112.373 609.323 109.975 609.323 107.017C609.323 104.059 607 101.661 604.136 101.661C601.271 101.661 598.949 104.059 598.949 107.017C598.949 109.975 601.271 112.373 604.136 112.373Z" fill="#EC615B"/>
<path d="M610.769 100.579C612.532 100.579 613.961 99.1038 613.961 97.2834C613.961 95.4631 612.532 93.9874 610.769 93.9874C609.006 93.9874 607.577 95.4631 607.577 97.2834C607.577 99.1038 609.006 100.579 610.769 100.579Z" fill="#EC615B"/>
<path d="M171.72 93.2149C176.072 93.2149 179.6 89.5719 179.6 85.0779C179.6 80.584 176.072 76.9409 171.72 76.9409C167.367 76.9409 163.839 80.584 163.839 85.0779C163.839 89.5719 167.367 93.2149 171.72 93.2149Z" fill="#5222D0"/>
<path d="M167.779 428.48C169.956 428.48 171.72 426.658 171.72 424.411C171.72 422.164 169.956 420.343 167.779 420.343C165.603 420.343 163.839 422.164 163.839 424.411C163.839 426.658 165.603 428.48 167.779 428.48Z" fill="#5222D0"/>
<path d="M306.282 555.942C308.211 555.942 309.774 554.328 309.774 552.337C309.774 550.346 308.211 548.732 306.282 548.732C304.354 548.732 302.791 550.346 302.791 552.337C302.791 554.328 304.354 555.942 306.282 555.942Z" fill="#5222D0"/>
<path d="M584.984 93.9875C589.556 93.9875 593.263 90.16 593.263 85.4385C593.263 80.717 589.556 76.8895 584.984 76.8895C580.411 76.8895 576.705 80.717 576.705 85.4385C576.705 90.16 580.411 93.9875 584.984 93.9875Z" fill="#5222D0"/>
<path d="M448.675 223.458C449.667 223.458 450.471 222.628 450.471 221.604C450.471 220.581 449.667 219.75 448.675 219.75C447.684 219.75 446.88 220.581 446.88 221.604C446.88 222.628 447.684 223.458 448.675 223.458Z" fill="#5222D0"/>
<path d="M430.272 113.094C429.224 115.617 428.227 118.192 427.179 120.716C426.83 121.643 428.277 122.055 428.626 121.128C429.673 118.604 430.671 116.029 431.718 113.506C432.067 112.579 430.621 112.167 430.272 113.094Z" fill="#5222D0"/>
<path d="M430.022 114.33C431.868 116.339 433.314 118.605 434.262 121.18C434.611 122.107 436.057 121.695 435.708 120.768C434.611 117.935 433.065 115.463 431.07 113.249C430.421 112.528 429.324 113.609 430.022 114.33Z" fill="#5222D0"/>
<path d="M427.578 122.055C429.025 124.836 430.671 127.462 432.516 129.934C433.114 130.707 434.411 129.934 433.813 129.162C431.967 126.638 430.321 124.012 428.875 121.282C428.376 120.407 427.129 121.179 427.578 122.055Z" fill="#5222D0"/>
<path d="M434.361 121.282C433.763 124.166 433.214 127.05 432.616 129.934C432.416 130.913 433.863 131.325 434.062 130.346C434.661 127.462 435.209 124.578 435.808 121.694C436.007 120.767 434.561 120.355 434.361 121.282Z" fill="#5222D0"/>
<path d="M570.77 333.565C569.572 335.831 568.774 338.252 568.425 340.827C568.276 341.805 569.722 342.217 569.872 341.239C570.221 338.818 570.919 336.552 572.066 334.389C572.515 333.462 571.218 332.69 570.77 333.565Z" fill="#5222D0"/>
<path d="M570.67 334.029C571.667 336.759 572.814 339.385 574.111 341.909C574.56 342.784 575.857 342.012 575.408 341.136C574.161 338.716 573.064 336.192 572.116 333.617C571.767 332.69 570.321 333.102 570.67 334.029Z" fill="#5222D0"/>
<path d="M568.126 341.908C569.423 343.814 570.67 345.719 571.966 347.625C572.515 348.449 573.812 347.676 573.263 346.852C571.966 344.947 570.719 343.041 569.423 341.136C568.874 340.312 567.577 341.084 568.126 341.908Z" fill="#5222D0"/>
<path d="M573.562 341.651C572.515 343.144 572.016 344.844 572.016 346.646C572.016 347.625 573.513 347.625 573.513 346.646C573.513 345.101 573.961 343.659 574.859 342.423C575.408 341.599 574.111 340.827 573.562 341.651Z" fill="#5222D0"/>
<path d="M153.565 479.362C152.219 482.4 150.872 485.387 149.525 488.426C149.126 489.301 150.423 490.125 150.822 489.198C152.169 486.16 153.515 483.173 154.862 480.134C155.261 479.259 154.014 478.486 153.565 479.362Z" fill="#5222D0"/>
<path d="M153.814 479.774C155.111 482.967 156.408 486.16 157.705 489.353C158.054 490.28 159.5 489.868 159.151 488.941C157.854 485.748 156.558 482.555 155.261 479.362C154.912 478.435 153.465 478.847 153.814 479.774Z" fill="#5222D0"/>
<path d="M149.176 489.816C150.523 492.546 151.819 495.327 153.166 498.056C153.415 498.52 154.014 498.52 154.363 498.211C155.41 497.335 155.909 495.842 156.458 494.657C157.256 493.009 158.054 491.361 158.852 489.713C159.301 488.838 158.004 488.065 157.555 488.941C156.857 490.383 156.109 491.825 155.41 493.267C154.812 494.503 154.263 496.202 153.216 497.078C153.615 497.129 154.014 497.181 154.413 497.232C153.066 494.503 151.77 491.722 150.423 488.992C150.024 488.168 148.727 488.941 149.176 489.816Z" fill="#5222D0"/>
<path d="M655.557 239.99C654.011 243.028 653.063 246.221 652.614 249.62C652.465 250.599 653.961 250.599 654.111 249.62C654.51 246.479 655.407 243.543 656.804 240.762C657.303 239.887 656.006 239.114 655.557 239.99Z" fill="#5222D0"/>
<path d="M655.357 241.792C656.904 244.882 658.4 247.972 659.946 251.062C660.395 251.938 661.692 251.165 661.243 250.29C659.697 247.2 658.2 244.11 656.654 241.02C656.205 240.144 654.909 240.917 655.357 241.792Z" fill="#5222D0"/>
<path d="M652.714 249.826C653.961 252.916 655.457 255.8 657.253 258.53C657.801 259.354 659.098 258.581 658.55 257.757C656.804 255.131 655.308 252.35 654.16 249.414C653.811 248.539 652.365 248.951 652.714 249.826Z" fill="#5222D0"/>
<path d="M659.497 250.496C658.599 253.38 657.851 256.315 657.352 259.354C657.203 260.332 658.649 260.744 658.799 259.766C659.298 256.779 659.996 253.843 660.943 250.908C661.243 249.981 659.796 249.569 659.497 250.496Z" fill="#5222D0"/>
<path d="M649.771 490.023C649.173 492.082 648.624 494.091 648.026 496.151C647.776 497.129 649.173 497.49 649.472 496.563C650.071 494.503 650.619 492.494 651.218 490.434C651.517 489.456 650.071 489.044 649.771 490.023Z" fill="#5222D0"/>
<path d="M649.672 491.155C650.57 493.215 651.517 495.275 652.415 497.284C652.814 498.211 654.111 497.387 653.712 496.511C652.814 494.451 651.866 492.391 650.968 490.383C650.569 489.456 649.273 490.228 649.672 491.155Z" fill="#5222D0"/>
<path d="M648.425 497.129C648.874 499.55 649.971 501.713 651.517 503.567C652.166 504.339 653.213 503.206 652.565 502.485C651.168 500.837 650.27 498.88 649.871 496.769C649.672 495.739 648.225 496.151 648.425 497.129Z" fill="#5222D0"/>
<path d="M652.365 496.923C651.717 499.086 651.417 501.301 651.467 503.515C651.517 504.494 653.013 504.494 652.963 503.515C652.913 501.404 653.163 499.344 653.811 497.335C654.11 496.408 652.664 495.996 652.365 496.923Z" fill="#5222D0"/>
<path d="M134.762 218.308C133.665 220.78 132.618 223.252 131.52 225.724C131.121 226.6 132.418 227.424 132.817 226.497C133.914 224.025 134.962 221.553 136.059 219.081C136.458 218.205 135.161 217.381 134.762 218.308Z" fill="#5222D0"/>
<path d="M131.72 227.012C132.867 230.05 133.964 233.037 135.111 236.076C135.46 237.003 136.907 236.591 136.558 235.664C135.411 232.625 134.313 229.638 133.166 226.6C132.817 225.673 131.371 226.085 131.72 227.012Z" fill="#5222D0"/>
<path d="M134.762 218.412C136.308 221.193 137.854 224.025 139.401 226.806C139.899 227.681 141.146 226.909 140.697 226.033C139.151 223.253 137.605 220.42 136.059 217.639C135.56 216.764 134.263 217.536 134.762 218.412Z" fill="#5222D0"/>
<path d="M139.75 226.136C138.154 229.226 136.757 232.419 135.56 235.664C135.211 236.591 136.657 237.003 137.007 236.076C138.154 232.934 139.5 229.844 141.046 226.909C141.495 226.033 140.199 225.261 139.75 226.136Z" fill="#5222D0"/>
<path d="M510.72 265.791C511.717 263.834 513.613 262.495 515.807 262.598C517.603 262.65 518.949 263.937 520.545 264.555C523.338 265.585 524.186 263.731 526.281 262.341C529.124 260.384 531.867 264.761 534.909 264.71C536.655 264.658 538.101 263.783 538.151 261.877C537.752 262.083 537.403 262.341 537.004 262.547C538.55 263.371 540.096 264.195 541.593 265.07C542.44 265.534 543.189 264.195 542.341 263.731C540.795 262.907 539.248 262.083 537.752 261.208C537.253 260.95 536.655 261.259 536.605 261.877C536.455 265.534 529.573 260.332 528.276 260.178C525.333 259.766 524.186 263.525 521.643 263.113C518.949 262.65 517.254 260.641 514.361 261.156C512.166 261.568 510.371 262.959 509.373 265.019C509.024 265.894 510.271 266.667 510.72 265.791Z" fill="#5222D0"/>
<path d="M529.822 255.337C532.066 252.762 535.607 256.007 538.151 256.316C541.094 256.676 543.388 253.431 546.231 255.08C548.575 256.47 552.864 259.766 554.56 255.543C554.909 254.616 553.463 254.204 553.114 255.131C551.917 258.118 547.627 253.947 546.181 253.328C544.236 252.453 542.939 253.174 541.193 254.05C539.099 255.08 537.602 254.719 535.607 253.792C534.71 253.38 533.812 253.019 532.814 252.865C531.268 252.659 529.872 252.968 528.775 254.204C528.126 254.977 529.174 256.058 529.822 255.337Z" fill="#5222D0"/>
<path d="M489.324 133.848C490.022 132.509 490.82 132.149 491.718 132.767C492.117 132.921 492.516 133.127 492.915 133.385C493.363 133.591 493.812 133.9 494.261 134.054C495.059 134.312 495.857 134.415 496.655 134.209C498.8 133.591 499.897 130.81 502.191 130.861C504.336 130.913 505.882 133.024 508.126 131.943C509.074 131.479 509.722 130.655 510.62 130.14C512.615 129.007 515.059 129.419 516.755 130.861C517.503 131.479 518.55 130.398 517.802 129.78C515.558 127.874 512.465 127.308 509.872 128.801C508.725 129.471 507.777 130.913 506.281 130.707C505.433 130.604 504.685 129.986 503.887 129.677C502.69 129.213 501.593 129.059 500.396 129.625C498.9 130.346 497.902 132.355 496.256 132.715C494.161 133.179 492.765 130.964 490.82 130.913C488.974 130.861 486.83 132.715 488.077 134.621C488.575 135.445 489.872 134.672 489.324 133.848Z" fill="#EC615B"/>
<path d="M505.882 124.733C506.481 121.385 512.116 124.63 514.111 124.269C515.408 124.063 516.356 123.136 517.553 122.673C519.448 121.9 521.293 122.209 523.039 123.291C523.887 123.806 524.635 122.467 523.787 121.952C522.291 121.025 520.695 120.561 518.999 120.716C518.251 120.767 517.553 120.973 516.904 121.231C514.909 122.106 514.111 123.085 511.618 122.467C509.224 121.849 505.134 120.613 504.486 124.321C504.236 125.299 505.683 125.711 505.882 124.733Z" fill="#EC615B"/>
<path d="M128.278 310.854C128.927 307.609 133.266 312.038 134.114 312.605C135.061 313.274 136.109 313.738 137.256 313.48C138.752 313.223 139.899 311.935 141.445 311.575C143.939 311.008 146.433 311.832 148.228 313.686C148.927 314.407 149.974 313.274 149.276 312.605C147.73 311.008 145.834 310.03 143.64 309.875C142.543 309.772 141.445 309.927 140.398 310.287C138.752 310.854 137.455 312.502 135.46 311.678C133.366 310.802 132.568 308.588 130.174 308.33C128.628 308.176 127.181 308.794 126.882 310.442C126.633 311.42 128.079 311.832 128.278 310.854Z" fill="#EC615B"/>
<path d="M144.887 307.146C145.984 305.601 151.021 308.691 152.468 309.051C154.812 309.618 157.206 309.618 159.6 309.309C160.548 309.154 160.149 307.661 159.201 307.815C155.061 308.382 151.869 307.249 148.129 305.704C146.433 305.034 144.737 304.777 143.59 306.373C143.041 307.146 144.338 307.918 144.887 307.146Z" fill="#EC615B"/>
<path d="M266.482 415.09C267.28 413.802 268.527 412.978 270.073 412.978C271.37 412.978 272.168 413.802 273.315 414.163C274.462 414.575 275.41 414.317 276.407 413.648C278.352 412.309 279.3 410.661 281.943 410.764C284.337 410.815 286.632 412 288.726 413.081C289.574 413.545 290.322 412.206 289.475 411.742C285.534 409.682 280.746 407.725 276.956 411.073C276.108 411.794 276.008 412 274.712 412.257C273.265 412.566 273.415 412.36 272.318 411.897C271.37 411.485 270.472 411.33 269.425 411.433C267.579 411.639 266.133 412.721 265.185 414.266C264.687 415.141 265.983 415.914 266.482 415.09Z" fill="#EC615B"/>
<path d="M283.091 418.077C285.435 415.965 289.874 420.394 292.766 419.982C294.512 419.725 295.31 418.386 296.457 417.15C298.652 414.729 301.943 414.369 304.637 416.171C305.435 416.686 306.183 415.399 305.385 414.832C303.44 413.545 301.145 413.133 298.901 413.802C297.903 414.111 297.006 414.575 296.208 415.244C295.011 416.274 294.263 418.128 292.567 418.437C288.926 419.107 285.485 413.854 282.043 416.995C281.345 417.665 282.392 418.746 283.091 418.077Z" fill="#EC615B"/>
<path d="M215.061 87.756C215.46 86.0565 216.408 84.7175 218.004 83.9965C219.4 83.3785 220.547 83.7905 221.994 83.739C223.59 83.636 224.787 82.812 225.734 81.576C227.181 79.722 228.128 77.8165 230.173 76.5805C232.517 75.19 235.21 74.9325 237.804 75.7565C238.752 76.0655 239.101 74.572 238.203 74.263C233.415 72.7695 228.677 74.675 225.784 78.8465C224.637 80.4945 223.789 82.1425 221.595 82.194C220.248 82.2455 219.101 81.9365 217.804 82.4C215.61 83.1725 214.113 85.078 213.615 87.344C213.365 88.3225 214.812 88.7345 215.061 87.756Z" fill="#EC615B"/>
<path d="M222.093 93.6785C219.949 87.8075 230.223 88.1165 233.315 86.9835C237.156 85.593 240.447 83.121 243.689 80.649C244.437 80.0825 243.689 78.7435 242.941 79.31C240.747 81.0095 238.502 82.6575 236.108 83.9965C233.116 85.6445 230.273 86.1595 227.031 86.6745C223.59 87.241 219.101 89.713 220.697 94.039C220.996 94.966 222.442 94.6055 222.093 93.6785Z" fill="#EC615B"/>
<path d="M420.995 388.928C424.785 378.679 431.219 371.984 437.853 365.032C446.581 355.916 462.79 338.973 479.299 341.651C493.363 343.917 491.817 357.873 511.119 368.019C529.323 377.649 536.306 368.122 554.46 378.473C557.154 380.018 576.156 391.194 580.495 412.309C582.291 421.064 581.842 433.063 578.101 434.196C573.862 435.484 572.415 410.249 555.458 400.361C542.49 392.79 524.635 396.447 523.189 401.854C521.643 407.571 539.548 411.33 549.672 431.209C554.111 439.861 555.059 447.741 556.405 458.556C557.652 468.753 559.049 489.662 554.46 490.898C550.67 491.928 548.625 477.972 534.71 466.539C527.378 460.513 519.548 458.041 503.887 453.097C489.772 448.668 482.64 446.505 478.8 450.11C473.114 455.466 477.503 469.062 478.301 471.482C483.887 488.787 498.152 495.997 497.104 497.851C495.708 500.168 469.673 493.473 448.426 471.997C430.272 453.612 409.973 418.643 420.995 388.928Z" fill="#EC615B"/>
<path d="M583.837 448.617C583.637 450.059 582.59 458.093 587.178 463.243C592.266 468.908 598.45 464.582 604.685 470.195C610.42 475.345 609.672 483.07 611.418 482.916C613.413 482.761 616.455 472.307 612.166 465.972C610.819 463.964 607.527 462.161 600.994 458.659C594.311 455.054 593.413 455.209 591.667 453.252C587.328 448.411 587.976 442.076 586.43 442.076C585.233 442.076 584.186 445.887 583.837 448.617Z" fill="#EC615B"/>
<path d="M540.944 509.078C538.151 513.404 538.451 518.039 538.7 522.931C538.999 527.927 539.199 531.995 542.042 535.651C545.284 539.823 550.67 541.574 551.368 540.647C551.917 539.926 549.473 537.969 547.279 533.695C547.029 533.18 543.787 526.845 543.937 519.429C544.086 510.159 549.373 504.649 548.027 503.67C547.029 502.898 543.189 505.576 540.944 509.078Z" fill="#EC615B"/>
<path d="M560.944 423.69C569.323 429.407 564.735 442.643 570.221 450.368C570.769 451.14 572.066 450.368 571.518 449.595C565.832 441.561 570.67 428.48 561.692 422.351C560.894 421.785 560.146 423.124 560.944 423.69Z" fill="#EC615B"/>
<path d="M557.952 386.405C566.929 393.512 573.163 403.657 575.657 415.039C575.857 416.017 577.303 415.605 577.104 414.627C574.51 402.833 568.026 392.43 558.75 385.117C557.902 384.448 557.154 385.787 557.952 386.405Z" fill="#5222D0"/>
<path d="M529.024 414.935C536.206 421.012 541.842 428.789 545.333 437.698C545.682 438.625 547.129 438.213 546.78 437.286C543.139 428.119 537.503 420.137 530.072 413.854C529.373 413.236 528.276 414.317 529.024 414.935Z" fill="#5222D0"/>
<path d="M548.824 446.196C550.171 449.904 551.069 453.663 551.418 457.577C551.518 458.556 553.014 458.556 552.914 457.577C552.515 453.509 551.617 449.595 550.221 445.784C549.972 444.857 548.525 445.269 548.824 446.196Z" fill="#5222D0"/>
<path d="M472.067 454.745C470.82 462.522 472.266 470.298 476.356 476.993C476.855 477.817 478.152 477.045 477.653 476.221C473.812 469.938 472.316 462.522 473.513 455.157C473.663 454.179 472.216 453.767 472.067 454.745Z" fill="#5222D0"/>
<path d="M478.351 481.216C480.147 484.615 482.441 487.653 485.184 490.28C485.882 490.949 486.93 489.868 486.231 489.198C483.588 486.623 481.394 483.688 479.648 480.443C479.199 479.568 477.902 480.34 478.351 481.216Z" fill="#5222D0"/>
<path d="M421.095 402.73C420.696 407.622 421.145 412.463 422.491 417.201C422.741 418.18 424.187 417.768 423.938 416.789C422.641 412.154 422.192 407.519 422.591 402.73C422.691 401.751 421.194 401.751 421.095 402.73Z" fill="#5222D0"/>
<path d="M423.987 422.455C424.785 426.472 426.232 430.18 428.327 433.682C428.825 434.506 430.122 433.733 429.623 432.909C427.628 429.51 426.232 425.957 425.434 422.043C425.234 421.116 423.788 421.528 423.987 422.455Z" fill="#5222D0"/>
<path d="M293.764 100.528C292.367 104.442 290.672 109.798 289.026 116.287C287.33 123.034 283.34 140.801 283.739 164.182C284.138 186.739 288.427 203.322 292.367 218.103C298.502 241.175 305.983 257.758 310.422 267.388C310.422 267.388 324.537 298.237 347.928 331.3C352.068 337.119 357.355 344.484 357.355 344.484C361.195 349.788 364.487 354.217 366.781 357.41C368.626 359.573 370.97 361.994 374.013 364.311C379.699 368.689 385.334 370.903 389.275 372.036C395.758 366.32 402.242 360.552 408.726 354.835C411.668 357.719 414.661 360.552 417.604 363.436C421.693 359.11 425.334 355.659 428.177 353.136C440.546 342.063 450.77 336.398 453.164 335.059C455.209 333.926 456.955 333.051 458.152 332.484C456.307 328.673 454.461 324.862 452.616 321C455.608 318.322 459.05 315.489 462.89 312.708C468.077 308.949 473.065 305.91 477.603 303.541C477.553 299.215 477.005 292.675 474.262 285.465C472.217 280.057 469.773 276.401 468.725 274.856C457.204 257.706 491.169 304.983 446.78 239.578C429.574 214.24 420.995 201.52 417.055 196.267C404.736 179.632 395.06 168.251 388.177 160.165C375.01 144.664 369.075 138.896 364.287 134.673C357.754 128.802 350.522 122.467 339.599 116.596C332.716 112.94 327.031 110.931 318.751 107.996C308.527 104.391 299.899 102.022 293.764 100.528Z" fill="white"/>
<path d="M292.218 101.455C281.395 135.909 281.395 173.092 289.175 208.215C291.12 217.021 293.564 225.725 296.457 234.222C297.903 238.548 299.649 242.771 301.195 247.046C301.744 248.539 301.844 250.033 302.492 251.526C303.44 253.844 304.437 256.161 305.435 258.479C307.28 262.805 309.225 267.079 311.27 271.354C313.315 275.577 315.809 279.594 317.654 283.868C318.352 285.465 318.951 287.164 319.749 288.709C320.796 290.666 322.342 292.16 323.439 294.065C325.734 298.031 327.928 302.099 330.322 306.013C341.245 324.193 353.664 341.342 366.382 358.183C366.98 358.955 368.028 357.874 367.429 357.101C356.207 342.218 345.235 327.128 335.36 311.318C332.916 307.404 330.572 303.49 328.277 299.473C327.18 297.567 326.083 295.61 325.035 293.653C323.988 291.748 322.592 290.409 321.494 288.555C320.597 287.01 319.948 285.362 319.3 283.714C318.402 281.499 317.205 279.491 316.108 277.379C314.013 273.414 312.068 269.397 310.223 265.328C308.277 261.054 306.432 256.728 304.587 252.402C303.789 250.496 303.489 248.488 302.741 246.531C301.943 244.419 301.095 242.308 300.297 240.145C297.255 231.853 294.612 223.407 292.417 214.807C288.028 197.4 285.485 179.529 285.235 161.504C284.986 141.265 287.679 121.025 293.764 101.713C293.913 100.94 292.467 100.528 292.218 101.455Z" fill="black"/>
<path d="M292.916 101.455C301.245 102.125 309.724 105.112 317.554 107.944C325.285 110.777 332.916 113.867 339.998 118.09C354.113 126.536 366.581 137.608 377.953 149.659C389.673 162.071 400.347 175.718 410.671 189.366C420.945 202.962 430.77 217.021 440.247 231.235C450.72 247.046 460.795 263.165 470.67 279.439C471.169 280.263 472.466 279.491 471.967 278.667C453.863 248.951 435.159 219.596 414.362 191.786C394.262 164.852 372.716 137.351 344.487 119.068C336.806 114.073 328.577 110.468 320.098 107.223C311.519 103.979 302.143 100.631 292.966 99.8585C291.968 99.8585 291.968 101.404 292.916 101.455Z" fill="black"/>
<path d="M368.526 357.719C391.768 333.257 417.903 311.781 446.182 293.859C454.162 288.812 462.242 284.074 470.521 279.645C471.369 279.182 470.621 277.843 469.773 278.306C440.396 294.168 412.865 313.687 388.077 336.398C380.995 342.887 374.112 349.634 367.479 356.638C366.781 357.359 367.828 358.44 368.526 357.719Z" fill="black"/>
<path d="M367.08 358.903C373.015 365.753 380.746 370.594 389.374 372.757C390.322 373.015 390.721 371.521 389.773 371.264C381.344 369.101 373.913 364.465 368.127 357.77C367.479 357.049 366.432 358.182 367.08 358.903Z" fill="black"/>
<path d="M470.271 280.057C474.162 287.113 476.406 294.889 476.905 302.975C476.955 303.953 478.451 303.953 478.401 302.975C477.902 294.58 475.558 286.598 471.568 279.285C471.119 278.409 469.823 279.182 470.271 280.057Z" fill="black"/>
<path d="M390.272 372.345C417.254 346.904 446.481 324.141 477.653 304.416C478.451 303.901 477.703 302.563 476.905 303.078C445.683 322.854 416.307 345.72 389.225 371.264C388.526 371.933 389.574 373.014 390.272 372.345Z" fill="black"/>
<path d="M409.075 355.762C411.818 358.543 414.561 361.324 417.304 364.156C417.603 364.465 418.102 364.465 418.351 364.156C426.431 355.298 435.508 347.47 445.434 340.93C447.828 339.333 450.271 337.84 452.765 336.398C454.361 335.471 457.404 334.595 458.351 332.844C459.349 331.093 457.853 328.724 457.055 327.231C455.658 324.604 454.012 322.184 452.217 319.918C451.618 319.145 450.571 320.227 451.169 320.999C452.915 323.214 454.461 325.531 455.758 328.003C456.057 328.518 456.705 329.394 456.755 330.012C456.556 330.939 456.356 331.814 456.157 332.741C455.907 332.896 455.658 332.999 455.409 333.153C454.411 333.926 453.114 334.389 452.017 335.059C447.678 337.582 443.439 340.312 439.349 343.247C431.369 349.067 423.987 355.711 417.304 363.024C417.653 363.024 418.002 363.024 418.351 363.024C415.608 360.243 412.865 357.461 410.122 354.629C409.424 353.959 408.377 355.041 409.075 355.762Z" fill="black"/>
<path d="M295.759 228.814C308.028 213.879 322.392 200.953 337.105 188.644C351.868 176.336 367.329 164.8 384.636 156.611C385.534 156.199 384.736 154.86 383.888 155.272C366.731 163.358 351.419 174.791 336.756 186.945C321.793 199.408 307.18 212.54 294.711 227.681C294.063 228.505 295.11 229.587 295.759 228.814Z" fill="black"/>
<path d="M384.935 163.822C383.289 163.925 382.591 161.092 384.437 160.938C385.085 160.886 385.833 161.195 386.082 161.865C386.432 162.843 385.534 163.873 384.586 163.873C383.888 163.873 383.838 165.058 384.586 165.058C386.132 165.058 387.479 163.564 387.23 161.968C387.03 160.629 385.683 159.805 384.437 159.856C383.09 159.959 382.043 161.092 382.192 162.483C382.342 163.873 383.539 165.161 384.935 165.058C385.683 164.955 385.683 163.77 384.935 163.822Z" fill="black"/>
<path d="M461.094 277.739C461.144 277.739 461.144 277.739 461.194 277.688C461.045 277.688 460.895 277.636 460.745 277.636C461.294 277.894 460.995 276.812 460.945 276.658C460.945 276.503 460.995 276.297 461.045 276.143C461.194 275.834 461.444 275.525 461.743 275.37C462.391 275.061 463.089 275.576 463.289 276.246C463.688 277.585 461.793 278.254 461.294 277.07C460.995 276.4 460.047 276.967 460.346 277.636C460.945 279.078 462.99 279.181 463.987 278.1C465.134 276.812 464.286 274.649 462.74 274.186C461.094 273.722 459.498 275.525 459.897 277.173C460.047 277.842 460.895 278.666 461.543 277.997C462.042 277.482 461.543 276.349 460.795 276.658C460.147 276.915 460.446 277.997 461.094 277.739Z" fill="black"/>
<path opacity="0.15" d="M293.764 100.837C301.644 106.09 312.317 113.815 323.988 124.167C331.22 130.604 349.973 147.857 373.414 181.332C398.85 217.639 411.569 235.767 414.112 256.007C415.409 266.564 417.204 296.64 391.519 333.617C402.142 325.274 412.815 316.88 423.439 308.537C428.077 316.416 432.666 324.296 437.304 332.175C432.317 335.986 427.329 339.746 422.342 343.557C424.785 346.595 427.229 349.582 429.673 352.621C432.666 349.634 436.257 346.441 440.396 343.299C446.78 338.458 452.915 335.008 458.202 332.484C456.207 328.519 454.262 324.502 452.267 320.536C460.845 314.717 469.424 308.846 478.002 303.026C477.553 298.649 476.506 292.314 473.763 285.207C470.571 276.864 466.531 271.302 464.985 269.139C453.813 253.535 459.249 257.294 435.858 223.356C419.05 198.945 409.773 185.297 394.91 167.633C385.384 156.303 379.05 148.835 368.925 139.617C358.152 129.78 345.085 118.09 325.135 109.541C312.417 104.185 301.245 101.919 293.764 100.837Z" fill="#494949"/>
<path opacity="0.11" d="M453.912 250.445C453.463 253.741 452.566 258.788 450.321 264.504C445.134 277.74 437.154 283.508 420.496 300.915C412.616 309.155 400.895 321.36 401.992 322.699C403.04 323.987 415.858 313.79 438.252 298.546C451.369 289.585 462.391 282.632 469.623 278.1C464.386 268.882 459.149 259.663 453.912 250.445Z" fill="#494949"/>
<path opacity="0.08" d="M470.67 279.645C469.972 279.8 471.668 285.413 469.623 292.417C468.127 297.567 465.583 300.039 459.349 307.816C456.655 311.163 452.715 316.21 448.027 322.699C457.803 315.798 467.578 308.897 477.354 301.996C472.915 283.765 471.269 279.542 470.67 279.645Z" fill="#494949"/>
<path d="M386.431 448.204C386.581 449.698 387.13 450.882 387.977 452.324C391.568 458.298 397.504 461.955 401.793 464.066C400.097 469.577 398.052 477.508 396.556 487.19C395.159 496.511 393.514 507.378 395.658 508.099C396.406 508.356 398.601 507.635 419 465.92C421.843 460.101 424.187 455.26 425.733 451.964C414.86 446.917 404.037 441.818 393.164 436.771C392.117 437.595 385.883 442.282 386.431 448.204Z" fill="#161616" stroke="#161616" stroke-width="2" stroke-miterlimit="10"/>
<path d="M363.688 334.287C354.511 340.879 348.576 347.265 343.29 353.033C341.145 355.35 330.871 366.629 320.048 384.345C315.26 392.173 311.719 399.074 309.275 404.275C309.574 406.387 310.272 409.425 312.118 412.464C314.163 415.863 316.457 417.356 320.048 420.652C324.437 424.669 326.033 427.038 328.576 429.716C333.514 434.969 340.447 438.935 354.112 446.711C371.269 456.445 380.496 459.998 383.339 461.08C386.83 462.367 389.773 463.346 391.868 464.015C392.865 459.226 394.062 454.127 395.559 448.771C396.905 443.982 398.352 439.501 399.798 435.33C389.175 427.296 378.252 418.283 367.18 408.086C363.339 404.584 359.649 401.031 356.107 397.529C359.698 393.048 364.736 387.177 371.12 380.843C372.965 378.989 376.855 375.178 381.594 371.161C387.579 366.165 396.606 359.47 409.075 353.29C411.219 338.51 408.676 324.708 400.845 320.227C391.07 314.665 376.207 325.326 363.688 334.287Z" fill="white"/>
<path d="M353.614 341.96C335.958 357.41 321.345 376.517 310.971 397.889C309.923 400.104 308.427 402.576 308.227 405.048C308.028 407.674 309.574 409.683 310.971 411.691C314.312 416.378 318.103 420.755 322.143 424.824C330.721 433.321 340.596 440.325 350.97 446.248C363.738 453.561 377.254 459.38 390.721 465.148C391.618 465.509 392.017 464.015 391.12 463.655C369.075 454.179 346.581 444.497 328.177 428.377C324.038 424.721 320.098 420.807 316.557 416.532C314.711 414.266 312.866 411.949 311.27 409.528C310.272 408.035 309.524 406.644 309.774 404.739C310.023 402.885 311.07 401.134 311.868 399.434C316.656 389.392 322.392 379.864 328.975 370.955C336.507 360.706 345.135 351.385 354.661 343.093C355.409 342.424 354.362 341.342 353.614 341.96Z" fill="black"/>
<path d="M395.908 359.728C378.801 371.161 363.838 385.632 351.718 402.524C351.17 403.348 352.467 404.121 353.015 403.297C364.985 386.611 379.798 372.294 396.656 361.015C397.454 360.552 396.706 359.213 395.908 359.728Z" fill="black"/>
<path d="M355.26 398.301C369.274 411.382 383.688 423.948 398.551 435.948C399.299 436.566 400.347 435.484 399.598 434.866C384.736 422.867 370.272 410.301 356.307 397.22C355.609 396.55 354.561 397.632 355.26 398.301Z" fill="black"/>
<path d="M398.601 435.742C395.459 444.909 393.015 454.282 391.219 463.809C391.02 464.788 392.466 465.2 392.666 464.221C394.461 454.694 396.955 445.321 400.047 436.154C400.347 435.227 398.9 434.815 398.601 435.742Z" fill="black"/>
<path opacity="0.11" d="M382.99 353.96C376.107 354.578 370.92 359.779 354.91 382.748C348.776 391.555 343.639 399.228 339.698 405.305C345.384 409.425 349.873 412.824 352.716 415.039C368.626 427.347 375.309 434.248 388.825 441.767C391.768 443.415 394.212 444.6 395.658 445.269C396.805 442.025 397.952 438.78 399.05 435.536C395.259 432.137 391.469 428.789 387.628 425.39C377.055 416.12 366.581 407.159 356.157 398.456C360.496 392.173 364.586 387.435 367.579 384.19C376.406 374.663 385.184 368.225 392.017 363.281C394.361 361.582 396.356 360.243 397.653 359.367C391.219 354.269 386.182 353.651 382.99 353.96Z" fill="#494949"/>
<path opacity="0.08" d="M384.985 367.401C380.696 368.431 374.96 370.439 369.125 374.456C354.861 384.293 350.073 399.331 348.676 404.481C356.357 410.661 364.287 416.892 372.516 423.124C380.496 429.201 388.426 434.969 396.157 440.531C397.304 438.832 398.451 437.081 399.549 435.381C388.925 427.399 377.903 418.18 366.88 407.622C363.389 404.326 360.048 400.979 356.856 397.683C358.601 395.314 360.496 392.893 362.491 390.421C369.973 381.254 377.653 373.684 384.985 367.401Z" fill="#494949"/>
<path d="M479.398 431.364C484.685 436.514 490.022 441.716 495.309 446.866C493.912 479.723 496.555 487.448 499.348 488.014C503.688 488.89 511.119 473.388 514.361 461.183C516.805 451.913 517.054 443.776 516.805 438.265C508.525 430.643 500.246 423.021 491.967 415.348C487.777 420.704 483.588 426.06 479.398 431.364Z" fill="#161616" stroke="#161616" stroke-width="2" stroke-miterlimit="10"/>
<path d="M375.609 338.716C376.057 347.265 381.843 352.466 381.843 352.466C385.434 355.711 389.474 356.586 391.469 356.844C393.065 357.513 394.661 358.234 396.307 358.904C398.8 362.612 402.491 367.865 407.379 373.839C413.863 381.873 422.591 391.452 443.937 409.58C454.461 418.489 468.027 429.458 484.436 441.509C486.78 440.325 489.573 438.574 492.366 435.999C498.501 430.385 501.343 423.845 502.64 420.137C499.747 417.253 495.458 412.927 490.471 407.571C468.326 383.933 453.563 363.693 442.291 348.14C434.86 337.892 425.334 324.244 414.81 307.764C390.721 314.562 375.01 327.746 375.609 338.716Z" fill="white"/>
<path d="M383.339 354.423C387.329 355.865 391.269 357.255 395.259 358.697C396.157 359.006 396.556 357.513 395.658 357.204C391.668 355.762 387.728 354.372 383.738 352.93C382.84 352.621 382.441 354.114 383.339 354.423Z" fill="black"/>
<path d="M393.614 357.153C412.367 383.778 436.656 405.305 461.842 425.236C469.074 430.952 476.406 436.617 483.738 442.231C484.536 442.849 485.234 441.458 484.486 440.892C459.249 421.579 433.863 402.009 412.416 378.216C406.182 371.315 400.347 364.002 394.96 356.38C394.362 355.608 393.065 356.38 393.614 357.153Z" fill="black"/>
<path d="M423.04 321.257C440.696 349.222 460.596 375.59 482.541 400.104C488.875 407.211 495.408 414.112 502.042 420.858C502.74 421.579 503.787 420.446 503.089 419.777C479.997 396.396 458.85 371.006 439.898 343.969C434.511 336.295 429.324 328.467 424.287 320.485C423.788 319.661 422.491 320.433 423.04 321.257Z" fill="black"/>
<path d="M501.194 419.879C498.301 428.737 492.715 436.977 484.286 440.891C483.388 441.303 484.186 442.642 485.034 442.23C493.812 438.162 499.598 429.51 502.59 420.291C502.939 419.364 501.493 418.952 501.194 419.879Z" fill="black"/>
<path opacity="0.09" d="M423.09 320.433C420.247 316.468 417.853 313.223 416.257 311.112C414.661 314.15 412.466 319.249 412.267 325.583C411.818 339.9 421.992 346.029 451.169 379.401C463.887 393.924 470.62 402.679 487.029 419.983C490.87 424 494.112 427.347 496.456 429.716C498.251 426.472 500.047 423.227 501.892 419.983C486.082 403.606 473.563 388.825 464.187 377.135C455.159 365.856 447.079 355.762 438.75 343.196C436.606 340.055 431.169 331.66 423.09 320.433Z" fill="#494949"/>
<path opacity="0.09" d="M431.917 334.905C432.616 338.458 434.062 344.484 436.905 351.488C445.134 371.47 457.304 379.916 479.199 404.893C483.389 409.683 489.872 417.253 497.453 427.038C499.199 424.463 500.945 421.94 502.69 419.365C501.094 417.82 498.551 415.399 495.458 412.309C489.773 406.644 474.361 390.834 444.935 352.26C441.743 348.14 437.254 342.166 431.917 334.905Z" fill="#494949"/>
<path d="M270.023 289.379C269.026 289.791 267.529 290.666 263.091 298.031C258.303 305.962 255.061 311.369 252.667 319.918C250.572 327.54 250.073 334.493 250.223 340.158C250.572 341.806 250.821 344.226 250.023 346.904C248.976 350.303 247.081 351.127 243.49 355.762C242.043 357.616 239.649 360.758 237.754 365.032C235.659 369.822 236.707 370.44 234.712 375.126C232.318 380.74 228.777 384.602 228.178 385.22C224.886 388.774 223.29 388.877 221.844 391.967C220.198 395.469 220.697 398.765 220.846 399.743C220.946 400.464 221.994 406.747 225.535 407.52C226.482 407.726 227.979 407.623 228.577 406.696C229.525 405.254 227.33 403.245 226.931 399.743C226.582 396.55 227.929 393.975 228.777 392.379C231.32 387.486 234.263 388.207 236.956 384.139C239.55 380.122 237.106 378.886 239.599 371.315C240.996 367.092 242.392 362.869 246.133 359.728C247.829 358.286 249.475 357.513 251.021 355.093C252.367 352.981 252.866 350.87 253.066 349.428C255.809 353.96 258.702 356.895 260.796 358.698C263.589 361.067 266.781 363.848 269.475 362.818C270.921 362.251 272.218 360.552 271.968 359.367C271.819 358.698 271.22 358.492 269.674 357.05C269.674 357.05 269.076 356.483 267.729 354.99C266.831 354.011 265.534 352.209 264.387 348.81C264.836 348.295 265.983 347.162 267.53 347.059C269.225 347.007 270.522 348.243 271.819 349.582C274.263 352.054 274.163 353.548 275.709 355.041C276.906 356.226 279.1 357.462 283.44 357.153C283.24 356.586 282.891 355.659 282.442 354.629C280.896 351.179 280.098 350.818 279.998 349.376C279.948 348.243 280.397 347.934 282.442 344.329C284.188 341.239 285.036 339.694 285.085 338.87C285.335 335.832 282.791 334.802 282.243 331.3C281.744 328.364 282.991 325.995 283.888 324.141C289.076 313.275 292.367 306.374 291.42 301.172C289.973 293.035 277.405 286.186 270.023 289.379Z" fill="#161616"/>
<path d="M267.729 291.233C260.497 298.855 255.859 308.537 252.766 318.631C249.774 328.467 247.53 339.694 252.268 349.325C252.717 350.2 254.013 349.428 253.564 348.552C248.876 339.076 251.42 327.849 254.462 318.219C257.455 308.64 261.894 299.576 268.776 292.314C269.425 291.593 268.377 290.512 267.729 291.233Z" fill="#161616"/>
<path d="M260.248 335.729C260.846 335.42 261.445 335.162 262.043 334.853C262.492 335.111 262.941 335.42 263.39 335.677C263.938 336.192 264.437 336.862 264.786 337.531C265.485 338.767 265.834 340.261 265.734 341.703C265.534 344.484 263.589 346.647 263.091 349.325C262.791 350.973 263.839 352.157 264.736 353.393C266.283 355.505 268.078 357.462 270.023 359.213C270.721 359.882 271.819 358.801 271.071 358.131C269.824 356.947 268.577 355.762 267.48 354.423C265.684 352.312 264.088 350.509 265.335 347.574C266.432 344.999 267.579 342.578 267.081 339.643C266.682 337.377 265.435 335.059 263.49 333.823C261.844 332.793 259.849 332.999 258.951 334.905C258.502 335.832 259.799 336.604 260.248 335.729Z" fill="#161616"/>
<path d="M252.367 349.531C255.26 354.32 259.25 358.286 264.088 360.912C265.534 361.685 268.278 363.487 270.023 362.715C271.669 361.994 271.37 359.934 270.921 358.543C270.622 357.616 269.175 358.028 269.475 358.955C270.622 362.715 265.784 360.088 264.836 359.573C263.29 358.749 261.844 357.771 260.447 356.638C257.704 354.423 255.46 351.745 253.614 348.707C253.165 347.934 251.869 348.707 252.367 349.531Z" fill="#161616"/>
<path d="M286.731 302.254C283.789 312.451 281.943 322.957 281.095 333.566C281.046 333.875 281.345 334.235 281.644 334.287C284.786 335.162 284.337 339.179 283.19 341.445C282.043 343.608 280.248 345.411 279.35 347.728C277.754 351.9 282.492 353.239 282.392 356.895C282.642 356.638 282.891 356.38 283.14 356.123C278.652 355.865 274.861 353.393 272.617 349.376C271.021 346.492 269.175 345.874 265.983 346.08C265.036 346.132 265.036 347.677 265.983 347.625C267.18 347.574 268.627 347.419 269.724 348.037C270.672 348.604 270.971 349.582 271.47 350.458C272.317 351.951 273.415 353.29 274.711 354.372C277.155 356.432 279.998 357.462 283.09 357.668C283.489 357.668 283.839 357.307 283.839 356.895C283.888 354.732 282.492 353.445 281.345 351.797C278.951 348.346 282.891 345.153 284.437 342.218C286.133 339.025 286.083 333.875 281.993 332.793C282.193 333.051 282.342 333.308 282.542 333.514C283.34 323.008 285.235 312.708 288.128 302.614C288.427 301.739 286.981 301.327 286.731 302.254Z" fill="#161616"/>
<path d="M249.724 340.621C250.073 343.711 249.674 346.75 248.228 349.531C246.881 352.157 244.687 354.063 242.542 356.071C238.752 359.728 237.006 363.745 235.809 368.895C234.512 374.354 232.966 378.731 229.126 382.851C226.233 385.89 222.841 388.722 221.046 392.688C219.3 396.55 219.55 401.031 221.794 404.636C223.091 406.747 227.53 410.97 229.225 406.953C229.924 405.305 229.126 403.245 228.577 401.649C228.078 400.258 227.43 398.868 227.43 397.323C227.43 395.16 228.627 393.306 230.023 391.812C233.415 388.156 237.754 386.096 239.25 380.894C240.098 377.959 239.5 375.023 239.699 372.036C239.949 368.328 241.644 365.187 244.238 362.663C248.178 358.801 253.415 355.608 253.415 349.325C253.415 348.346 251.919 348.346 251.919 349.325C251.869 355.35 246.183 358.337 242.592 362.148C239.799 365.084 238.203 368.792 238.153 372.912C238.103 375.641 238.552 378.216 237.654 380.843C236.657 383.83 234.562 385.838 232.268 387.795C229.325 390.216 225.934 393.048 225.934 397.323C225.934 399.383 226.931 401.237 227.53 403.194C227.679 403.709 228.228 405.099 227.979 405.511C227.48 405.563 226.931 405.666 226.432 405.717C225.535 406.284 224.836 406.181 224.338 405.408C223.24 404.687 222.293 402.524 221.894 401.288C220.298 396.447 222.492 392.121 225.634 388.619C228.278 385.632 231.37 383.109 233.565 379.71C235.909 376.105 236.607 371.83 237.604 367.71C238.353 364.723 239.35 361.839 241.345 359.47C243.091 357.359 245.285 355.762 247.081 353.702C250.273 350.097 251.719 345.411 251.17 340.621C251.121 339.643 249.624 339.643 249.724 340.621Z" fill="#161616"/>
<path d="M217.355 277.894C216.308 278.512 214.363 279.594 213.964 281.86C213.465 284.383 215.211 286.443 215.46 286.701C215.161 287.061 214.263 288.143 214.163 289.791C214.063 292.52 216.408 294.117 216.507 294.22C216.408 294.323 214.961 295.868 215.46 297.979C215.859 299.782 217.405 300.554 217.605 300.606C217.505 300.915 217.156 302.254 217.804 303.49C218.802 305.344 221.196 305.241 221.445 305.241C223.141 305.138 224.737 303.953 225.485 302.151C226.432 302.717 228.926 304.056 232.318 303.696C234.612 303.438 236.308 302.511 237.205 301.945C239.001 305.189 241.794 309.567 245.934 314.047C249.574 317.961 256.357 325.326 266.432 328.364C279.001 332.175 290.123 327.231 296.507 324.399C313.664 316.777 322.192 302.769 325.335 297.516C330.621 288.555 332.467 280.881 334.063 273.929C336.656 262.908 335.758 258.582 334.911 256.058C334.412 254.513 331.469 245.655 324.686 244.625C319.15 243.75 314.562 248.642 314.013 249.26C312.118 251.32 311.12 254.05 309.125 259.406C308.128 262.135 307.479 264.195 307.18 265.122C303.938 275.989 302.292 281.396 301.843 282.529C300.646 285.619 297.804 292.675 290.971 298.185C284.437 303.438 277.604 304.571 274.562 305.035C269.973 305.704 264.337 306.528 258.352 303.49C251.669 300.091 248.677 293.911 247.879 292.263C245.485 287.164 245.036 281.499 244.687 277.482C244.238 272.332 244.587 268.315 241.694 265.122C241.146 264.556 239.849 263.114 238.502 263.371C236.557 263.783 235.46 267.646 234.462 271.302C233.614 274.392 233.864 274.753 233.166 275.474C231.719 276.967 229.874 276.195 223.54 276.555C219.849 276.813 218.552 277.225 217.355 277.894Z" fill="white"/>
<path d="M227.679 275.68C222.293 274.65 212.817 276.092 213.565 283.714C214.213 290.563 222.093 291.748 226.831 288.761C227.629 288.246 226.881 286.907 226.083 287.422C222.143 289.894 215.011 289.224 215.011 283.044C215.011 277.07 223.141 276.401 227.28 277.173C228.228 277.379 228.627 275.886 227.679 275.68Z" fill="black"/>
<path d="M214.862 286.237C209.475 293.035 222.443 301.584 226.283 293.035C226.682 292.16 225.385 291.336 224.986 292.263C221.994 298.855 212.019 292.263 215.959 287.319C216.557 286.598 215.51 285.465 214.862 286.237Z" fill="black"/>
<path d="M215.161 293.138C214.014 295.816 214.812 299.215 217.455 300.606C220.048 301.996 223.29 300.709 224.637 298.134C225.086 297.258 223.789 296.486 223.34 297.361C222.343 299.164 220.098 300.194 218.203 299.267C216.308 298.34 215.61 295.816 216.457 293.911C216.856 293.035 215.56 292.263 215.161 293.138Z" fill="black"/>
<path d="M216.358 300.039C216.158 302.769 217.704 305.241 220.398 305.807C222.891 306.322 225.186 304.623 226.034 302.305C226.383 301.378 224.936 300.966 224.587 301.893C223.939 303.644 222.143 304.777 220.348 304.211C218.502 303.644 217.754 301.893 217.854 300.039C217.904 299.061 216.408 299.061 216.358 300.039Z" fill="black"/>
<path d="M221.096 283.199C222.393 283.044 223.739 283.096 224.836 283.868C225.884 284.589 226.482 286.031 225.884 287.216C225.435 288.091 226.732 288.864 227.181 287.988C227.979 286.392 227.629 284.538 226.432 283.25C225.086 281.757 222.941 281.448 221.046 281.654C220.148 281.808 220.148 283.353 221.096 283.199Z" fill="black"/>
<path d="M225.734 303.335C228.328 302.357 230.822 304.571 233.515 304.262C235.56 304.005 237.355 302.872 239.051 301.842C239.849 301.327 239.101 299.988 238.303 300.503C235.759 302.099 233.565 303.232 230.522 302.305C228.677 301.739 227.23 301.121 225.335 301.842C224.437 302.202 224.787 303.696 225.734 303.335Z" fill="black"/>
<path d="M227.28 277.019C229.874 277.946 233.365 278.1 234.812 275.165C235.61 273.517 235.111 271.508 235.46 269.757C235.859 267.388 237.156 265.431 238.951 263.938C239.699 263.32 238.652 262.238 237.904 262.856C235.959 264.504 234.562 266.77 234.063 269.345C233.814 270.787 234.163 272.487 233.764 273.877C232.866 276.658 229.874 276.298 227.779 275.525C226.782 275.216 226.383 276.71 227.28 277.019Z" fill="black"/>
<path d="M237.854 264.041C242.093 264.607 242.642 271.972 243.34 275.319C244.188 279.697 244.637 284.126 245.435 288.503C246.732 295.507 250.672 301.069 256.956 304.211C263.539 307.455 271.021 307.301 277.903 305.344C284.986 303.284 292.317 299.576 296.906 293.447C297.504 292.675 296.457 291.593 295.858 292.366C291.07 298.752 283.29 302.511 275.809 304.314C268.278 306.116 260.048 305.447 253.764 300.4C246.981 294.992 246.831 286.855 245.485 278.77C244.836 274.959 244.288 270.839 242.941 267.234C242.093 264.968 240.747 262.908 238.303 262.547C237.305 262.393 236.906 263.886 237.854 264.041Z" fill="black"/>
<path d="M236.757 302.872C242.791 310.494 248.627 319.197 256.607 324.811C264.437 330.27 274.113 330.836 283.19 329.291C301.644 326.098 317.305 313.172 326.282 296.486C331.419 287.01 334.462 276.504 335.808 265.74C335.908 264.762 334.412 264.762 334.312 265.74C332.018 284.126 324.237 302.151 310.372 314.305C303.539 320.279 295.41 324.759 286.681 326.922C277.654 329.188 267.23 329.497 259.001 324.502C250.223 319.197 244.088 309.721 237.804 301.739C237.205 301.018 236.158 302.099 236.757 302.872Z" fill="black"/>
<path d="M325.384 244.419C321.245 242.72 316.856 244.934 313.963 248.076C310.572 251.681 308.876 256.47 307.629 261.208C306.183 266.719 304.886 272.178 302.841 277.482C300.646 283.199 297.853 288.606 294.661 293.756C294.113 294.58 295.41 295.353 295.958 294.529C301.095 286.34 305.035 277.431 307.479 268.006C308.776 263.062 309.624 257.912 312.018 253.432C314.412 248.9 319.499 243.647 324.985 245.913C325.883 246.273 326.282 244.78 325.384 244.419Z" fill="black"/>
<path d="M223.34 299.215C224.737 299.318 224.438 301.739 224.188 302.614C223.889 303.541 225.335 303.953 225.635 303.026C226.283 301.069 225.834 297.876 223.34 297.67C222.393 297.619 222.393 299.164 223.34 299.215Z" fill="black"/>
<path d="M224.188 294.477C224.487 295.713 224.038 297 223.091 297.721C222.293 298.288 223.041 299.627 223.839 299.06C225.385 297.927 226.133 295.97 225.634 294.065C225.435 293.086 223.989 293.498 224.188 294.477Z" fill="black"/>
<path d="M225.036 289.121C226.383 289.791 225.485 292.005 224.836 292.881C224.238 293.653 225.535 294.426 226.133 293.653C227.28 292.108 227.879 288.812 225.784 287.782C224.936 287.37 224.188 288.709 225.036 289.121Z" fill="black"/>
<path opacity="0.11" d="M214.762 289.327C215.56 288.864 216.856 291.748 220.198 293.19C221.445 293.705 222.991 294.065 230.073 293.19C232.368 292.881 235.36 292.469 238.951 291.799C239.649 294.735 241.096 299.164 244.038 303.747C245.285 305.653 250.323 313.069 260.048 317.446C270.472 322.184 279.898 320.588 283.539 319.918C286.632 319.352 295.26 317.652 302.941 310.751C308.078 306.168 311.37 300.606 316.207 286.134C319.499 276.298 323.489 262.65 326.432 245.707C328.427 247.818 331.519 251.629 333.265 257.294C334.113 260.024 334.911 264.041 334.262 270.324C332.916 283.868 326.332 295.147 322.342 300.915C318.202 306.94 310.821 317.343 297.155 323.781C295.31 324.656 284.886 329.343 271.619 328.725C268.577 328.57 265.784 328.416 262.342 327.128C258.602 325.738 254.861 322.133 247.43 315.026C244.338 312.09 241.295 309 238.203 304.52C237.604 303.644 237.106 302.872 236.757 302.357C235.709 303.078 234.163 303.902 232.417 303.696C230.073 303.49 229.275 301.739 227.33 302.048C225.634 302.305 225.634 303.747 223.59 304.52C221.994 305.086 219.749 305.035 218.253 303.85C217.156 302.975 217.006 301.996 215.759 296.434C214.562 290.975 214.213 289.636 214.762 289.327Z" fill="#494949"/>
<path d="M271.769 275.937C270.821 276.143 270.472 278.1 269.874 281.139C269.524 282.993 269.375 284.589 269.325 285.722C267.33 288.143 267.13 290.357 267.081 291.233C267.031 293.035 267.629 294.426 268.776 297.001C269.574 298.855 270.422 300.297 271.021 301.275C268.876 301.79 267.38 303.232 267.28 304.777C267.18 306.271 268.477 307.455 268.976 307.867C271.22 309.876 272.866 308.382 275.709 309.979C278.003 311.266 277.804 312.708 281.145 314.614C283.24 315.798 283.888 315.541 284.138 315.386C284.986 314.82 284.686 312.966 284.537 311.73C284.337 310.236 283.739 307.97 282.093 305.344C284.038 304.623 285.983 303.902 287.878 303.232C286.482 303.387 286.183 303.438 286.183 303.438C286.183 303.387 289.624 301.945 292.567 303.232C295.011 304.314 295.21 306.58 297.255 306.734C298.402 306.837 299.699 306.168 300.247 305.189C301.395 303.181 299.25 300.245 298.751 299.576C296.706 296.795 293.714 295.971 292.367 295.713C292.816 294.683 293.315 293.035 293.415 290.975C293.514 287.473 292.118 284.898 291.469 283.817C290.572 280.778 289.724 277.74 288.826 274.65C287.43 277.997 285.883 279.027 284.686 279.285C283.34 279.594 282.592 278.924 280.397 279.285C278.302 279.645 278.203 280.315 277.006 280.263C274.213 279.954 273.265 275.628 271.769 275.937Z" fill="#161616"/>
<path d="M273.016 292.211C273.864 293.241 275.21 293.91 276.557 293.55C277.754 293.241 278.552 292.211 278.701 290.975C278.751 290.46 278.003 290.46 277.953 290.975C277.854 292.056 276.956 292.829 275.908 292.88C274.961 292.932 274.163 292.365 273.564 291.644C273.215 291.284 272.716 291.851 273.016 292.211Z" fill="white"/>
<path d="M283.689 290.511C284.936 292.365 288.976 292.52 288.826 289.584C288.776 289.069 288.028 289.069 288.078 289.584C288.227 291.696 285.185 291.387 284.337 290.099C284.038 289.687 283.39 290.099 283.689 290.511Z" fill="white"/>
<path d="M281.744 296.228C281.744 296.279 281.794 296.331 281.794 296.382C281.943 296.434 282.143 296.485 282.292 296.537C282.193 296.331 282.043 296.228 281.794 296.228C281.993 296.176 282.143 296.073 282.342 296.022C282.292 295.97 282.243 295.867 282.193 295.816C281.943 295.919 281.744 296.022 281.494 296.125C281.844 296.691 281.694 297.721 281.494 298.288C281.245 299.06 280.198 300.09 279.549 299.06C279.3 298.648 278.652 299.009 278.901 299.472C279.549 300.502 280.896 300.451 281.644 299.575C282.392 298.7 282.791 296.794 282.143 295.764C281.943 295.404 281.345 295.61 281.445 296.073C281.544 296.382 281.694 296.588 281.943 296.743C282.143 296.897 282.442 296.743 282.492 296.537C282.592 296.073 282.442 294.992 281.744 295.301C281.095 295.558 281.345 296.588 281.644 297C281.744 297.155 281.993 297.258 282.143 297.155C282.691 296.743 282.691 295.97 282.093 295.661C281.694 295.352 281.345 296.022 281.744 296.228Z" fill="white"/>
<path d="M281.794 296.383C281.993 297.567 282.392 299.009 283.739 299.215C285.085 299.421 285.484 298.082 285.484 297.001C285.484 296.486 284.736 296.486 284.736 297.001C284.736 297.773 284.487 298.855 283.489 298.34C282.741 297.979 282.642 296.949 282.542 296.177C282.442 295.713 281.694 295.919 281.794 296.383Z" fill="white"/>
<path d="M268.028 292.469C268.976 287.113 272.716 282.529 277.804 280.984C282.891 279.439 288.776 281.551 291.12 286.598C291.519 287.473 292.816 286.701 292.417 285.825C289.873 280.418 283.639 277.997 278.103 279.336C272.218 280.778 267.679 285.98 266.582 292.057C266.432 293.035 267.879 293.447 268.028 292.469Z" fill="#161616"/>
<path d="M270.672 284.692C270.622 282.117 271.071 279.542 272.118 277.224C272.218 277.018 272.317 276.864 272.367 276.658C272.716 276.04 272.766 275.937 272.467 276.349C272.168 276.606 272.218 276.812 272.667 277.121C272.766 277.276 272.916 277.482 273.016 277.636C273.764 278.872 274.412 280.16 274.961 281.499C275.31 282.426 276.756 282.014 276.407 281.087C275.908 279.851 273.614 273.568 271.669 274.958C270.721 275.628 270.123 277.894 269.824 278.975C269.275 280.83 269.076 282.787 269.125 284.744C269.225 285.671 270.721 285.671 270.672 284.692Z" fill="#161616"/>
<path d="M285.883 280.521C286.382 279.645 286.881 278.77 287.43 277.894C287.679 277.534 288.028 277.173 288.178 276.761C288.527 276.555 288.577 276.349 288.377 276.092C288.178 275.731 288.228 275.834 288.477 276.401C289.325 278.615 289.923 280.778 290.173 283.199C290.272 284.177 291.769 284.177 291.669 283.199C291.519 281.499 291.22 279.851 290.771 278.203C290.472 277.276 290.023 275.165 289.175 274.598C288.527 274.186 287.978 274.495 287.529 275.062C286.382 276.452 285.484 278.152 284.587 279.748C284.088 280.572 285.385 281.345 285.883 280.521Z" fill="#161616"/>
<path d="M266.682 291.645C266.332 300.297 273.913 307.713 282.342 305.91C286.233 305.086 289.824 302.46 291.669 298.803C293.614 294.941 294.711 288.812 292.168 285.001C291.619 284.177 290.322 284.95 290.871 285.774C293.115 289.224 292.018 294.889 290.223 298.34C288.577 301.481 285.335 303.696 281.943 304.417C274.412 305.962 267.879 299.267 268.178 291.645C268.178 290.615 266.682 290.615 266.682 291.645Z" fill="#161616"/>
<path d="M267.729 305.241C268.926 300.657 274.911 300.915 278.053 302.923C281.395 304.983 283.09 309 283.44 312.863C283.539 313.944 283.938 315.026 282.193 314.356C281.544 314.099 280.696 313.12 280.198 312.605C279.3 311.678 278.502 310.7 277.504 309.927C276.407 309.052 275.26 308.536 273.913 308.279C271.819 307.867 268.028 308.125 267.829 305.035C267.779 304.056 266.283 304.056 266.332 305.035C266.482 307.043 267.729 308.382 269.524 309.051C270.921 309.566 272.467 309.463 273.913 309.824C275.709 310.287 276.906 311.266 278.153 312.605C279.4 313.893 281.544 316.777 283.689 316.365C285.484 316.004 285.085 313.893 284.936 312.502C284.387 307.558 281.844 302.666 277.155 300.76C273.215 299.164 267.529 300.091 266.332 304.88C266.033 305.807 267.48 306.219 267.729 305.241Z" fill="#161616"/>
<path d="M287.629 298.546C289.674 295.713 294.312 296.846 296.457 298.752C297.704 299.833 298.552 301.327 298.951 302.975C299.051 303.49 299.3 304.571 299.15 305.138C298.651 306.631 297.604 306.168 296.706 305.447C295.46 304.468 294.512 303.078 292.966 302.46C292.218 302.151 291.47 302.099 290.672 302.151C289.923 302.151 289.225 302.357 288.477 302.254C287.081 302.048 285.135 300.709 287.48 298.855C288.228 298.237 287.18 297.155 286.432 297.773C285.285 298.7 284.687 300.091 285.185 301.584C285.884 303.541 287.679 303.953 289.524 303.85C291.37 303.747 292.567 303.799 294.063 305.086C294.761 305.704 295.36 306.425 296.158 306.992C297.205 307.764 298.751 308.485 299.898 307.404C302.542 304.88 299.499 299.267 297.405 297.516C294.412 294.992 288.926 294.271 286.432 297.825C285.784 298.546 287.081 299.318 287.629 298.546Z" fill="#161616"/>
<path d="M270.622 300.966C273.864 299.885 278.801 301.996 280.796 304.726C280.946 304.932 281.245 304.726 281.095 304.52C279.001 301.584 274.013 299.421 270.522 300.606C270.273 300.657 270.372 301.018 270.622 300.966Z" fill="white"/>
<path d="M287.978 298.752C289.425 297.001 291.519 296.228 293.714 296.692C293.963 296.743 294.063 296.383 293.814 296.331C291.519 295.868 289.225 296.64 287.729 298.494C287.579 298.7 287.829 298.958 287.978 298.752Z" fill="white"/>
<path d="M272.467 276.813C272.966 278.152 273.315 279.491 273.465 280.881C273.564 280.83 273.664 280.778 273.764 280.727C273.514 280.469 273.265 280.315 272.966 280.16C272.816 280.109 272.667 280.16 272.667 280.315C272.667 280.778 272.617 281.19 272.617 281.654C272.716 281.602 272.816 281.551 272.916 281.499C272.218 280.675 271.669 282.529 271.47 282.89C271.37 283.096 271.669 283.302 271.769 283.096C271.819 282.993 272.467 281.551 272.617 281.757C272.716 281.911 272.916 281.757 272.916 281.602C272.916 281.139 272.966 280.727 272.966 280.263C272.866 280.315 272.766 280.366 272.667 280.418C272.966 280.521 273.165 280.675 273.365 280.933C273.465 281.036 273.714 280.984 273.664 280.778C273.465 279.336 273.165 277.946 272.617 276.607C272.716 276.504 272.367 276.607 272.467 276.813Z" fill="white"/>
<path d="M287.878 276.143C287.33 277.225 287.031 278.306 286.931 279.542C286.931 279.645 287.08 279.748 287.18 279.748C287.878 279.542 287.978 280.109 288.028 280.727C288.028 280.881 288.228 280.984 288.327 280.881C288.577 281.293 288.776 281.654 289.026 282.066C288.976 282.323 289.375 282.426 289.375 282.169C289.474 281.448 289.026 279.594 288.078 280.624C288.178 280.675 288.277 280.727 288.377 280.778C288.327 280.315 288.228 279.903 288.128 279.439C288.128 279.336 288.028 279.285 287.928 279.285C287.579 279.285 287.33 279.336 287.031 279.439C287.13 279.491 287.18 279.542 287.28 279.645C287.33 278.512 287.629 277.482 288.178 276.452C288.327 276.091 287.978 275.886 287.878 276.143Z" fill="white"/>
<path d="M319.15 245.604C319.848 250.548 321.195 258.376 323.988 267.646C329.873 287.01 336.806 295.301 345.983 317.755C348.277 323.369 351.519 331.815 354.711 342.475C360.646 344.484 371.669 347.213 385.135 344.793C407.279 340.827 420.297 325.686 423.938 321.103C416.356 306.683 408.726 291.078 401.294 274.341C393.913 257.758 387.479 241.793 381.893 226.6C377.205 224.798 364.935 220.781 349.873 224.592C331.868 229.072 321.943 241.793 319.15 245.604Z" fill="#EC615B"/>
<path opacity="0.13" d="M362.94 222.841C364.836 226.961 367.23 232.574 369.773 239.372C377.753 261.002 380.646 278.77 381.693 285.104C383.938 298.185 385.883 318.476 382.691 344.535C389.624 344.329 394.761 342.681 398.003 341.394C407.279 337.583 414.012 330.939 420.496 324.502C421.992 323.06 423.14 321.772 423.888 321C421.743 317.189 418.501 311.215 414.711 303.747C403.738 282.22 396.556 264.35 390.521 249.209C388.377 243.904 385.434 236.282 381.993 227.064C379.25 225.879 375.808 224.695 371.768 223.922C368.477 223.253 365.484 222.944 362.94 222.841Z" fill="#494949"/>
<path opacity="0.1" d="M395.958 263.68C396.806 272.899 397.504 280.624 398.003 286.186C399.898 307.97 400.247 313.996 400.396 317.858C400.795 326.974 400.796 334.441 400.746 339.334C403.838 338.201 407.828 336.347 411.968 333.36C417.155 329.6 420.646 325.48 422.89 322.442C413.913 302.82 404.935 283.25 395.958 263.68Z" fill="#494949"/>
<path d="M360.546 213.777C358.152 214.498 356.856 218.051 356.058 221.708C354.462 229.175 355.31 235.561 355.609 237.776C357.055 247.612 359.649 254.977 360.496 257.397C362.691 263.371 365.683 271.354 372.217 279.851C375.958 284.692 379.15 288.864 385.035 291.954C388.476 293.808 395.609 297.567 402.94 294.58C403.289 294.426 410.471 291.387 412.317 284.898C412.716 283.456 412.815 282.014 412.965 279.182C413.065 277.482 413.115 274.495 412.765 270.787C412.267 265.895 411.219 262.084 410.421 259.354C406.88 247.252 405.135 241.226 401.444 235.973C398.402 231.647 394.96 226.703 389.274 226.034C388.776 225.982 383.04 225.416 379.649 229.536C377.304 232.42 377.454 235.973 377.504 238.342C377.654 242.874 379.349 246.119 381.993 251.114C384.636 256.058 385.683 256.676 388.825 262.547C393.115 270.581 392.666 271.354 392.466 271.56C391.619 272.332 388.227 269.912 387.479 269.345C386.781 268.83 385.783 268.109 384.536 266.719C380.646 262.238 378.352 255.492 378.352 255.492C376.307 251.32 373.614 245.398 370.87 237.879C371.718 234.531 373.015 232.162 374.063 230.617C375.758 228.145 377.653 226.446 378.102 223.356C378.302 222.171 378.202 221.141 378.102 220.472C378.95 219.648 379.2 218.412 378.751 217.382C378.202 216.197 376.856 215.631 375.559 216.043C375.559 215.888 375.409 214.549 374.262 213.828C373.314 213.21 372.018 213.313 371.07 214.034C369.574 212.85 368.327 212.541 367.429 212.489C366.382 212.438 365.883 212.695 363.389 213.159C361.294 213.725 361.145 213.622 360.546 213.777Z" fill="white"/>
<path d="M373.065 235.51C374.412 232.059 376.107 228.918 377.953 225.725C378.9 224.077 379.998 222.017 378.701 220.214C375.758 216.3 371.768 221.296 370.521 223.871C370.073 224.746 371.369 225.519 371.818 224.643C372.566 223.098 373.414 221.193 375.16 220.678C375.659 220.42 376.157 220.42 376.706 220.575C376.856 221.759 377.005 222.944 377.205 224.128C377.055 224.798 376.157 225.879 375.808 226.497C374.212 229.227 372.915 232.111 371.718 235.046C371.27 236.025 372.716 236.385 373.065 235.51Z" fill="black"/>
<path d="M356.756 242.153C356.008 236.643 355.908 231.029 356.506 225.519C357.055 220.472 358.102 212.798 364.885 214.24C365.833 214.446 366.232 212.953 365.284 212.747C359.948 211.614 356.606 215.528 355.708 220.523C354.362 227.785 354.312 235.201 355.309 242.565C355.459 243.544 356.905 243.132 356.756 242.153Z" fill="black"/>
<path d="M362.99 218.412C363.539 217.073 364.137 215.682 365.185 214.652C366.98 212.85 369.274 213.828 371.22 214.807C372.067 215.27 372.816 213.931 371.968 213.468C369.923 212.386 367.629 211.356 365.434 212.541C363.539 213.571 362.541 215.682 361.743 217.588C361.344 218.566 362.641 219.339 362.99 218.412Z" fill="black"/>
<path d="M367.429 218.875C369.274 216.403 371.718 213.828 374.91 215.785C375.758 216.3 376.506 214.961 375.658 214.446C371.868 212.129 368.676 214.652 366.382 217.742C365.783 218.566 366.831 219.648 367.429 218.875Z" fill="black"/>
<path d="M370.771 220.008C371.718 218.978 372.716 217.897 374.013 217.382C375.559 216.712 378.402 217.124 377.803 219.545C377.604 220.523 379 220.935 379.249 219.957C379.748 217.845 378.402 215.888 376.357 215.528C373.614 215.013 371.469 217.073 369.723 218.927C369.075 219.648 370.122 220.729 370.771 220.008Z" fill="black"/>
<path d="M371.369 234.737C369.624 238.6 371.768 242.514 373.264 246.067C375.359 251.063 377.554 256.058 380.247 260.693C383.738 266.77 391.319 277.688 399.249 271.457C399.997 270.839 399.249 269.5 398.501 270.118C390.87 276.143 383.788 263.989 380.696 258.376C378.9 255.08 377.304 251.681 375.808 248.23C374.312 244.78 370.97 239.372 372.716 235.51C373.065 234.634 371.768 233.81 371.369 234.737Z" fill="black"/>
<path d="M377.803 230.823C373.414 246.222 386.88 258.17 391.818 271.354C392.167 272.281 393.614 271.869 393.264 270.942C388.476 258.17 375.01 246.119 379.25 231.235C379.499 230.257 378.052 229.845 377.803 230.823Z" fill="black"/>
<path d="M355.26 241.741C357.803 256.161 363.738 269.809 372.467 281.396C376.706 286.958 381.544 292.365 388.227 294.631C393.913 296.537 401.743 297.516 407.03 293.962C412.815 290.151 413.564 282.375 413.813 275.937C413.863 274.959 412.367 274.959 412.317 275.937C412.017 284.229 410.222 293.396 400.696 294.58C391.918 295.662 383.738 292.057 377.803 285.516C366.781 273.414 359.549 257.603 356.656 241.329C356.556 240.351 355.11 240.763 355.26 241.741Z" fill="black"/>
<path d="M378.801 232.883C380.397 226.291 388.077 225.828 392.865 228.712C397.753 231.647 401.095 236.952 403.539 242.05C406.082 247.406 407.928 253.174 409.723 258.839C411.768 265.328 413.314 272.126 412.267 278.976C412.117 279.954 413.564 280.366 413.713 279.388C414.91 271.56 413.015 263.989 410.571 256.573C408.327 249.827 406.132 242.874 402.392 236.797C399.249 231.647 394.561 226.291 388.377 225.416C383.589 224.746 378.501 227.424 377.304 232.471C377.105 233.45 378.551 233.862 378.801 232.883Z" fill="black"/>
<path opacity="0.1" d="M362.392 213.107C366.382 211.459 370.272 213.262 371.22 213.725C368.427 217.536 362.491 226.755 361.993 239.784C361.245 258.324 371.968 270.633 375.758 275.01C380.646 280.624 387.03 287.937 395.259 286.907C399.898 286.34 404.287 283.147 406.531 279.079C408.775 275.01 408.626 270.581 405.933 259.148C401.793 241.844 397.254 231.699 397.903 231.39C398.551 231.081 403.938 239.784 407.977 250.702C408.376 251.835 411.718 261.002 412.915 273.62C413.663 281.396 413.015 284.589 411.469 287.422C409.075 291.799 405.184 293.756 403.688 294.426C397.653 297.052 391.868 295.198 389.125 294.22C379.299 290.821 374.062 282.581 368.776 274.289C360.646 261.466 358.402 250.496 356.257 239.939C354.761 232.626 353.763 224.128 357.504 217.897C358.152 216.609 359.599 214.292 362.392 213.107Z" fill="#494949"/>
<path d="M290.372 188.027C290.223 190.447 291.07 193.177 292.866 198.636C294.861 204.764 297.006 211.305 302.392 217.742C305.833 221.862 310.023 226.909 317.155 228.351C322.791 229.484 327.529 227.836 329.923 226.806C330.472 228.351 331.22 229.999 332.167 231.699C334.661 236.231 337.753 239.424 340.197 241.535C342.043 241.329 345.634 240.557 348.726 237.673C351.12 235.407 352.267 232.729 352.965 230.978C353.813 228.918 354.262 227.115 354.462 225.828C352.965 224.901 351.319 223.665 349.723 221.965C344.736 216.712 343.389 210.481 342.99 207.494C343.639 201.571 344.337 195.597 344.985 189.675C345.733 189.778 347.329 189.881 348.726 188.902C350.272 187.821 350.571 186.018 350.97 184.01C351.369 182.001 351.818 179.426 350.721 176.491C350.222 175.203 348.626 171.083 345.235 170.826C342.94 170.62 340.596 172.216 339.25 174.688C336.357 171.804 330.172 166.706 321.494 165.882C306.482 164.44 291.22 176.542 290.372 188.027Z" fill="white"/>
<path d="M312.517 211.562C312.118 212.644 313.265 214.189 314.113 214.961C316.457 217.073 320.596 216.97 323.589 215.528C327.778 213.519 329.125 209.193 329.724 207.236C330.422 205.073 331.32 202.241 329.873 199.717C328.626 197.503 326.432 196.73 325.584 196.473C324.736 198.275 324.088 199.614 323.589 200.49C322.99 201.571 322.791 201.932 322.442 202.756C321.943 203.837 321.893 204.249 321.195 205.228C318.352 209.039 314.462 210.429 314.462 210.429C313.564 210.635 312.766 210.841 312.517 211.562Z" fill="black"/>
<path d="M291.17 194.207C295.11 206.927 300.048 221.759 312.766 227.733C317.953 230.154 324.138 230.617 329.424 228.248C335.359 225.622 338.851 219.545 341.245 213.674C344.387 206 345.733 197.657 345.235 189.366C345.185 188.387 343.689 188.387 343.738 189.366C344.237 198.018 342.741 206.721 339.2 214.601C335.758 222.274 330.322 228.403 321.594 228.3C304.038 228.094 296.906 208.112 292.517 193.846C292.317 192.816 290.921 193.228 291.17 194.207Z" fill="black"/>
<path d="M339.798 176.13C339.848 173.04 342.94 171.186 345.683 172.061C348.227 172.937 349.823 175.512 350.372 178.087C350.871 180.559 350.671 183.443 349.923 185.812C349.324 187.769 348.576 188.799 346.282 188.799C345.484 188.799 344.686 188.49 343.838 188.49C342.891 188.49 342.891 190.035 343.838 190.035C345.534 190.035 347.18 190.859 348.826 189.984C350.023 189.366 350.721 188.129 351.22 186.842C352.516 183.34 352.666 178.602 351.02 175.151C349.674 172.319 346.781 169.898 343.589 170.259C340.646 170.568 338.352 173.04 338.302 176.078C338.302 177.108 339.798 177.108 339.798 176.13Z" fill="black"/>
<path d="M342.741 204.352C342.591 212.85 346.232 220.987 352.716 226.291C353.464 226.909 354.512 225.828 353.763 225.21C347.579 220.163 344.088 212.541 344.237 204.352C344.237 203.374 342.741 203.374 342.741 204.352Z" fill="black"/>
<path d="M329.873 227.424C331.768 232.832 334.861 237.57 339 241.381C339.699 242.05 340.796 240.969 340.048 240.299C336.058 236.643 333.115 232.162 331.27 227.012C330.97 226.085 329.524 226.497 329.873 227.424Z" fill="black"/>
<path d="M339.349 241.896C343.639 243.492 347.928 239.733 350.571 236.591C353.364 233.295 355.808 229.021 354.611 224.54C354.362 223.562 352.916 223.974 353.165 224.952C354.162 228.866 351.918 232.677 349.474 235.51C347.18 238.188 343.439 241.793 339.699 240.402C338.851 240.042 338.452 241.535 339.349 241.896Z" fill="black"/>
<path d="M296.756 188.799C296.108 186.894 297.604 184.834 298.701 183.495C300.347 181.383 302.891 180.817 304.786 182.98C306.981 185.452 307.579 189.881 307.878 193.074C308.078 195.288 307.33 198.121 308.577 200.078C309.923 202.189 312.417 203.425 314.761 203.889C315.709 204.095 316.108 202.601 315.16 202.395C313.913 202.138 312.816 201.726 311.719 201.005C309.923 199.769 309.524 198.43 309.474 196.215C309.425 194.31 309.375 192.456 309.075 190.55C308.577 187.409 307.729 183.392 305.235 181.28C303.14 179.478 300.547 179.529 298.502 181.332C296.557 183.083 294.312 186.43 295.26 189.16C295.659 190.138 297.105 189.726 296.756 188.799Z" fill="black"/>
<path d="M310.572 177.675C310.921 171.444 318.452 169.178 321.943 174.276C322.492 175.1 323.788 174.328 323.24 173.504C318.901 167.118 309.524 169.847 309.075 177.675C309.025 178.654 310.522 178.654 310.572 177.675Z" fill="black"/>
<path d="M303.789 192.919C303.09 191.941 302.691 190.859 302.641 189.675C302.242 189.881 301.893 190.138 301.494 190.344C302.641 191.117 303.24 192.353 303.19 193.743C303.489 193.486 303.838 193.228 304.138 193.022C302.891 192.559 302.093 191.117 302.342 189.778C301.993 189.932 301.594 190.087 301.245 190.241C301.843 190.602 302.342 191.117 302.691 191.786C302.841 192.095 302.941 192.404 302.991 192.765C302.991 193.022 302.991 192.713 302.941 192.61C302.841 192.404 302.741 192.25 302.641 192.044C302.242 191.117 300.946 191.941 301.345 192.816C301.644 193.537 302.143 194.31 303.04 194.361C303.789 194.413 304.437 193.898 304.537 193.125C304.686 191.426 303.39 189.726 302.043 188.954C301.644 188.696 301.045 188.902 300.946 189.417C300.547 191.632 301.744 193.795 303.789 194.567C304.287 194.722 304.736 194.31 304.736 193.846C304.786 191.889 303.888 190.138 302.292 189.108C301.843 188.799 301.145 189.211 301.145 189.778C301.195 191.22 301.644 192.61 302.492 193.795C303.09 194.516 304.387 193.743 303.789 192.919Z" fill="black"/>
<path d="M317.754 182.98C317.504 182.671 317.305 182.31 317.205 181.898C317.205 181.795 317.105 181.177 317.205 181.126C317.305 181.074 317.554 181.898 317.604 181.95C317.704 182.362 317.654 182.825 317.454 183.186C317.803 183.083 318.153 182.98 318.502 182.928C317.255 182.207 316.656 180.868 316.856 179.426C316.457 179.632 316.108 179.89 315.709 180.096C317.105 180.714 317.903 182.207 317.554 183.752C317.853 183.598 318.153 183.392 318.452 183.237C317.704 182.98 317.105 182.31 316.956 181.486C316.956 181.435 316.956 180.971 316.906 180.971C316.806 181.023 316.706 181.074 316.557 181.126C316.606 181.229 316.706 181.383 316.756 181.486C316.956 182.053 316.956 182.619 316.906 183.237C317.355 183.031 317.754 182.877 318.202 182.671C317.754 182.31 317.404 181.898 317.155 181.332C316.706 180.456 315.409 181.229 315.858 182.104C316.158 182.722 316.606 183.289 317.155 183.752C317.704 184.216 318.352 183.907 318.452 183.186C318.552 182.156 318.452 180.765 317.704 179.993C317.105 179.375 316.008 179.323 315.609 180.25C314.811 182.053 316.507 184.164 318.053 184.731C318.452 184.885 318.901 184.576 318.951 184.216C319.499 182.053 318.452 179.684 316.407 178.808C315.858 178.551 315.36 178.86 315.26 179.478C315.01 181.435 316.008 183.34 317.654 184.319C317.953 184.525 318.502 184.422 318.701 184.061C319.1 183.083 319.2 182.104 318.851 181.126C318.552 180.353 317.903 179.529 317.055 179.632C314.861 179.89 315.808 183.134 316.706 184.164C317.355 184.834 318.402 183.701 317.754 182.98Z" fill="black"/>
<path d="M330.771 227.27C330.771 227.321 330.771 227.321 330.721 227.373C331.02 227.218 331.32 227.012 331.619 226.858C331.569 226.858 331.519 226.806 331.469 226.806C331.619 227.167 331.768 227.579 331.918 227.939C332.018 227.733 333.364 227.064 333.763 226.703C334.661 225.931 335.409 224.901 336.108 223.922C337.654 221.811 338.801 219.493 339.748 217.073C339.25 216.918 338.801 216.815 338.302 216.661C336.806 221.09 335.758 227.27 331.569 229.896C331.918 230.257 332.267 230.617 332.616 230.978C333.614 229.433 334.611 227.836 335.609 226.291C336.058 225.57 335.01 224.695 334.412 225.364C333.614 226.24 332.766 227.167 331.968 228.042C332.317 228.403 332.666 228.763 333.015 229.124C333.763 228.197 334.462 227.218 335.11 226.24C335.609 225.519 334.512 224.643 333.913 225.313C333.215 226.085 332.517 226.652 331.619 227.115C332.018 227.321 332.367 227.579 332.766 227.785C332.766 227.63 332.716 227.476 332.716 227.321C332.616 226.343 331.12 226.343 331.22 227.321C331.22 227.476 331.27 227.63 331.27 227.785C331.32 228.351 331.868 228.763 332.417 228.454C333.414 227.888 334.212 227.27 335.01 226.394C334.611 226.085 334.212 225.776 333.813 225.467C333.215 226.343 332.616 227.218 331.968 228.042C331.369 228.815 332.367 229.896 333.015 229.124C333.813 228.248 334.661 227.321 335.459 226.446C335.06 226.137 334.661 225.828 334.262 225.519C333.265 227.064 332.267 228.66 331.27 230.205C330.871 230.875 331.669 231.647 332.317 231.287C336.906 228.403 338.103 222.017 339.748 217.124C340.048 216.146 338.651 215.837 338.302 216.712C337.255 219.339 335.908 221.914 334.113 224.077C333.265 225.107 331.918 225.673 331.12 226.6C330.921 226.806 330.721 226.858 330.621 227.115C330.372 227.579 330.571 228.042 331.07 228.248C331.12 228.248 331.17 228.3 331.22 228.3C331.619 228.454 332.018 228.145 332.118 227.785C332.118 227.733 332.118 227.733 332.167 227.682C332.566 226.755 331.12 226.343 330.771 227.27Z" fill="black"/>
<path d="M336.307 225.725C336.756 225.21 337.055 224.695 337.205 224.077C337.454 223.15 336.307 222.841 335.858 223.459C334.811 224.901 333.763 226.343 332.716 227.785C332.118 228.557 333.414 229.33 334.013 228.557C335.06 227.115 336.108 225.673 337.155 224.231C336.706 224.025 336.257 223.819 335.808 223.613C335.709 223.974 335.559 224.283 335.31 224.592C334.611 225.416 335.709 226.497 336.307 225.725Z" fill="black"/>
<path d="M313.265 212.953C311.868 210.069 313.365 208.987 316.158 208.215C316.507 208.112 316.856 208.06 317.155 207.906C318.352 207.339 319.05 206.103 319.549 204.919C320.347 203.168 320.796 201.262 321.843 199.666C324.038 196.215 327.928 196.37 329.175 200.49C330.422 204.61 328.876 209.193 326.232 212.335C324.936 213.88 323.34 215.322 321.444 215.991C319.798 216.609 318.352 216.403 316.756 215.682C315.609 215.167 313.514 214.137 313.215 212.798C313.015 211.82 311.569 212.232 311.769 213.21C312.317 215.888 316.207 217.536 318.552 217.897C321.095 218.309 323.489 217.021 325.434 215.373C329.773 211.665 332.467 205.125 330.372 199.46C328.128 193.331 322.043 195.597 319.798 200.438C319.1 201.932 318.751 204.455 317.604 205.537C316.158 206.927 314.312 206.412 312.816 207.494C310.721 209.039 310.921 211.768 311.968 213.88C312.417 214.652 313.714 213.88 313.265 212.953Z" fill="black"/>
<path d="M312.267 211.356C319.998 211.15 323.739 203.734 325.434 196.936C325.684 195.958 324.237 195.546 323.988 196.524C322.492 202.601 319.25 209.605 312.267 209.811C311.32 209.863 311.32 211.408 312.267 211.356Z" fill="black"/>
<path d="M291.769 193.383C290.871 193.898 285.435 187.769 283.14 179.581C281.445 173.607 281.943 168.302 282.542 164.955C283.39 162.277 284.587 159.393 286.233 156.457C293.315 143.891 304.487 137.969 310.272 135.445C309.075 136.63 307.679 138.175 306.382 140.132C304.587 142.707 303.439 145.127 302.691 147.136C304.387 145.642 306.332 144.149 308.427 142.707C313.115 139.462 317.654 137.145 321.594 135.497C320.995 138.123 320.347 140.75 319.749 143.325C321.145 142.501 323.09 141.316 325.484 140.132C328.128 138.844 333.564 136.166 334.412 137.351C334.661 137.711 334.362 138.123 333.913 139.617C333.315 141.574 333.115 143.222 333.015 144.303C334.561 144.046 336.307 143.84 338.202 143.788C340.297 143.685 342.192 143.788 343.888 143.943C343.29 146.312 342.691 148.629 342.093 150.998C343.29 151.462 344.985 152.337 346.731 153.779C351.419 157.745 352.766 163.101 353.115 165.212C353.863 170.259 352.666 174.482 351.768 176.8C349.374 171.547 344.636 169.487 341.943 170.774C340.297 171.547 338.402 174.019 338.601 176.542C338.651 177.109 338.801 177.624 338.95 177.984C337.205 176.336 334.561 174.122 331.12 172.062C327.679 170.002 323.838 167.684 318.751 167.015C309.175 165.727 301.694 171.135 299.699 172.628C296.607 174.894 291.569 178.551 290.671 184.37C289.774 189.263 292.467 193.022 291.769 193.383Z" fill="#5222D0"/>
<path opacity="0.11" d="M329.724 170.774C331.27 174.379 333.365 179.993 334.512 187.048C335.709 194.052 337.205 203.065 333.564 213.056C332.317 216.455 329.375 222.995 322.392 229.124C324.038 229.072 326.881 228.763 329.873 227.115C334.761 224.489 336.906 220.111 337.554 218.566C339.898 220.935 343.04 224.643 345.434 229.896C346.781 232.832 347.629 235.561 348.127 237.827C349.474 236.591 351.968 233.913 353.115 229.69C353.564 228.042 353.714 226.549 353.714 225.313C350.821 223.665 348.975 221.656 347.928 220.369C347.479 219.802 343.04 214.034 343.29 206.052C343.389 203.168 343.988 203.116 344.437 198.687C344.836 194.722 344.636 191.374 344.437 189.16C346.98 190.241 348.277 189.726 348.876 189.366C350.023 188.645 350.322 187.357 351.369 180.817C351.918 177.315 352.217 175.564 352.317 174.637C352.916 169.641 353.215 167.118 352.915 165.109C352.068 159.393 348.527 155.582 347.33 154.397C345.335 152.389 343.29 151.256 341.943 150.638C342.541 148.475 343.09 146.26 343.689 144.097C340.846 147.548 338.202 149.917 336.407 151.462C331.918 155.17 329.325 156.045 326.232 159.599C323.788 162.38 322.392 165.212 321.594 167.118C324.337 168.405 327.03 169.59 329.724 170.774Z" fill="#494949"/>
<path opacity="0.17" d="M309.175 136.012C307.479 136.784 303.489 138.947 300.696 143.531C299.998 144.664 298.452 147.496 298.003 151.462C297.504 155.839 298.552 159.29 299.15 160.989C299.35 156.715 300.347 149.814 304.337 142.707C305.883 140.029 307.579 137.814 309.175 136.012Z" fill="#494949"/>
<path opacity="0.08" d="M344.437 189.417C344.287 189.366 343.988 189.932 342.891 193.846C341.394 199.151 340.596 203.065 340.147 205.022C339.499 207.854 338.402 211.871 336.357 216.712C339.898 217.433 343.439 218.154 346.98 218.824C345.684 215.888 344.137 211.665 343.539 206.412C342.591 197.4 344.935 189.52 344.437 189.417Z" fill="#494949"/>
</svg>
